<svg width="25" height="25" viewBox="0 0 25 25" fill="none" xmlns="http://www.w3.org/2000/svg">
<path d="M0 13.2338C0 12.7453 0 12.2574 0 11.7688C0.0146694 11.6905 0.0372848 11.6135 0.0427858 11.5346C0.117967 10.4083 0.3539 9.31444 0.737749 8.2554C2.92288 2.23383 9.27046 -1.15911 15.4952 0.362177C21.9167 1.93177 26.0327 8.35752 24.7736 14.845C24.2907 17.333 23.1636 19.4847 21.3825 21.283C19.5152 23.1687 17.2714 24.3555 14.6505 24.8074C14.1798 24.8887 13.7031 24.9364 13.2288 25C12.7404 25 12.2526 25 11.7643 25C11.4348 24.9609 11.1041 24.9272 10.7753 24.8808C8.31145 24.5329 6.13243 23.5484 4.26758 21.9012C2.07144 19.961 0.697409 17.547 0.191925 14.6518C0.110021 14.1822 0.0629563 13.7065 0 13.2338ZM21.2425 19.1857C24.4625 15.0963 24.4973 8.54217 19.9174 4.34945C15.4218 0.234383 8.46792 0.553561 4.35865 5.06607C0.22921 9.59999 0.976128 15.7775 3.7572 19.1723C4.29875 17.9365 5.06095 16.8628 6.04808 15.9524C7.03949 15.0376 8.18187 14.3693 9.46972 13.9229C6.72409 11.8367 6.88668 8.17653 8.82366 6.18625C10.6647 4.29503 13.7996 4.12199 15.799 5.85301C16.8625 6.77386 17.4914 7.93195 17.5966 9.33462C17.7365 11.2148 17.0031 12.73 15.5129 13.9217C16.8179 14.3687 17.9511 15.0376 18.9388 15.945C19.9327 16.8591 20.6973 17.9408 21.2425 19.1857ZM12.5796 23.5417C12.7765 23.5301 13.0613 23.5172 13.3443 23.4952C15.9206 23.2953 18.1424 22.2882 20.0323 20.537C20.0849 20.4881 20.1179 20.3603 20.0928 20.2943C18.9737 17.3544 16.8643 15.5592 13.774 15.0083C11.6115 14.6224 9.60358 15.1355 7.81024 16.4079C6.43132 17.3862 5.46803 18.691 4.89531 20.2833C4.85313 20.4007 4.87391 20.4691 4.96621 20.5535C7.09511 22.5096 9.60541 23.4977 12.5796 23.5417ZM12.4965 6.10615C10.4819 6.10615 8.83282 7.7589 8.83649 9.77364C8.84016 11.7792 10.4795 13.4209 12.4849 13.4283C14.4989 13.4356 16.1535 11.7884 16.1571 9.77303C16.1602 7.75829 14.5111 6.10554 12.4965 6.10615Z" fill="#092BD7"/>
</svg>
