<svg width="39" height="37" viewBox="0 0 39 37" fill="none" xmlns="http://www.w3.org/2000/svg">
<path opacity="0.25" fill-rule="evenodd" clip-rule="evenodd" d="M19.5229 35.8584C29.5571 35.8584 37.6914 28.0551 37.6914 18.4292C37.6914 8.80332 29.5571 1 19.5229 1C9.48878 1 1.35449 8.80332 1.35449 18.4292C1.35449 28.0551 9.48878 35.8584 19.5229 35.8584Z" stroke="white" stroke-width="1.34966"/>
<path d="M21.1764 13.9678H22.8462C22.9998 13.9678 23.1245 13.8551 23.1245 13.7162V12.2067C23.1245 12.0678 22.9998 11.9551 22.8462 11.9551H21.1764C19.4888 11.9551 18.1151 13.1964 18.1151 14.7226V16.4837H16.167C16.0134 16.4837 15.8887 16.5964 15.8887 16.7353V18.2449C15.8887 18.3837 16.0134 18.4965 16.167 18.4965H18.1151V23.7799C18.1151 23.9187 18.2398 24.0315 18.3934 24.0315H20.0632C20.2168 24.0315 20.3415 23.9187 20.3415 23.7799V18.4965H22.2896C22.4093 18.4965 22.5156 18.427 22.554 18.3244L23.1106 16.8148C23.139 16.7383 23.1245 16.6538 23.0722 16.5879C23.0193 16.5225 22.9358 16.4837 22.8462 16.4837H20.3415V14.7226C20.3415 14.3065 20.7161 13.9678 21.1764 13.9678Z" fill="white"/>
</svg>
