<svg width="225" height="47" viewBox="0 0 225 47" fill="none" xmlns="http://www.w3.org/2000/svg">
<rect x="0.5" y="0.5" width="224" height="46" rx="23" stroke="#092BD7"/>
<path d="M30.3825 29H28.4025V17.3015H35.679V19.166H30.3825V22.4495H35.1345V24.281H30.3825V29ZM36.347 26.822C36.347 26.14 36.567 25.5955 37.007 25.1885C37.458 24.7705 38.0465 24.5065 38.7725 24.3965L40.835 24.083C41.231 24.028 41.429 23.8355 41.429 23.5055C41.429 23.1425 41.3025 22.851 41.0495 22.631C40.7965 22.4 40.417 22.2845 39.911 22.2845C39.427 22.2845 39.042 22.422 38.756 22.697C38.47 22.961 38.305 23.3075 38.261 23.7365L36.512 23.3405C36.589 22.6145 36.9355 21.9985 37.5515 21.4925C38.1675 20.9755 38.9485 20.717 39.8945 20.717C41.0605 20.717 41.9185 20.9975 42.4685 21.5585C43.0295 22.1195 43.31 22.84 43.31 23.72V27.713C43.31 28.241 43.343 28.67 43.409 29H41.627C41.572 28.835 41.5445 28.494 41.5445 27.977C41.0165 28.824 40.1915 29.2475 39.0695 29.2475C38.2555 29.2475 37.5955 29.011 37.0895 28.538C36.5945 28.054 36.347 27.482 36.347 26.822ZM39.4325 27.746C40.0265 27.746 40.505 27.5865 40.868 27.2675C41.242 26.9375 41.429 26.404 41.429 25.667V25.304L39.3335 25.6175C38.6185 25.7385 38.261 26.1015 38.261 26.7065C38.261 26.9925 38.3655 27.24 38.5745 27.449C38.7835 27.647 39.0695 27.746 39.4325 27.746ZM47.5377 29H45.6237V17.054H47.5377V29ZM51.343 24.0995H55.2865C55.2645 23.5935 55.083 23.17 54.742 22.829C54.412 22.488 53.9335 22.3175 53.3065 22.3175C52.7345 22.3175 52.2725 22.499 51.9205 22.862C51.5685 23.214 51.376 23.6265 51.343 24.0995ZM55.501 26.195L57.118 26.7065C56.887 27.4435 56.4525 28.054 55.8145 28.538C55.1875 29.011 54.412 29.2475 53.488 29.2475C52.344 29.2475 51.3705 28.857 50.5675 28.076C49.7755 27.295 49.3795 26.25 49.3795 24.941C49.3795 23.709 49.7645 22.697 50.5345 21.905C51.3155 21.113 52.234 20.717 53.29 20.717C54.522 20.717 55.4845 21.0965 56.1775 21.8555C56.8705 22.6035 57.217 23.6155 57.217 24.8915C57.217 25.2325 57.2005 25.436 57.1675 25.502H51.2935C51.3155 26.107 51.5355 26.6075 51.9535 27.0035C52.3825 27.3995 52.894 27.5975 53.488 27.5975C54.522 27.5975 55.193 27.13 55.501 26.195ZM66.6369 22.4825C66.0209 22.4825 65.4984 22.708 65.0694 23.159C64.6404 23.599 64.4259 24.204 64.4259 24.974C64.4259 25.755 64.6404 26.371 65.0694 26.822C65.5094 27.273 66.0429 27.4985 66.6699 27.4985C67.2309 27.4985 67.6764 27.35 68.0064 27.053C68.3474 26.745 68.5729 26.3985 68.6829 26.0135L70.3659 26.624C70.1459 27.339 69.7169 27.955 69.0789 28.472C68.4519 28.989 67.6489 29.2475 66.6699 29.2475C65.4929 29.2475 64.5029 28.8405 63.6999 28.0265C62.9079 27.2125 62.5119 26.195 62.5119 24.974C62.5119 23.742 62.9024 22.7245 63.6834 21.9215C64.4754 21.1185 65.4544 20.717 66.6204 20.717C67.6214 20.717 68.4354 20.9755 69.0624 21.4925C69.7004 22.0095 70.1129 22.631 70.2999 23.357L68.5839 23.984C68.4739 23.566 68.2594 23.214 67.9404 22.928C67.6324 22.631 67.1979 22.4825 66.6369 22.4825ZM73.9156 26.855C74.3556 27.306 74.8891 27.5315 75.5161 27.5315C76.1431 27.5315 76.6711 27.306 77.1001 26.855C77.5401 26.404 77.7601 25.777 77.7601 24.974C77.7601 24.182 77.5401 23.566 77.1001 23.126C76.6711 22.675 76.1431 22.4495 75.5161 22.4495C74.8891 22.4495 74.3556 22.675 73.9156 23.126C73.4866 23.566 73.2721 24.182 73.2721 24.974C73.2721 25.766 73.4866 26.393 73.9156 26.855ZM75.5161 20.717C76.7261 20.717 77.7216 21.1185 78.5026 21.9215C79.2946 22.7245 79.6906 23.742 79.6906 24.974C79.6906 26.206 79.2946 27.229 78.5026 28.043C77.7216 28.846 76.7261 29.2475 75.5161 29.2475C74.3171 29.2475 73.3216 28.846 72.5296 28.043C71.7486 27.229 71.3581 26.206 71.3581 24.974C71.3581 23.742 71.7486 22.7245 72.5296 21.9215C73.3216 21.1185 74.3171 20.717 75.5161 20.717ZM83.4377 29H81.5402V20.9645H83.3717V21.9875C83.5917 21.5915 83.9217 21.2835 84.3617 21.0635C84.8127 20.8435 85.2747 20.7335 85.7477 20.7335C86.2867 20.7335 86.7707 20.8545 87.1997 21.0965C87.6287 21.3385 87.9477 21.6905 88.1567 22.1525C88.7177 21.2065 89.5867 20.7335 90.7637 20.7335C91.5557 20.7335 92.2267 20.992 92.7767 21.509C93.3267 22.026 93.6017 22.785 93.6017 23.786V29H91.7537V24.0995C91.7537 23.6045 91.6217 23.2085 91.3577 22.9115C91.1047 22.6035 90.7197 22.4495 90.2027 22.4495C89.7077 22.4495 89.3062 22.62 88.9982 22.961C88.6902 23.302 88.5362 23.7255 88.5362 24.2315V29H86.6552V24.0995C86.6552 23.6045 86.5232 23.2085 86.2592 22.9115C86.0062 22.6035 85.6212 22.4495 85.1042 22.4495C84.5982 22.4495 84.1912 22.62 83.8832 22.961C83.5862 23.291 83.4377 23.7145 83.4377 24.2315V29ZM105.269 28.109C105.082 28.461 104.774 28.736 104.345 28.934C103.927 29.132 103.476 29.231 102.992 29.231C102.057 29.231 101.314 28.9285 100.764 28.3235C100.225 27.7185 99.9558 26.954 99.9558 26.03V20.9645H101.87V25.6835C101.87 26.2225 102.002 26.6625 102.266 27.0035C102.53 27.3445 102.937 27.515 103.487 27.515C104.026 27.515 104.438 27.35 104.724 27.02C105.021 26.69 105.17 26.2555 105.17 25.7165V20.9645H107.084V27.5315C107.084 28.0155 107.111 28.505 107.166 29H105.335C105.291 28.758 105.269 28.461 105.269 28.109ZM111.459 29H109.561V20.9645H111.393V21.9875C111.613 21.5915 111.943 21.2835 112.383 21.0635C112.834 20.8435 113.296 20.7335 113.769 20.7335C114.308 20.7335 114.792 20.8545 115.221 21.0965C115.65 21.3385 115.969 21.6905 116.178 22.1525C116.739 21.2065 117.608 20.7335 118.785 20.7335C119.577 20.7335 120.248 20.992 120.798 21.509C121.348 22.026 121.623 22.785 121.623 23.786V29H119.775V24.0995C119.775 23.6045 119.643 23.2085 119.379 22.9115C119.126 22.6035 118.741 22.4495 118.224 22.4495C117.729 22.4495 117.327 22.62 117.019 22.961C116.711 23.302 116.557 23.7255 116.557 24.2315V29H114.676V24.0995C114.676 23.6045 114.544 23.2085 114.28 22.9115C114.027 22.6035 113.642 22.4495 113.125 22.4495C112.619 22.4495 112.212 22.62 111.904 22.961C111.607 23.291 111.459 23.7145 111.459 24.2315V29ZM131.557 22.4825C130.941 22.4825 130.419 22.708 129.99 23.159C129.561 23.599 129.346 24.204 129.346 24.974C129.346 25.755 129.561 26.371 129.99 26.822C130.43 27.273 130.963 27.4985 131.59 27.4985C132.151 27.4985 132.597 27.35 132.927 27.053C133.268 26.745 133.493 26.3985 133.603 26.0135L135.286 26.624C135.066 27.339 134.637 27.955 133.999 28.472C133.372 28.989 132.569 29.2475 131.59 29.2475C130.413 29.2475 129.423 28.8405 128.62 28.0265C127.828 27.2125 127.432 26.195 127.432 24.974C127.432 23.742 127.823 22.7245 128.604 21.9215C129.396 21.1185 130.375 20.717 131.541 20.717C132.542 20.717 133.356 20.9755 133.983 21.4925C134.621 22.0095 135.033 22.631 135.22 23.357L133.504 23.984C133.394 23.566 133.18 23.214 132.861 22.928C132.553 22.631 132.118 22.4825 131.557 22.4825ZM138.836 26.855C139.276 27.306 139.809 27.5315 140.436 27.5315C141.063 27.5315 141.591 27.306 142.02 26.855C142.46 26.404 142.68 25.777 142.68 24.974C142.68 24.182 142.46 23.566 142.02 23.126C141.591 22.675 141.063 22.4495 140.436 22.4495C139.809 22.4495 139.276 22.675 138.836 23.126C138.407 23.566 138.192 24.182 138.192 24.974C138.192 25.766 138.407 26.393 138.836 26.855ZM140.436 20.717C141.646 20.717 142.642 21.1185 143.423 21.9215C144.215 22.7245 144.611 23.742 144.611 24.974C144.611 26.206 144.215 27.229 143.423 28.043C142.642 28.846 141.646 29.2475 140.436 29.2475C139.237 29.2475 138.242 28.846 137.45 28.043C136.669 27.229 136.278 26.206 136.278 24.974C136.278 23.742 136.669 22.7245 137.45 21.9215C138.242 21.1185 139.237 20.717 140.436 20.717ZM148.375 24.3635V29H146.461V20.9645H148.325V22.037C148.578 21.597 148.914 21.2725 149.332 21.0635C149.761 20.8435 150.217 20.7335 150.701 20.7335C151.647 20.7335 152.368 21.0305 152.863 21.6245C153.358 22.2185 153.605 22.983 153.605 23.918V29H151.691V24.248C151.691 23.709 151.559 23.28 151.295 22.961C151.031 22.631 150.613 22.466 150.041 22.466C149.513 22.466 149.101 22.6475 148.804 23.0105C148.518 23.3625 148.375 23.8135 148.375 24.3635ZM155.226 26.822L156.892 26.36C156.925 26.745 157.085 27.0695 157.371 27.3335C157.657 27.5975 158.042 27.7295 158.526 27.7295C158.9 27.7295 159.191 27.6415 159.4 27.4655C159.62 27.2895 159.73 27.0695 159.73 26.8055C159.73 26.3435 159.417 26.0465 158.79 25.9145L157.602 25.6505C156.909 25.4965 156.375 25.2105 156.001 24.7925C155.627 24.3745 155.44 23.8795 155.44 23.3075C155.44 22.6035 155.726 21.9985 156.298 21.4925C156.87 20.9755 157.569 20.717 158.394 20.717C158.922 20.717 159.389 20.794 159.796 20.948C160.203 21.102 160.517 21.3055 160.737 21.5585C160.968 21.8005 161.144 22.037 161.265 22.268C161.386 22.499 161.463 22.73 161.496 22.961L159.879 23.423C159.835 23.115 159.692 22.84 159.45 22.598C159.219 22.345 158.867 22.2185 158.394 22.2185C158.064 22.2185 157.789 22.312 157.569 22.499C157.349 22.675 157.239 22.8895 157.239 23.1425C157.239 23.5935 157.508 23.874 158.047 23.984L159.268 24.2315C160.016 24.3965 160.588 24.6935 160.984 25.1225C161.38 25.5515 161.578 26.0685 161.578 26.6735C161.578 27.3445 161.309 27.944 160.77 28.472C160.242 28.989 159.499 29.2475 158.542 29.2475C157.992 29.2475 157.497 29.165 157.057 29C156.628 28.835 156.287 28.626 156.034 28.373C155.792 28.109 155.6 27.8505 155.457 27.5975C155.325 27.3335 155.248 27.075 155.226 26.822ZM168.626 28.109C168.439 28.461 168.131 28.736 167.702 28.934C167.284 29.132 166.833 29.231 166.349 29.231C165.414 29.231 164.672 28.9285 164.122 28.3235C163.583 27.7185 163.313 26.954 163.313 26.03V20.9645H165.227V25.6835C165.227 26.2225 165.359 26.6625 165.623 27.0035C165.887 27.3445 166.294 27.515 166.844 27.515C167.383 27.515 167.796 27.35 168.082 27.02C168.379 26.69 168.527 26.2555 168.527 25.7165V20.9645H170.441V27.5315C170.441 28.0155 170.469 28.505 170.524 29H168.692C168.648 28.758 168.626 28.461 168.626 28.109ZM174.833 29H172.919V17.054H174.833V29ZM179.727 18.506V20.9645H181.393V22.664H179.727V26.393C179.727 26.745 179.809 27.0035 179.974 27.1685C180.139 27.3225 180.398 27.3995 180.75 27.3995C180.97 27.3995 181.19 27.3775 181.41 27.3335V28.9175C181.124 29.0385 180.733 29.099 180.238 29.099C179.49 29.099 178.902 28.89 178.473 28.472C178.044 28.043 177.829 27.4545 177.829 26.7065V22.664H176.344V20.9645H176.757C177.164 20.9645 177.472 20.849 177.681 20.618C177.89 20.387 177.994 20.0845 177.994 19.7105V18.506H179.727ZM185.21 26.855C185.65 27.306 186.183 27.5315 186.81 27.5315C187.437 27.5315 187.965 27.306 188.394 26.855C188.834 26.404 189.054 25.777 189.054 24.974C189.054 24.182 188.834 23.566 188.394 23.126C187.965 22.675 187.437 22.4495 186.81 22.4495C186.183 22.4495 185.65 22.675 185.21 23.126C184.781 23.566 184.566 24.182 184.566 24.974C184.566 25.766 184.781 26.393 185.21 26.855ZM186.81 20.717C188.02 20.717 189.016 21.1185 189.797 21.9215C190.589 22.7245 190.985 23.742 190.985 24.974C190.985 26.206 190.589 27.229 189.797 28.043C189.016 28.846 188.02 29.2475 186.81 29.2475C185.611 29.2475 184.616 28.846 183.824 28.043C183.043 27.229 182.652 26.206 182.652 24.974C182.652 23.742 183.043 22.7245 183.824 21.9215C184.616 21.1185 185.611 20.717 186.81 20.717ZM197.537 20.915V22.862C197.317 22.829 197.108 22.8125 196.91 22.8125C195.469 22.8125 194.749 23.599 194.749 25.172V29H192.835V20.9645H194.699V22.2515C194.886 21.8225 195.189 21.487 195.607 21.245C196.025 20.992 196.498 20.8655 197.026 20.8655C197.202 20.8655 197.372 20.882 197.537 20.915Z" fill="#092BD7"/>
</svg>
