<svg width="16" height="16" viewBox="0 0 16 16" fill="none" xmlns="http://www.w3.org/2000/svg">
<path d="M4.35202 0C4.56322 0.0870713 4.78182 0.155926 4.95905 0.31216C5.24095 0.559788 5.38576 0.869169 5.40243 1.24154C5.40552 1.31317 5.40707 1.3848 5.40954 1.45644C5.42281 1.55709 5.41571 1.65775 5.41355 1.75841C5.44504 2.22464 5.50093 2.68593 5.59912 3.14476C5.67662 3.50632 5.79456 3.85584 5.87423 4.21586C5.95759 4.59131 5.88935 4.94392 5.64759 5.22767C5.41015 5.50618 5.21409 5.81278 4.98406 6.0953C4.73551 6.40067 4.51474 6.72888 4.27576 7.04228C4.23346 7.09755 4.23222 7.12935 4.26402 7.18801C4.47306 7.57397 4.69876 7.94881 4.94639 8.31191C5.35118 8.90567 5.80414 9.45835 6.33274 9.94342C6.71128 10.2908 7.11515 10.6082 7.54618 10.8941C7.8676 11.1075 8.20477 11.293 8.52836 11.5011C8.61141 11.5545 8.69046 11.5823 8.79852 11.4987C9.41111 11.0235 10.0286 10.5542 10.6542 10.0963C10.9691 9.86561 11.3292 9.84647 11.6963 9.9604C12.1733 10.1086 12.6547 10.233 13.1502 10.3056C13.5754 10.3677 14.0015 10.4059 14.431 10.4121C14.4662 10.4257 14.5035 10.4121 14.5394 10.4208C14.8577 10.4127 15.1356 10.5264 15.3733 10.7268C15.5608 10.8845 15.6861 11.0911 15.7472 11.3325C15.7602 11.3841 15.7655 11.4391 15.8028 11.4817C15.8028 11.5126 15.8028 11.5434 15.8028 11.5743C15.7945 11.5811 15.7917 11.5879 15.7945 11.595C15.7973 11.6018 15.8 11.6052 15.8028 11.6052C15.8028 12.6238 15.8028 13.6424 15.8028 14.6607C15.7945 14.6675 15.7917 14.6743 15.7945 14.6814C15.7973 14.6882 15.8 14.6916 15.8028 14.6916C15.8028 14.7123 15.8028 14.7327 15.8028 14.7533C15.7559 15.1294 15.5512 15.4024 15.2514 15.62C15.1001 15.7296 14.9306 15.7726 14.7536 15.8028C14.7435 15.8028 14.733 15.8028 14.7228 15.8028C14.7126 15.7914 14.7021 15.7914 14.6919 15.8028C14.62 15.8028 14.548 15.8028 14.4758 15.8028C14.4242 15.7775 14.3729 15.7775 14.3214 15.8028C14.2186 15.8028 14.1157 15.8028 14.0126 15.8028C14 15.7889 13.9836 15.7868 13.9663 15.7868C13.949 15.7868 13.9317 15.7868 13.9144 15.7868C13.9027 15.7868 13.8913 15.7868 13.8795 15.7868C13.8514 15.7895 13.8206 15.7784 13.7968 15.8028C13.7452 15.8028 13.694 15.8028 13.6424 15.8028C13.4328 15.7346 13.2151 15.7874 13.0014 15.7584C12.2984 15.663 11.5965 15.558 10.9105 15.3767C10.0052 15.1377 9.12365 14.8277 8.27949 14.4165C7.48782 14.0308 6.73043 13.5874 6.0178 13.0703C5.38484 12.6108 4.79294 12.1023 4.23809 11.5496C3.69466 11.008 3.1991 10.4263 2.74769 9.80695C2.24101 9.11161 1.80318 8.37552 1.42741 7.60114C1.10383 6.93421 0.824399 6.24937 0.608882 5.54076C0.385954 4.80807 0.213047 4.06364 0.107141 3.30284C0.0586651 2.95178 0.0247011 2.60164 0.0259361 2.24718C0.0259361 2.21816 0.0209959 2.18574 0 2.16042C0 2.10885 0 2.0576 0 2.00604C0.0191433 1.98905 0.0151294 1.9659 0.0160557 1.94397C0.0160557 1.9273 0.0160557 1.91063 0.0160557 1.89396C0.0160557 1.88284 0.0160557 1.87172 0.0160557 1.86092C0.0160557 1.8498 0.0160557 1.839 0.0160557 1.82788C0.0160557 1.81707 0.0160557 1.80627 0.0160557 1.79515C0.0160557 1.78434 0.0160557 1.77354 0.0160557 1.76273C0.0160557 1.75192 0.0160557 1.74143 0.0160557 1.73062C0.0160557 1.72012 0.0160557 1.70931 0.0160557 1.69882C0.0160557 1.68832 0.0160557 1.67782 0.0160557 1.66732C0.0160557 1.65682 0.0160557 1.64633 0.0160557 1.63583C0.0160557 1.62533 0.0160557 1.61514 0.0160557 1.60464C0.0160557 1.59415 0.0160557 1.58396 0.0160557 1.57346C0.0160557 1.56296 0.0160557 1.55277 0.0160557 1.54227C0.0160557 1.53178 0.0160557 1.52128 0.0160557 1.51109C0.0160557 1.50059 0.0160557 1.49009 0.0160557 1.47959C0.0160557 1.4691 0.0160557 1.4586 0.0160557 1.44779C0.0160557 1.43699 0.0160557 1.42649 0.0160557 1.41568C0.0160557 1.40487 0.0160557 1.39407 0.0160557 1.38326C0.0160557 1.37245 0.0160557 1.36134 0.0160557 1.35053C0.0160557 1.33942 0.0160557 1.32861 0.0160557 1.31749C0.0160557 1.30638 0.0160557 1.29526 0.0160557 1.28415C0.0160557 1.26747 0.0160557 1.25111 0.0160557 1.23444C0.0160557 1.21807 0.0160557 1.20171 0.0160557 1.18534C0.0160557 1.17454 0.0160557 1.16404 0.0160557 1.15323C0.0160557 1.14273 0.0160557 1.13224 0.0160557 1.12174C0.0166732 1.10568 0.0123505 1.09117 0.000308763 1.07944C0.000308763 1.05875 0.000308763 1.03837 0.000308763 1.01768C0.0642228 0.611352 0.294869 0.324819 0.643154 0.119183C0.770365 0.0441532 0.912705 0.0348903 1.04949 0C2.15023 0 3.25097 0 4.35202 0Z" fill="#FED246"/>
</svg>
