<svg width="1094" height="529" viewBox="0 0 1094 529" fill="none" xmlns="http://www.w3.org/2000/svg">
<path opacity="0.5" d="M346.462 99.9295L456.001 188.08C457.588 189.357 459.872 189.228 461.304 187.783C468.605 180.365 492.304 159.195 532.051 151.326C533.986 150.939 535.379 149.223 535.392 147.249L535.831 10.4504C535.844 4.68377 531.187 0.0266191 525.42 0.00081774C497.529 -0.089487 418.447 7.17359 345.404 84.6809C341.25 89.0929 341.74 96.1367 346.462 99.9295Z" fill="#005786"/>
<g style="mix-blend-mode:exclusion" opacity="0.5">
<path d="M739.197 99.9295L629.658 188.08C628.071 189.357 625.787 189.228 624.355 187.783C617.054 180.365 593.355 159.195 553.608 151.326C551.673 150.939 550.28 149.223 550.267 147.249L549.828 10.4504C549.815 4.68377 554.472 0.0266191 560.239 0.00081774C588.13 -0.089487 667.211 7.17359 740.255 84.6809C744.422 89.0929 743.919 96.1367 739.197 99.9295Z" fill="#007BFF"/>
</g>
<g style="mix-blend-mode:exclusion" opacity="0.5">
<path d="M742.86 428.174L633.321 340.024C631.734 338.747 629.45 338.875 628.018 340.32C620.717 347.738 597.018 368.908 557.271 376.778C555.336 377.165 553.943 378.881 553.93 380.854L553.491 517.64C553.478 523.407 558.135 528.064 563.902 528.09C591.793 528.18 670.875 520.917 743.918 443.41C748.072 439.011 747.582 431.967 742.86 428.174Z" fill="#007BFF"/>
</g>
<path opacity="0.5" d="M350.126 428.174L459.666 340.024C461.253 338.747 463.536 338.875 464.968 340.32C472.27 347.738 495.968 368.908 535.715 376.778C537.65 377.165 539.044 378.881 539.057 380.854L539.495 517.64C539.508 523.407 534.851 528.064 529.084 528.09C501.193 528.18 422.112 520.917 349.068 443.41C344.901 439.011 345.404 431.967 350.126 428.174Z" fill="#005786"/>
<path opacity="0.5" d="M431.67 270.838H283.467C281.209 270.838 279.364 272.708 279.442 274.966C279.777 285.08 280.629 295.62 282.138 306.599C282.357 308.172 282.912 309.604 283.725 310.843C293.452 364.91 317.55 400.09 329.484 414.784C333.122 419.26 339.675 419.97 344.152 416.332L450.35 330.117C451.885 328.865 452.35 326.711 451.434 324.956C441.552 306.121 437.307 288.447 435.669 274.398C435.424 272.36 433.708 270.838 431.67 270.838Z" fill="#005786"/>
<path opacity="0.5" d="M451.254 203.032C452.144 201.342 451.693 199.265 450.209 198.065L343.908 111.759C339.431 108.121 332.878 108.831 329.24 113.307C317.216 128.117 292.834 163.736 283.262 218.512C282.836 219.428 282.526 220.435 282.371 221.492C281.43 228.33 280.746 234.999 280.282 241.501C279.959 245.268 279.714 249.113 279.546 253.022C279.443 255.318 281.262 257.24 283.571 257.24H431.439C433.477 257.24 435.193 255.718 435.425 253.693C437.063 239.631 441.321 221.905 451.254 203.032Z" fill="#005786"/>
<g style="mix-blend-mode:exclusion" opacity="0.5">
<path d="M638.134 324.956C637.218 326.71 637.682 328.865 639.217 330.116L745.416 416.331C749.892 419.969 756.446 419.26 760.084 414.783C772.107 399.973 796.477 364.354 806.062 309.578C806.488 308.662 806.797 307.656 806.952 306.598C807.894 299.761 808.578 293.091 809.042 286.589C809.39 282.499 809.661 278.32 809.829 274.05C809.919 271.779 808.074 269.896 805.804 269.896H658.014C655.963 269.896 654.247 271.431 654.015 273.482C652.454 287.673 648.235 305.721 638.134 324.956Z" fill="#007BFF"/>
</g>
<g style="mix-blend-mode:exclusion" opacity="0.5">
<path d="M807.183 221.505C806.964 219.931 806.409 218.499 805.597 217.261C795.869 163.194 771.784 128.014 759.838 113.32C756.2 108.843 749.646 108.134 745.17 111.772L638.971 197.987C637.436 199.239 636.972 201.406 637.888 203.16C647.55 221.582 651.82 238.895 653.536 252.789C653.781 254.802 655.497 256.311 657.523 256.311H805.803C808.074 256.311 809.905 254.441 809.828 252.17C809.493 242.353 808.641 232.135 807.183 221.505Z" fill="#007BFF"/>
</g>
<path d="M346.239 54.8742C346.775 54.8742 347.209 54.4399 347.209 53.9043C347.209 53.3687 346.775 52.9344 346.239 52.9344V54.8742ZM41.7038 52.9344C41.1682 52.9344 40.7339 53.3687 40.7339 53.9043C40.7339 54.4399 41.1682 54.8742 41.7038 54.8742V52.9344ZM346.239 52.9344H342.779V54.8742H346.239V52.9344ZM335.857 52.9344H328.936V54.8742H335.857V52.9344ZM322.015 52.9344L315.094 52.9344V54.8742L322.015 54.8742V52.9344ZM308.172 52.9344H301.251V54.8742H308.172V52.9344ZM294.33 52.9344H287.409V54.8742H294.33V52.9344ZM280.487 52.9344H273.566V54.8742H280.487V52.9344ZM266.645 52.9344H259.724V54.8742H266.645V52.9344ZM252.802 52.9344H245.881V54.8742H252.802V52.9344ZM238.96 52.9344H232.038V54.8742H238.96V52.9344ZM225.117 52.9344H218.196V54.8742H225.117V52.9344ZM211.275 52.9344H204.353V54.8742H211.275V52.9344ZM197.432 52.9344H190.511V54.8742H197.432V52.9344ZM183.59 52.9344H176.668V54.8742H183.59V52.9344ZM169.747 52.9344H162.826V54.8742H169.747V52.9344ZM155.905 52.9344H148.983V54.8742H155.905V52.9344ZM142.062 52.9344H135.141V54.8742H142.062V52.9344ZM128.22 52.9344H121.298V54.8742H128.22V52.9344ZM114.377 52.9344H107.456V54.8742H114.377V52.9344ZM100.534 52.9344H93.6132V54.8742H100.534V52.9344ZM86.692 52.9344L79.7707 52.9344V54.8742L86.692 54.8742V52.9344ZM72.8494 52.9344H65.9282V54.8742H72.8494V52.9344ZM59.0069 52.9344H52.0856V54.8742H59.0069V52.9344ZM45.1644 52.9344H41.7038V54.8742H45.1644V52.9344Z" fill="white" fill-opacity="0.25"/>
<line x1="1091.09" y1="54.8742" x2="743.881" y2="54.8742" stroke="white" stroke-opacity="0.25" stroke-width="1.93972" stroke-miterlimit="4.14008" stroke-linecap="round" stroke-dasharray="6.79 6.79"/>
<line x1="269.62" y1="366.198" x2="42.6732" y2="366.198" stroke="white" stroke-opacity="0.25" stroke-width="1.93972" stroke-miterlimit="4.14008" stroke-linecap="round" stroke-dasharray="6.79 6.79"/>
<line x1="1093.03" y1="366.198" x2="824.379" y2="366.198" stroke="white" stroke-opacity="0.25" stroke-width="1.93972" stroke-miterlimit="4.14008" stroke-linecap="round" stroke-dasharray="6.79 6.79"/>
<path d="M42.9135 18.2497C42.8291 23.5655 47.273 27.925 52.7013 27.8406C56.4421 27.8406 59.7047 25.8999 61.3641 22.9467V17.7153H52.6732V20.3591H58.3828V22.3561C57.2296 24.128 55.2889 25.1687 52.842 25.1687C48.8481 25.1687 46.0074 22.1873 46.0074 18.2216C46.0074 14.3121 48.7637 11.387 52.6732 11.387C54.9795 11.387 56.8358 12.3714 58.214 14.3121L60.3797 12.5402C58.6078 10.0651 55.9358 8.65878 52.7013 8.65878C47.3293 8.5744 42.801 12.9339 42.9135 18.2497ZM64.6856 21.7373C64.6856 25.4499 67.2732 27.8406 70.7326 27.8406C74.1078 27.8406 76.7235 25.4499 76.7235 21.7373V13.7214H73.7702V21.9623C73.7702 23.8749 72.4483 25.1124 70.7326 25.1124C68.9326 25.1124 67.6107 23.8749 67.6107 21.9623V13.7214H64.6856V21.7373ZM91.8358 19.1779C91.8358 15.4652 89.5858 13.4121 86.1825 13.4121C83.7918 13.4121 81.7387 14.3683 80.3605 16.3653L82.0762 18.1091C83.2293 16.7309 84.3544 16.0559 85.9013 16.0559C87.7857 16.0559 88.8545 17.0965 88.8545 19.0091V19.9091H84.945C81.823 19.9091 79.8542 21.4561 79.8542 23.8468C79.8542 26.2375 81.7668 27.8406 84.6637 27.8406C86.5482 27.8406 88.067 27.1937 89.0795 25.9843V27.5312H91.8358V19.1779ZM88.8545 22.2998C88.8545 24.1843 87.2795 25.5624 85.2825 25.5624C83.8481 25.5624 82.8637 24.8874 82.8637 23.7343C82.8637 22.6092 83.7356 22.0467 85.3106 22.0467H88.8545V22.2998ZM103.849 13.7214C103.512 13.6371 103.146 13.5808 102.724 13.5808C101.149 13.5808 99.6867 14.284 98.7023 15.5215V13.7214H95.946V27.5312H98.8992V20.1623C98.8992 17.7153 100.615 16.3371 102.949 16.3371H103.849V13.7214ZM116.709 6.43684V15.409C115.669 14.1433 114.009 13.4121 112.097 13.4121C108.272 13.3277 105.262 16.6184 105.347 20.6404C105.347 24.7187 108.215 27.8406 112.097 27.8406C114.15 27.8406 115.922 26.9969 116.934 25.5624V27.5312H119.691V6.43684H116.709ZM116.766 20.6404C116.766 23.6499 114.769 25.1405 112.603 25.1405C110.156 25.1405 108.356 23.2561 108.356 20.6123C108.356 17.9684 110.241 16.1121 112.603 16.1121C114.741 16.1121 116.766 17.6591 116.766 20.6404ZM136.394 21.5967C136.534 20.9498 136.619 20.331 136.619 19.7404C136.619 16.1403 133.89 13.4121 130.234 13.4121C126.325 13.3277 123.006 16.6747 123.09 20.6404C123.09 24.7187 126.296 27.8406 130.515 27.8406C132.625 27.8406 134.453 27.1094 136.028 25.6187L134.622 23.5936C133.384 24.6905 132.034 25.2249 130.6 25.2249C128.237 25.2249 126.465 23.8468 126.1 21.5967H136.394ZM126.156 19.2904C126.606 17.2372 128.181 15.9153 130.122 15.9153C132.062 15.9153 133.637 17.1809 133.665 19.2904H126.156ZM148.082 27.5312H151.064V8.96817H148.082V27.5312ZM176.14 18.8966C176.14 15.6059 174.199 13.4121 171.021 13.4121C169.081 13.4121 167.365 14.2558 166.352 15.5777C165.537 14.2277 164.074 13.4121 162.162 13.4121C160.502 13.4121 159.152 14.0027 158.168 15.0152V13.7214H155.411V27.5312H158.365V19.3185C158.365 17.4059 159.602 16.1121 161.402 16.1121C163.174 16.1121 164.299 17.4059 164.299 19.3185V27.5312H167.252V19.1779C167.252 17.4059 168.49 16.1121 170.29 16.1121C172.062 16.1121 173.159 17.3778 173.159 19.3185V27.5312H176.14V18.8966ZM191.21 19.1779C191.21 15.4652 188.96 13.4121 185.557 13.4121C183.166 13.4121 181.113 14.3683 179.735 16.3653L181.451 18.1091C182.604 16.7309 183.729 16.0559 185.276 16.0559C187.16 16.0559 188.229 17.0965 188.229 19.0091V19.9091H184.319C181.198 19.9091 179.229 21.4561 179.229 23.8468C179.229 26.2375 181.141 27.8406 184.038 27.8406C185.923 27.8406 187.441 27.1937 188.454 25.9843V27.5312H191.21V19.1779ZM188.229 22.2998C188.229 24.1843 186.654 25.5624 184.657 25.5624C183.223 25.5624 182.238 24.8874 182.238 23.7343C182.238 22.6092 183.11 22.0467 184.685 22.0467H188.229V22.2998ZM206.149 13.7214V15.6903C205.136 14.2558 203.364 13.4121 201.255 13.4121C197.43 13.4121 194.533 16.309 194.533 20.331C194.533 24.353 197.402 27.25 201.255 27.25C203.168 27.25 204.883 26.5468 205.924 25.2812V26.2656C205.924 28.8532 204.293 30.2032 201.789 30.2032C199.905 30.2032 198.499 29.4719 196.952 28.2344L195.32 30.2876C196.98 31.8345 199.23 32.9033 201.958 32.9033C206.149 32.9033 208.877 30.4563 208.877 26.0968V13.7214H206.149ZM205.952 20.3029C205.952 21.7092 205.53 22.778 204.714 23.5374C203.899 24.2968 202.943 24.6624 201.789 24.6624C200.58 24.6624 199.596 24.2686 198.78 23.4811C197.964 22.6655 197.57 21.6248 197.57 20.331C197.57 19.0654 197.964 18.0247 198.78 17.2372C199.596 16.4497 200.58 16.0559 201.789 16.0559C204.068 16.0559 205.952 17.4903 205.952 20.3029ZM225.578 21.5967C225.719 20.9498 225.803 20.331 225.803 19.7404C225.803 16.1403 223.075 13.4121 219.418 13.4121C215.509 13.3277 212.19 16.6747 212.274 20.6404C212.274 24.7187 215.481 27.8406 219.7 27.8406C221.809 27.8406 223.637 27.1094 225.212 25.6187L223.806 23.5936C222.568 24.6905 221.218 25.2249 219.784 25.2249C217.421 25.2249 215.649 23.8468 215.284 21.5967H225.578ZM215.34 19.2904C215.79 17.2372 217.365 15.9153 219.306 15.9153C221.247 15.9153 222.822 17.1809 222.85 19.2904H215.34ZM241.253 18.8966C241.253 15.6059 239.312 13.4121 236.078 13.4121C234.362 13.4121 232.984 13.9746 231.943 15.0715V13.7214H229.187V27.5312H232.14V19.2904C232.14 17.4059 233.462 16.084 235.29 16.084C237.09 16.084 238.3 17.3778 238.3 19.2904V27.5312H241.253V18.8966ZM244.071 25.1687C245.308 26.7719 247.277 27.8406 249.64 27.8406C251.102 27.8406 252.312 27.475 253.296 26.7437C254.281 25.9843 254.759 24.9437 254.759 23.6218C254.759 21.6811 253.606 20.556 250.99 19.4591L249.668 18.9247C248.318 18.3622 247.84 17.9966 247.84 17.2934C247.84 16.4215 248.571 15.9715 249.724 15.9715C250.934 15.9715 252.087 16.4778 252.959 17.3778L254.562 15.5496C253.352 14.1152 251.777 13.4121 249.78 13.4121C246.968 13.4121 244.915 14.9309 244.915 17.4059C244.915 19.3466 246.068 20.4154 248.515 21.4279L249.921 22.0186C251.271 22.5811 251.862 22.9186 251.862 23.7343C251.862 24.7468 250.906 25.2812 249.64 25.2812C248.177 25.2812 246.968 24.578 245.758 23.3124L244.071 25.1687Z" fill="white"/>
<path d="M739.272 18.2497C739.159 23.5655 743.744 27.925 749.032 27.8406C752.491 27.8406 755.416 26.1812 756.991 23.5655L754.741 21.9061C753.419 23.9593 751.507 25.1124 749.06 25.1124C745.263 25.1124 742.366 22.1873 742.366 18.2497C742.366 14.3121 745.263 11.387 749.06 11.387C751.507 11.387 753.419 12.5402 754.741 14.5933L756.991 12.9339C755.388 10.3182 752.435 8.65878 749.032 8.65878C743.744 8.5744 739.159 12.9339 739.272 18.2497ZM759.214 20.6123C759.13 24.5218 762.533 27.925 766.499 27.8406C770.521 27.925 773.924 24.5218 773.84 20.6123C773.924 16.7028 770.521 13.3277 766.499 13.4121C762.533 13.3558 759.13 16.6465 759.214 20.6123ZM770.802 20.6404C770.802 23.1436 768.946 25.1124 766.499 25.1124C764.08 25.1124 762.224 23.1999 762.224 20.6404C762.224 18.081 764.08 16.1121 766.527 16.1121C768.917 16.1121 770.802 18.081 770.802 20.6404ZM789.291 18.8966C789.291 15.6059 787.35 13.4121 784.116 13.4121C782.4 13.4121 781.022 13.9746 779.981 15.0715V13.7214H777.225V27.5312H780.178V19.2904C780.178 17.4059 781.5 16.084 783.328 16.084C785.129 16.084 786.338 17.3778 786.338 19.2904V27.5312H789.291V18.8966ZM792.109 25.1687C793.347 26.7719 795.316 27.8406 797.678 27.8406C799.141 27.8406 800.35 27.475 801.335 26.7437C802.319 25.9843 802.797 24.9437 802.797 23.6218C802.797 21.6811 801.644 20.556 799.028 19.4591L797.706 18.9247C796.356 18.3622 795.878 17.9966 795.878 17.2934C795.878 16.4215 796.609 15.9715 797.763 15.9715C798.972 15.9715 800.125 16.4778 800.997 17.3778L802.6 15.5496C801.391 14.1152 799.816 13.4121 797.819 13.4121C795.006 13.4121 792.953 14.9309 792.953 17.4059C792.953 19.3466 794.106 20.4154 796.553 21.4279L797.959 22.0186C799.309 22.5811 799.9 22.9186 799.9 23.7343C799.9 24.7468 798.944 25.2812 797.678 25.2812C796.216 25.2812 795.006 24.578 793.797 23.3124L792.109 25.1687ZM806.062 21.7373C806.062 25.4499 808.649 27.8406 812.109 27.8406C815.484 27.8406 818.1 25.4499 818.1 21.7373V13.7214H815.147V21.9623C815.147 23.8749 813.825 25.1124 812.109 25.1124C810.309 25.1124 808.987 23.8749 808.987 21.9623V13.7214H806.062V21.7373ZM822.243 27.5312H825.196V6.43684H822.243V27.5312ZM837.68 25.028C836.864 25.1124 836.273 25.1687 835.851 25.1687C834.051 25.1687 833.123 24.5499 833.123 22.778V16.2809H837.23V13.7214H833.123V10.0932H830.142V13.7214H827.892V16.2809H830.142V23.0311C830.142 26.2656 832.054 27.8406 835.233 27.8406C835.936 27.8406 836.751 27.7281 837.68 27.5312V25.028ZM852.83 21.5967C852.971 20.9498 853.055 20.331 853.055 19.7404C853.055 16.1403 850.327 13.4121 846.671 13.4121C842.761 13.3277 839.442 16.6747 839.527 20.6404C839.527 24.7187 842.733 27.8406 846.952 27.8406C849.061 27.8406 850.889 27.1094 852.465 25.6187L851.058 23.5936C849.821 24.6905 848.471 25.2249 847.036 25.2249C844.674 25.2249 842.902 23.8468 842.536 21.5967H852.83ZM842.592 19.2904C843.042 17.2372 844.617 15.9153 846.558 15.9153C848.499 15.9153 850.074 17.1809 850.102 19.2904H842.592ZM863.028 25.1687C864.266 26.7719 866.235 27.8406 868.597 27.8406C870.06 27.8406 871.269 27.475 872.254 26.7437C873.238 25.9843 873.716 24.9437 873.716 23.6218C873.716 21.6811 872.563 20.556 869.947 19.4591L868.625 18.9247C867.275 18.3622 866.797 17.9966 866.797 17.2934C866.797 16.4215 867.528 15.9715 868.682 15.9715C869.891 15.9715 871.044 16.4778 871.916 17.3778L873.519 15.5496C872.31 14.1152 870.735 13.4121 868.738 13.4121C865.925 13.4121 863.872 14.9309 863.872 17.4059C863.872 19.3466 865.025 20.4154 867.472 21.4279L868.878 22.0186C870.228 22.5811 870.819 22.9186 870.819 23.7343C870.819 24.7468 869.863 25.2812 868.597 25.2812C867.135 25.2812 865.925 24.578 864.716 23.3124L863.028 25.1687ZM889.553 21.5967C889.694 20.9498 889.778 20.331 889.778 19.7404C889.778 16.1403 887.05 13.4121 883.394 13.4121C879.484 13.3277 876.165 16.6747 876.25 20.6404C876.25 24.7187 879.456 27.8406 883.675 27.8406C885.784 27.8406 887.612 27.1094 889.187 25.6187L887.781 23.5936C886.544 24.6905 885.194 25.2249 883.759 25.2249C881.397 25.2249 879.625 23.8468 879.259 21.5967H889.553ZM879.315 19.2904C879.765 17.2372 881.34 15.9153 883.281 15.9153C885.222 15.9153 886.797 17.1809 886.825 19.2904H879.315ZM893.021 21.7373C893.021 25.4499 895.609 27.8406 899.068 27.8406C902.444 27.8406 905.059 25.4499 905.059 21.7373V13.7214H902.106V21.9623C902.106 23.8749 900.784 25.1124 899.068 25.1124C897.268 25.1124 895.946 23.8749 895.946 21.9623V13.7214H893.021V21.7373ZM907.909 25.1687C909.146 26.7719 911.115 27.8406 913.478 27.8406C914.94 27.8406 916.15 27.475 917.134 26.7437C918.118 25.9843 918.597 24.9437 918.597 23.6218C918.597 21.6811 917.443 20.556 914.828 19.4591L913.506 18.9247C912.156 18.3622 911.678 17.9966 911.678 17.2934C911.678 16.4215 912.409 15.9715 913.562 15.9715C914.771 15.9715 915.925 16.4778 916.797 17.3778L918.4 15.5496C917.19 14.1152 915.615 13.4121 913.618 13.4121C910.806 13.4121 908.753 14.9309 908.753 17.4059C908.753 19.3466 909.906 20.4154 912.353 21.4279L913.759 22.0186C915.109 22.5811 915.7 22.9186 915.7 23.7343C915.7 24.7468 914.743 25.2812 913.478 25.2812C912.015 25.2812 910.806 24.578 909.596 23.3124L907.909 25.1687ZM940.376 6.43684V15.409C939.335 14.1433 937.676 13.4121 935.763 13.4121C931.938 13.3277 928.929 16.6184 929.013 20.6404C929.013 24.7187 931.882 27.8406 935.763 27.8406C937.816 27.8406 939.588 26.9969 940.601 25.5624V27.5312H943.357V6.43684H940.376ZM940.432 20.6404C940.432 23.6499 938.435 25.1405 936.27 25.1405C933.823 25.1405 932.023 23.2561 932.023 20.6123C932.023 17.9684 933.907 16.1121 936.27 16.1121C938.407 16.1121 940.432 17.6591 940.432 20.6404ZM946.757 20.6123C946.672 24.5218 950.075 27.925 954.041 27.8406C958.063 27.925 961.466 24.5218 961.382 20.6123C961.466 16.7028 958.063 13.3277 954.041 13.4121C950.075 13.3558 946.672 16.6465 946.757 20.6123ZM958.344 20.6404C958.344 23.1436 956.488 25.1124 954.041 25.1124C951.622 25.1124 949.766 23.1999 949.766 20.6404C949.766 18.081 951.622 16.1121 954.069 16.1121C956.46 16.1121 958.344 18.081 958.344 20.6404ZM963.896 20.6123C963.896 24.6343 967.13 27.8406 971.208 27.8406C973.712 27.8406 975.793 26.6312 977.031 24.6343L974.949 23.0311C973.937 24.4093 972.699 25.1124 971.237 25.1124C968.762 25.1124 966.905 23.1436 966.905 20.6123C966.905 18.1091 968.762 16.1403 971.237 16.1403C972.727 16.1403 973.965 16.8434 974.949 18.2497L977.031 16.6184C975.821 14.6215 973.768 13.4121 971.208 13.4121C967.243 13.3558 963.811 16.6465 963.896 20.6123ZM980.146 21.7373C980.146 25.4499 982.733 27.8406 986.193 27.8406C989.568 27.8406 992.184 25.4499 992.184 21.7373V13.7214H989.23V21.9623C989.23 23.8749 987.908 25.1124 986.193 25.1124C984.393 25.1124 983.071 23.8749 983.071 21.9623V13.7214H980.146V21.7373ZM1017.06 18.8966C1017.06 15.6059 1015.11 13.4121 1011.94 13.4121C1010 13.4121 1008.28 14.2558 1007.27 15.5777C1006.45 14.2277 1004.99 13.4121 1003.08 13.4121C1001.42 13.4121 1000.07 14.0027 999.083 15.0152V13.7214H996.327V27.5312H999.28V19.3185C999.28 17.4059 1000.52 16.1121 1002.32 16.1121C1004.09 16.1121 1005.21 17.4059 1005.21 19.3185V27.5312H1008.17V19.1779C1008.17 17.4059 1009.41 16.1121 1011.21 16.1121C1012.98 16.1121 1014.07 17.3778 1014.07 19.3185V27.5312H1017.06V18.8966ZM1033.59 21.5967C1033.73 20.9498 1033.81 20.331 1033.81 19.7404C1033.81 16.1403 1031.09 13.4121 1027.43 13.4121C1023.52 13.3277 1020.2 16.6747 1020.28 20.6404C1020.28 24.7187 1023.49 27.8406 1027.71 27.8406C1029.82 27.8406 1031.65 27.1094 1033.22 25.6187L1031.82 23.5936C1030.58 24.6905 1029.23 25.2249 1027.79 25.2249C1025.43 25.2249 1023.66 23.8468 1023.29 21.5967H1033.59ZM1023.35 19.2904C1023.8 17.2372 1025.38 15.9153 1027.32 15.9153C1029.26 15.9153 1030.83 17.1809 1030.86 19.2904H1023.35ZM1049.26 18.8966C1049.26 15.6059 1047.32 13.4121 1044.09 13.4121C1042.37 13.4121 1040.99 13.9746 1039.95 15.0715V13.7214H1037.2V27.5312H1040.15V19.2904C1040.15 17.4059 1041.47 16.084 1043.3 16.084C1045.1 16.084 1046.31 17.3778 1046.31 19.2904V27.5312H1049.26V18.8966ZM1061.59 25.028C1060.77 25.1124 1060.18 25.1687 1059.76 25.1687C1057.96 25.1687 1057.03 24.5499 1057.03 22.778V16.2809H1061.14V13.7214H1057.03V10.0932H1054.05V13.7214H1051.8V16.2809H1054.05V23.0311C1054.05 26.2656 1055.96 27.8406 1059.14 27.8406C1059.84 27.8406 1060.66 27.7281 1061.59 27.5312V25.028ZM1063.44 20.6123C1063.35 24.5218 1066.75 27.925 1070.72 27.8406C1074.74 27.925 1078.14 24.5218 1078.06 20.6123C1078.14 16.7028 1074.74 13.3277 1070.72 13.4121C1066.75 13.3558 1063.35 16.6465 1063.44 20.6123ZM1075.02 20.6404C1075.02 23.1436 1073.17 25.1124 1070.72 25.1124C1068.3 25.1124 1066.44 23.1999 1066.44 20.6404C1066.44 18.081 1068.3 16.1121 1070.75 16.1121C1073.14 16.1121 1075.02 18.081 1075.02 20.6404ZM1080.15 25.1687C1081.39 26.7719 1083.36 27.8406 1085.72 27.8406C1087.18 27.8406 1088.39 27.475 1089.38 26.7437C1090.36 25.9843 1090.84 24.9437 1090.84 23.6218C1090.84 21.6811 1089.69 20.556 1087.07 19.4591L1085.75 18.9247C1084.4 18.3622 1083.92 17.9966 1083.92 17.2934C1083.92 16.4215 1084.65 15.9715 1085.81 15.9715C1087.02 15.9715 1088.17 16.4778 1089.04 17.3778L1090.64 15.5496C1089.43 14.1152 1087.86 13.4121 1085.86 13.4121C1083.05 13.4121 1081 14.9309 1081 17.4059C1081 19.3466 1082.15 20.4154 1084.6 21.4279L1086 22.0186C1087.35 22.5811 1087.94 22.9186 1087.94 23.7343C1087.94 24.7468 1086.99 25.2812 1085.72 25.2812C1084.26 25.2812 1083.05 24.578 1081.84 23.3124L1080.15 25.1687Z" fill="white"/>
<line x1="253.134" y1="205.202" x2="4.84998" y2="205.202" stroke="white" stroke-opacity="0.25" stroke-width="1.93972" stroke-miterlimit="4.14008" stroke-linecap="round" stroke-dasharray="6.79 6.79"/>
<path d="M1091.09 205.203L833.5 205.203" stroke="white" stroke-opacity="0.25" stroke-width="1.93972" stroke-miterlimit="4.14008" stroke-linecap="round" stroke-dasharray="6.79 6.79"/>
<path d="M1.20941 167.718C1.12504 173.034 5.56893 177.394 10.9972 177.309C14.738 177.309 18.0006 175.369 19.66 172.415V167.184H10.9691V169.828H16.6787V171.825C15.5255 173.597 13.5848 174.637 11.1379 174.637C7.14397 174.637 4.30326 171.656 4.30326 167.69C4.30326 163.781 7.0596 160.856 10.9691 160.856C13.2754 160.856 15.1317 161.84 16.5099 163.781L18.6756 162.009C16.9037 159.534 14.2317 158.128 10.9972 158.128C5.62518 158.043 1.09691 162.403 1.20941 167.718ZM22.9815 171.206C22.9815 174.919 25.5691 177.309 29.0285 177.309C32.4037 177.309 35.0194 174.919 35.0194 171.206V163.19H32.0661V171.431C32.0661 173.344 30.7442 174.581 29.0285 174.581C27.2285 174.581 25.9066 173.344 25.9066 171.431V163.19H22.9815V171.206ZM50.1317 168.647C50.1317 164.934 47.8817 162.881 44.4784 162.881C42.0877 162.881 40.0346 163.837 38.6564 165.834L40.3721 167.578C41.5252 166.2 42.6503 165.525 44.1972 165.525C46.0816 165.525 47.1504 166.565 47.1504 168.478V169.378H43.2409C40.1189 169.378 38.1501 170.925 38.1501 173.316C38.1501 175.706 40.0627 177.309 42.9596 177.309C44.8441 177.309 46.3629 176.662 47.3754 175.453V177H50.1317V168.647ZM47.1504 171.769C47.1504 173.653 45.5754 175.031 43.5784 175.031C42.144 175.031 41.1596 174.356 41.1596 173.203C41.1596 172.078 42.0315 171.515 43.6065 171.515H47.1504V171.769ZM62.1452 163.19C61.8077 163.106 61.4421 163.05 61.0202 163.05C59.4451 163.05 57.9826 163.753 56.9982 164.99V163.19H54.2419V177H57.1951V169.631C57.1951 167.184 58.9108 165.806 61.2452 165.806H62.1452V163.19ZM75.0054 155.906V164.878C73.9647 163.612 72.3053 162.881 70.3927 162.881C66.5676 162.796 63.5581 166.087 63.6425 170.109C63.6425 174.187 66.5113 177.309 70.3927 177.309C72.4459 177.309 74.2178 176.466 75.2304 175.031V177H77.9867V155.906H75.0054ZM75.0616 170.109C75.0616 173.119 73.0647 174.609 70.899 174.609C68.452 174.609 66.652 172.725 66.652 170.081C66.652 167.437 68.5364 165.581 70.899 165.581C73.0365 165.581 75.0616 167.128 75.0616 170.109ZM94.6895 171.065C94.8302 170.419 94.9145 169.8 94.9145 169.209C94.9145 165.609 92.1863 162.881 88.53 162.881C84.6205 162.796 81.3016 166.143 81.386 170.109C81.386 174.187 84.5923 177.309 88.8112 177.309C90.9207 177.309 92.7488 176.578 94.3239 175.087L92.9176 173.062C91.6801 174.159 90.33 174.694 88.8956 174.694C86.533 174.694 84.7611 173.316 84.3955 171.065H94.6895ZM84.4517 168.759C84.9017 166.706 86.4768 165.384 88.4175 165.384C90.3581 165.384 91.9332 166.65 91.9613 168.759H84.4517ZM116.672 155.906V164.878C115.632 163.612 113.972 162.881 112.06 162.881C108.235 162.796 105.225 166.087 105.309 170.109C105.309 174.187 108.178 177.309 112.06 177.309C114.113 177.309 115.885 176.466 116.897 175.031V177H119.654V155.906H116.672ZM116.729 170.109C116.729 173.119 114.732 174.609 112.566 174.609C110.119 174.609 108.319 172.725 108.319 170.081C108.319 167.437 110.203 165.581 112.566 165.581C114.704 165.581 116.729 167.128 116.729 170.109ZM136.356 171.065C136.497 170.419 136.581 169.8 136.581 169.209C136.581 165.609 133.853 162.881 130.197 162.881C126.287 162.796 122.969 166.143 123.053 170.109C123.053 174.187 126.259 177.309 130.478 177.309C132.588 177.309 134.416 176.578 135.991 175.087L134.585 173.062C133.347 174.159 131.997 174.694 130.563 174.694C128.2 174.694 126.428 173.316 126.062 171.065H136.356ZM126.119 168.759C126.569 166.706 128.144 165.384 130.084 165.384C132.025 165.384 133.6 166.65 133.628 168.759H126.119ZM146.92 167.718C146.808 173.034 151.392 177.394 156.68 177.309C160.139 177.309 163.064 175.65 164.639 173.034L162.389 171.375C161.067 173.428 159.155 174.581 156.708 174.581C152.911 174.581 150.014 171.656 150.014 167.718C150.014 163.781 152.911 160.856 156.708 160.856C159.155 160.856 161.067 162.009 162.389 164.062L164.639 162.403C163.036 159.787 160.083 158.128 156.68 158.128C151.392 158.043 146.808 162.403 146.92 167.718ZM178.841 168.647C178.841 164.934 176.591 162.881 173.187 162.881C170.797 162.881 168.743 163.837 167.365 165.834L169.081 167.578C170.234 166.2 171.359 165.525 172.906 165.525C174.79 165.525 175.859 166.565 175.859 168.478V169.378H171.95C168.828 169.378 166.859 170.925 166.859 173.316C166.859 175.706 168.772 177.309 171.669 177.309C173.553 177.309 175.072 176.662 176.084 175.453V177H178.841V168.647ZM175.859 171.769C175.859 173.653 174.284 175.031 172.287 175.031C170.853 175.031 169.868 174.356 169.868 173.203C169.868 172.078 170.74 171.515 172.315 171.515H175.859V171.769ZM182.951 177H185.904V163.19H182.951V177ZM182.416 158.043C182.416 159.14 183.316 159.984 184.441 159.984C185.538 159.984 186.438 159.14 186.438 158.043C186.438 156.946 185.538 156.074 184.441 156.074C183.316 156.074 182.416 156.946 182.416 158.043ZM202.072 177L196.925 169.856L201.706 163.19H198.331L195.265 167.747L192.171 163.19H188.796L193.55 169.828L188.431 177H191.806L195.237 171.937L198.697 177H202.072ZM215.316 168.647C215.316 164.934 213.066 162.881 209.663 162.881C207.272 162.881 205.219 163.837 203.841 165.834L205.557 167.578C206.71 166.2 207.835 165.525 209.382 165.525C211.266 165.525 212.335 166.565 212.335 168.478V169.378H208.426C205.304 169.378 203.335 170.925 203.335 173.316C203.335 175.706 205.247 177.309 208.144 177.309C210.029 177.309 211.548 176.662 212.56 175.453V177H215.316V168.647ZM212.335 171.769C212.335 173.653 210.76 175.031 208.763 175.031C207.329 175.031 206.344 174.356 206.344 173.203C206.344 172.078 207.216 171.515 208.791 171.515H212.335V171.769ZM218.133 174.637C219.37 176.241 221.339 177.309 223.702 177.309C225.164 177.309 226.374 176.944 227.358 176.212C228.342 175.453 228.821 174.412 228.821 173.091C228.821 171.15 227.667 170.025 225.052 168.928L223.73 168.393C222.38 167.831 221.902 167.465 221.902 166.762C221.902 165.89 222.633 165.44 223.786 165.44C224.995 165.44 226.149 165.947 227.02 166.847L228.624 165.018C227.414 163.584 225.839 162.881 223.842 162.881C221.03 162.881 218.976 164.4 218.976 166.875C218.976 168.815 220.13 169.884 222.577 170.897L223.983 171.487C225.333 172.05 225.924 172.387 225.924 173.203C225.924 174.216 224.967 174.75 223.702 174.75C222.239 174.75 221.03 174.047 219.82 172.781L218.133 174.637Z" fill="white"/>
<path d="M928.549 177H931.531V169.35H938.9V166.65H931.531V161.109H940.475V158.437H928.549V177ZM953.467 168.647C953.467 164.934 951.217 162.881 947.814 162.881C945.423 162.881 943.37 163.837 941.991 165.834L943.707 167.578C944.86 166.2 945.985 165.525 947.532 165.525C949.417 165.525 950.486 166.565 950.486 168.478V169.378H946.576C943.454 169.378 941.485 170.925 941.485 173.316C941.485 175.706 943.398 177.309 946.295 177.309C948.179 177.309 949.698 176.662 950.711 175.453V177H953.467V168.647ZM950.486 171.769C950.486 173.653 948.91 175.031 946.914 175.031C945.479 175.031 944.495 174.356 944.495 173.203C944.495 172.078 945.367 171.515 946.942 171.515H950.486V171.769ZM965.79 174.497C964.974 174.581 964.383 174.637 963.962 174.637C962.161 174.637 961.233 174.019 961.233 172.247V165.75H965.34V163.19H961.233V159.562H958.252V163.19H956.002V165.75H958.252V172.5C958.252 175.734 960.165 177.309 963.343 177.309C964.046 177.309 964.862 177.197 965.79 177V174.497ZM968.643 171.206C968.643 174.919 971.23 177.309 974.69 177.309C978.065 177.309 980.681 174.919 980.681 171.206V163.19H977.727V171.431C977.727 173.344 976.405 174.581 974.69 174.581C972.89 174.581 971.568 173.344 971.568 171.431V163.19H968.643V171.206ZM992.727 163.19C992.39 163.106 992.024 163.05 991.602 163.05C990.027 163.05 988.565 163.753 987.58 164.99V163.19H984.824V177H987.777V169.631C987.777 167.184 989.493 165.806 991.827 165.806H992.727V163.19ZM1006.07 168.647C1006.07 164.934 1003.82 162.881 1000.41 162.881C998.022 162.881 995.968 163.837 994.59 165.834L996.306 167.578C997.459 166.2 998.584 165.525 1000.13 165.525C1002.02 165.525 1003.08 166.565 1003.08 168.478V169.378H999.175C996.053 169.378 994.084 170.925 994.084 173.316C994.084 175.706 995.996 177.309 998.893 177.309C1000.78 177.309 1002.3 176.662 1003.31 175.453V177H1006.07V168.647ZM1003.08 171.769C1003.08 173.653 1001.51 175.031 999.512 175.031C998.078 175.031 997.093 174.356 997.093 173.203C997.093 172.078 997.965 171.515 999.54 171.515H1003.08V171.769ZM1030.9 168.365C1030.9 165.075 1028.96 162.881 1025.79 162.881C1023.84 162.881 1022.13 163.725 1021.12 165.046C1020.3 163.696 1018.84 162.881 1016.93 162.881C1015.27 162.881 1013.92 163.471 1012.93 164.484V163.19H1010.18V177H1013.13V168.787C1013.13 166.875 1014.37 165.581 1016.17 165.581C1017.94 165.581 1019.06 166.875 1019.06 168.787V177H1022.02V168.647C1022.02 166.875 1023.25 165.581 1025.05 165.581C1026.83 165.581 1027.92 166.847 1027.92 168.787V177H1030.9V168.365ZM1047.44 171.065C1047.58 170.419 1047.66 169.8 1047.66 169.209C1047.66 165.609 1044.93 162.881 1041.28 162.881C1037.37 162.796 1034.05 166.143 1034.13 170.109C1034.13 174.187 1037.34 177.309 1041.56 177.309C1043.67 177.309 1045.5 176.578 1047.07 175.087L1045.67 173.062C1044.43 174.159 1043.08 174.694 1041.64 174.694C1039.28 174.694 1037.51 173.316 1037.14 171.065H1047.44ZM1037.2 168.759C1037.65 166.706 1039.22 165.384 1041.17 165.384C1043.11 165.384 1044.68 166.65 1044.71 168.759H1037.2ZM1063.11 168.365C1063.11 165.075 1061.17 162.881 1057.94 162.881C1056.22 162.881 1054.84 163.443 1053.8 164.54V163.19H1051.05V177H1054V168.759C1054 166.875 1055.32 165.553 1057.15 165.553C1058.95 165.553 1060.16 166.847 1060.16 168.759V177H1063.11V168.365ZM1075.44 174.497C1074.62 174.581 1074.03 174.637 1073.61 174.637C1071.81 174.637 1070.88 174.019 1070.88 172.247V165.75H1074.99V163.19H1070.88V159.562H1067.9V163.19H1065.65V165.75H1067.9V172.5C1067.9 175.734 1069.81 177.309 1072.99 177.309C1073.69 177.309 1074.51 177.197 1075.44 177V174.497ZM1077.28 170.081C1077.2 173.991 1080.6 177.394 1084.57 177.309C1088.59 177.394 1091.99 173.991 1091.91 170.081C1091.99 166.172 1088.59 162.796 1084.57 162.881C1080.6 162.825 1077.2 166.115 1077.28 170.081ZM1088.87 170.109C1088.87 172.612 1087.02 174.581 1084.57 174.581C1082.15 174.581 1080.29 172.669 1080.29 170.109C1080.29 167.55 1082.15 165.581 1084.6 165.581C1086.99 165.581 1088.87 167.55 1088.87 170.109Z" fill="white"/>
<path d="M56.4983 339H59.7047L51.52 320.128H50.5075L42.3229 339H45.5011L46.823 335.906H55.1764L56.4983 339ZM54.1076 333.347H47.8918L51.0138 325.668L54.1076 333.347ZM74.5301 330.365C74.5301 327.075 72.5894 324.881 69.3549 324.881C67.6392 324.881 66.2611 325.443 65.2204 326.54V325.19H62.4641V339H65.4173V330.759C65.4173 328.875 66.7392 327.553 68.5674 327.553C70.3675 327.553 71.5769 328.847 71.5769 330.759V339H74.5301V330.365ZM89.611 330.647C89.611 326.934 87.361 324.881 83.9577 324.881C81.567 324.881 79.5139 325.837 78.1357 327.834L79.8514 329.578C81.0045 328.2 82.1296 327.525 83.6765 327.525C85.5609 327.525 86.6297 328.565 86.6297 330.478V331.378H82.7202C79.5982 331.378 77.6294 332.925 77.6294 335.316C77.6294 337.706 79.542 339.309 82.4389 339.309C84.3234 339.309 85.8422 338.662 86.8547 337.453V339H89.611V330.647ZM86.6297 333.769C86.6297 335.653 85.0547 337.031 83.0577 337.031C81.6233 337.031 80.6389 336.356 80.6389 335.203C80.6389 334.078 81.5108 333.515 83.0858 333.515H86.6297V333.769ZM93.7212 339H96.6744V317.906H93.7212V339ZM110.564 325.19L106.486 335.231L102.52 325.19H99.3417L104.854 338.381L104.292 339.675C103.617 341.222 102.661 341.7 101.282 341.7C101.057 341.7 100.523 341.672 99.6511 341.588V344.091C100.411 344.288 101.17 344.372 101.929 344.372C104.292 344.372 105.839 343.191 106.992 340.575L113.714 325.19H110.564ZM124.594 336.497C123.778 336.581 123.188 336.637 122.766 336.637C120.966 336.637 120.038 336.019 120.038 334.247V327.75H124.144V325.19H120.038V321.562H117.056V325.19H114.806V327.75H117.056V334.5C117.056 337.734 118.969 339.309 122.147 339.309C122.85 339.309 123.666 339.197 124.594 339V336.497ZM127.588 339H130.541V325.19H127.588V339ZM127.053 320.043C127.053 321.14 127.953 321.984 129.078 321.984C130.175 321.984 131.075 321.14 131.075 320.043C131.075 318.946 130.175 318.074 129.078 318.074C127.953 318.074 127.053 318.946 127.053 320.043ZM133.939 332.081C133.939 336.103 137.174 339.309 141.252 339.309C143.755 339.309 145.837 338.1 147.074 336.103L144.993 334.5C143.98 335.878 142.743 336.581 141.28 336.581C138.805 336.581 136.949 334.612 136.949 332.081C136.949 329.578 138.805 327.609 141.28 327.609C142.771 327.609 144.008 328.312 144.993 329.718L147.074 328.087C145.865 326.09 143.812 324.881 141.252 324.881C137.286 324.825 133.855 328.115 133.939 332.081ZM149.036 336.637C150.274 338.241 152.243 339.309 154.605 339.309C156.068 339.309 157.277 338.944 158.261 338.212C159.246 337.453 159.724 336.412 159.724 335.091C159.724 333.15 158.571 332.025 155.955 330.928L154.633 330.393C153.283 329.831 152.805 329.465 152.805 328.762C152.805 327.89 153.536 327.44 154.69 327.44C155.899 327.44 157.052 327.947 157.924 328.847L159.527 327.018C158.318 325.584 156.743 324.881 154.746 324.881C151.933 324.881 149.88 326.4 149.88 328.875C149.88 330.815 151.033 331.884 153.48 332.897L154.886 333.487C156.236 334.05 156.827 334.387 156.827 335.203C156.827 336.216 155.871 336.75 154.605 336.75C153.143 336.75 151.933 336.047 150.724 334.781L149.036 336.637Z" fill="white"/>
<path d="M862.45 339H865.657L857.472 320.128H856.46L848.275 339H851.453L852.775 335.906H861.129L862.45 339ZM860.06 333.347H853.844L856.966 325.668L860.06 333.347ZM867.077 332.081C867.077 336.103 870.312 339.309 874.39 339.309C876.893 339.309 878.975 338.1 880.212 336.103L878.131 334.5C877.118 335.878 875.881 336.581 874.418 336.581C871.943 336.581 870.087 334.612 870.087 332.081C870.087 329.578 871.943 327.609 874.418 327.609C875.909 327.609 877.146 328.312 878.131 329.718L880.212 328.087C879.003 326.09 876.95 324.881 874.39 324.881C870.424 324.825 866.993 328.115 867.077 332.081ZM895.625 333.065C895.766 332.419 895.85 331.8 895.85 331.209C895.85 327.609 893.122 324.881 889.465 324.881C885.556 324.796 882.237 328.143 882.321 332.109C882.321 336.187 885.528 339.309 889.747 339.309C891.856 339.309 893.684 338.578 895.259 337.087L893.853 335.062C892.615 336.159 891.265 336.694 889.831 336.694C887.468 336.694 885.697 335.316 885.331 333.065H895.625ZM885.387 330.759C885.837 328.706 887.412 327.384 889.353 327.384C891.294 327.384 892.869 328.65 892.897 330.759H885.387ZM897.94 336.637C899.178 338.241 901.146 339.309 903.509 339.309C904.972 339.309 906.181 338.944 907.165 338.212C908.15 337.453 908.628 336.412 908.628 335.091C908.628 333.15 907.475 332.025 904.859 330.928L903.537 330.393C902.187 329.831 901.709 329.465 901.709 328.762C901.709 327.89 902.44 327.44 903.593 327.44C904.803 327.44 905.956 327.947 906.828 328.847L908.431 327.018C907.222 325.584 905.647 324.881 903.65 324.881C900.837 324.881 898.784 326.4 898.784 328.875C898.784 330.815 899.937 331.884 902.384 332.897L903.79 333.487C905.14 334.05 905.731 334.387 905.731 335.203C905.731 336.216 904.775 336.75 903.509 336.75C902.046 336.75 900.837 336.047 899.628 334.781L897.94 336.637ZM910.74 336.637C911.977 338.241 913.946 339.309 916.308 339.309C917.771 339.309 918.98 338.944 919.965 338.212C920.949 337.453 921.427 336.412 921.427 335.091C921.427 333.15 920.274 332.025 917.658 330.928L916.337 330.393C914.987 329.831 914.508 329.465 914.508 328.762C914.508 327.89 915.24 327.44 916.393 327.44C917.602 327.44 918.755 327.947 919.627 328.847L921.23 327.018C920.021 325.584 918.446 324.881 916.449 324.881C913.636 324.881 911.583 326.4 911.583 328.875C911.583 330.815 912.736 331.884 915.183 332.897L916.59 333.487C917.94 334.05 918.53 334.387 918.53 335.203C918.53 336.216 917.574 336.75 916.308 336.75C914.846 336.75 913.636 336.047 912.427 334.781L910.74 336.637ZM937.264 333.065C937.405 332.419 937.489 331.8 937.489 331.209C937.489 327.609 934.761 324.881 931.105 324.881C927.195 324.796 923.877 328.143 923.961 332.109C923.961 336.187 927.167 339.309 931.386 339.309C933.496 339.309 935.324 338.578 936.899 337.087L935.493 335.062C934.255 336.159 932.905 336.694 931.471 336.694C929.108 336.694 927.336 335.316 926.97 333.065H937.264ZM927.027 330.759C927.477 328.706 929.052 327.384 930.992 327.384C932.933 327.384 934.508 328.65 934.536 330.759H927.027ZM947.462 336.637C948.7 338.241 950.669 339.309 953.031 339.309C954.494 339.309 955.703 338.944 956.688 338.212C957.672 337.453 958.15 336.412 958.15 335.091C958.15 333.15 956.997 332.025 954.381 330.928L953.06 330.393C951.709 329.831 951.231 329.465 951.231 328.762C951.231 327.89 951.963 327.44 953.116 327.44C954.325 327.44 955.478 327.947 956.35 328.847L957.953 327.018C956.744 325.584 955.169 324.881 953.172 324.881C950.359 324.881 948.306 326.4 948.306 328.875C948.306 330.815 949.459 331.884 951.906 332.897L953.313 333.487C954.663 334.05 955.253 334.387 955.253 335.203C955.253 336.216 954.297 336.75 953.031 336.75C951.569 336.75 950.359 336.047 949.15 334.781L947.462 336.637ZM961.415 333.206C961.415 336.919 964.003 339.309 967.462 339.309C970.837 339.309 973.453 336.919 973.453 333.206V325.19H970.5V333.431C970.5 335.344 969.178 336.581 967.462 336.581C965.662 336.581 964.34 335.344 964.34 333.431V325.19H961.415V333.206ZM988.565 330.647C988.565 326.934 986.315 324.881 982.912 324.881C980.521 324.881 978.468 325.837 977.09 327.834L978.806 329.578C979.959 328.2 981.084 327.525 982.631 327.525C984.515 327.525 985.584 328.565 985.584 330.478V331.378H981.675C978.553 331.378 976.584 332.925 976.584 335.316C976.584 337.706 978.496 339.309 981.393 339.309C983.278 339.309 984.797 338.662 985.809 337.453V339H988.565V330.647ZM985.584 333.769C985.584 335.653 984.009 337.031 982.012 337.031C980.578 337.031 979.593 336.356 979.593 335.203C979.593 334.078 980.465 333.515 982.04 333.515H985.584V333.769ZM991.382 336.637C992.619 338.241 994.588 339.309 996.951 339.309C998.413 339.309 999.623 338.944 1000.61 338.212C1001.59 337.453 1002.07 336.412 1002.07 335.091C1002.07 333.15 1000.92 332.025 998.301 330.928L996.979 330.393C995.629 329.831 995.151 329.465 995.151 328.762C995.151 327.89 995.882 327.44 997.035 327.44C998.244 327.44 999.398 327.947 1000.27 328.847L1001.87 327.018C1000.66 325.584 999.088 324.881 997.091 324.881C994.279 324.881 992.225 326.4 992.225 328.875C992.225 330.815 993.379 331.884 995.826 332.897L997.232 333.487C998.582 334.05 999.173 334.387 999.173 335.203C999.173 336.216 998.216 336.75 996.951 336.75C995.488 336.75 994.279 336.047 993.069 334.781L991.382 336.637ZM1030.18 320.128L1022.39 330.506L1014.6 320.128H1013.55V339H1016.54V327.328L1021.88 334.331H1022.89L1028.21 327.356V339H1031.19V320.128H1030.18ZM1035.52 339H1038.48V325.19H1035.52V339ZM1035.89 323.024H1038.08L1040.87 317.596V317.062H1037.27L1035.89 323.024ZM1053.24 317.906V326.878C1052.2 325.612 1050.54 324.881 1048.63 324.881C1044.8 324.796 1041.79 328.087 1041.88 332.109C1041.88 336.187 1044.74 339.309 1048.63 339.309C1050.68 339.309 1052.45 338.466 1053.46 337.031V339H1056.22V317.906H1053.24ZM1053.29 332.109C1053.29 335.119 1051.3 336.609 1049.13 336.609C1046.68 336.609 1044.88 334.725 1044.88 332.081C1044.88 329.437 1046.77 327.581 1049.13 327.581C1051.27 327.581 1053.29 329.128 1053.29 332.109ZM1060.49 339H1063.44V325.19H1060.49V339ZM1059.96 320.043C1059.96 321.14 1060.86 321.984 1061.98 321.984C1063.08 321.984 1063.98 321.14 1063.98 320.043C1063.98 318.946 1063.08 318.074 1061.98 318.074C1060.86 318.074 1059.96 318.946 1059.96 320.043ZM1078.68 330.647C1078.68 326.934 1076.43 324.881 1073.03 324.881C1070.64 324.881 1068.59 325.837 1067.21 327.834L1068.92 329.578C1070.08 328.2 1071.2 327.525 1072.75 327.525C1074.63 327.525 1075.7 328.565 1075.7 330.478V331.378H1071.79C1068.67 331.378 1066.7 332.925 1066.7 335.316C1066.7 337.706 1068.61 339.309 1071.51 339.309C1073.4 339.309 1074.91 338.662 1075.93 337.453V339H1078.68V330.647ZM1075.7 333.769C1075.7 335.653 1074.13 337.031 1072.13 337.031C1070.7 337.031 1069.71 336.356 1069.71 335.203C1069.71 334.078 1070.58 333.515 1072.16 333.515H1075.7V333.769ZM1081.5 336.637C1082.74 338.241 1084.71 339.309 1087.07 339.309C1088.53 339.309 1089.74 338.944 1090.73 338.212C1091.71 337.453 1092.19 336.412 1092.19 335.091C1092.19 333.15 1091.03 332.025 1088.42 330.928L1087.1 330.393C1085.75 329.831 1085.27 329.465 1085.27 328.762C1085.27 327.89 1086 327.44 1087.15 327.44C1088.36 327.44 1089.52 327.947 1090.39 328.847L1091.99 327.018C1090.78 325.584 1089.21 324.881 1087.21 324.881C1084.4 324.881 1082.34 326.4 1082.34 328.875C1082.34 330.815 1083.5 331.884 1085.94 332.897L1087.35 333.487C1088.7 334.05 1089.29 334.387 1089.29 335.203C1089.29 336.216 1088.33 336.75 1087.07 336.75C1085.61 336.75 1084.4 336.047 1083.19 334.781L1081.5 336.637Z" fill="white"/>
<path d="M129.06 470.437L124.419 482.981L119.075 470.128H118.034L112.718 482.981L108.078 470.437H104.787L112.015 489.309H113.028L118.569 476.146L124.109 489.309H125.094L132.322 470.437H129.06ZM132.891 482.081C132.807 485.991 136.21 489.394 140.176 489.309C144.198 489.394 147.601 485.991 147.517 482.081C147.601 478.172 144.198 474.796 140.176 474.881C136.21 474.825 132.807 478.115 132.891 482.081ZM144.479 482.109C144.479 484.612 142.623 486.581 140.176 486.581C137.757 486.581 135.901 484.669 135.901 482.109C135.901 479.55 137.757 477.581 140.204 477.581C142.595 477.581 144.479 479.55 144.479 482.109ZM158.806 475.19C158.468 475.106 158.103 475.05 157.681 475.05C156.106 475.05 154.643 475.753 153.659 476.99V475.19H150.902V489H153.856V481.631C153.856 479.184 155.571 477.806 157.906 477.806H158.806V475.19ZM161.45 489H164.403V467.906H161.45V489ZM167.975 481.265L173.544 475.19H169.887L164.487 481.237L170.478 489H174.022L167.975 481.265ZM179.906 472.659C179.906 470.887 180.806 470.268 182.606 470.268C182.943 470.268 183.337 470.296 183.787 470.353V467.849C183.253 467.681 182.634 467.596 181.875 467.596C178.837 467.596 176.953 469.171 176.953 472.406V475.19H174.984V477.75H176.953V489H179.906V477.75H183.169V475.19H179.906V472.659ZM185.925 489H188.878V467.906H185.925V489ZM192.302 482.081C192.217 485.991 195.621 489.394 199.586 489.309C203.608 489.394 207.012 485.991 206.927 482.081C207.012 478.172 203.608 474.796 199.586 474.881C195.621 474.825 192.217 478.115 192.302 482.081ZM203.89 482.109C203.89 484.612 202.033 486.581 199.586 486.581C197.168 486.581 195.311 484.669 195.311 482.109C195.311 479.55 197.168 477.581 199.614 477.581C202.005 477.581 203.89 479.55 203.89 482.109ZM227.961 475.19L224.389 484.106L220.142 474.881H219.129L214.939 484.219L211.31 475.19H208.16L214.292 489.309H215.304L219.636 480.112L223.967 489.309H224.98L231.111 475.19H227.961Z" fill="white"/>
<path d="M848.872 489H852.079L843.894 470.128H842.882L834.697 489H837.875L839.197 485.906H847.55L848.872 489ZM846.482 483.347H840.266L843.388 475.668L846.482 483.347ZM853.544 486.637C854.782 488.241 856.751 489.309 859.113 489.309C860.576 489.309 861.785 488.944 862.77 488.212C863.754 487.453 864.232 486.412 864.232 485.091C864.232 483.15 863.079 482.025 860.463 480.928L859.141 480.393C857.791 479.831 857.313 479.465 857.313 478.762C857.313 477.89 858.044 477.44 859.198 477.44C860.407 477.44 861.56 477.947 862.432 478.847L864.035 477.018C862.826 475.584 861.251 474.881 859.254 474.881C856.441 474.881 854.388 476.4 854.388 478.875C854.388 480.815 855.541 481.884 857.988 482.897L859.394 483.487C860.745 484.05 861.335 484.387 861.335 485.203C861.335 486.216 860.379 486.75 859.113 486.75C857.651 486.75 856.441 486.047 855.232 484.781L853.544 486.637ZM866.344 486.637C867.581 488.241 869.55 489.309 871.913 489.309C873.375 489.309 874.585 488.944 875.569 488.212C876.553 487.453 877.032 486.412 877.032 485.091C877.032 483.15 875.878 482.025 873.263 480.928L871.941 480.393C870.591 479.831 870.113 479.465 870.113 478.762C870.113 477.89 870.844 477.44 871.997 477.44C873.207 477.44 874.36 477.947 875.232 478.847L876.835 477.018C875.625 475.584 874.05 474.881 872.053 474.881C869.241 474.881 867.188 476.4 867.188 478.875C867.188 480.815 868.341 481.884 870.788 482.897L872.194 483.487C873.544 484.05 874.135 484.387 874.135 485.203C874.135 486.216 873.178 486.75 871.913 486.75C870.45 486.75 869.241 486.047 868.031 484.781L866.344 486.637ZM880.437 489H883.39V475.19H880.437V489ZM879.903 470.043C879.903 471.14 880.803 471.984 881.928 471.984C883.025 471.984 883.925 471.14 883.925 470.043C883.925 468.946 883.025 468.074 881.928 468.074C880.803 468.074 879.903 468.946 879.903 470.043ZM899.727 480.365C899.727 477.075 897.786 474.881 894.552 474.881C892.836 474.881 891.458 475.443 890.417 476.54V475.19H887.661V489H890.614V480.759C890.614 478.875 891.936 477.553 893.764 477.553C895.564 477.553 896.774 478.847 896.774 480.759V489H899.727V480.365ZM914.808 480.647C914.808 476.934 912.558 474.881 909.154 474.881C906.764 474.881 904.711 475.837 903.332 477.834L905.048 479.578C906.201 478.2 907.326 477.525 908.873 477.525C910.758 477.525 911.826 478.565 911.826 480.478V481.378H907.917C904.795 481.378 902.826 482.925 902.826 485.316C902.826 487.706 904.739 489.309 907.636 489.309C909.52 489.309 911.039 488.662 912.051 487.453V489H914.808V480.647ZM911.826 483.769C911.826 485.653 910.251 487.031 908.254 487.031C906.82 487.031 905.836 486.356 905.836 485.203C905.836 484.078 906.708 483.515 908.283 483.515H911.826V483.769ZM927.131 486.497C926.315 486.581 925.724 486.637 925.302 486.637C923.502 486.637 922.574 486.019 922.574 484.247V477.75H926.681V475.19H922.574V471.562H919.593V475.19H917.343V477.75H919.593V484.5C919.593 487.734 921.505 489.309 924.684 489.309C925.387 489.309 926.202 489.197 927.131 489V486.497ZM929.984 483.206C929.984 486.919 932.571 489.309 936.031 489.309C939.406 489.309 942.022 486.919 942.022 483.206V475.19H939.068V483.431C939.068 485.344 937.746 486.581 936.031 486.581C934.231 486.581 932.909 485.344 932.909 483.431V475.19H929.984V483.206ZM954.068 475.19C953.731 475.106 953.365 475.05 952.943 475.05C951.368 475.05 949.906 475.753 948.921 476.99V475.19H946.165V489H949.118V481.631C949.118 479.184 950.834 477.806 953.168 477.806H954.068V475.19ZM967.406 480.647C967.406 476.934 965.156 474.881 961.753 474.881C959.362 474.881 957.309 475.837 955.931 477.834L957.647 479.578C958.8 478.2 959.925 477.525 961.472 477.525C963.356 477.525 964.425 478.565 964.425 480.478V481.378H960.516C957.394 481.378 955.425 482.925 955.425 485.316C955.425 487.706 957.337 489.309 960.234 489.309C962.119 489.309 963.638 488.662 964.65 487.453V489H967.406V480.647ZM964.425 483.769C964.425 485.653 962.85 487.031 960.853 487.031C959.419 487.031 958.434 486.356 958.434 485.203C958.434 484.078 959.306 483.515 960.881 483.515H964.425V483.769ZM979.596 489H985.418C991.466 489 995.516 485.091 995.516 479.69C995.516 474.206 991.494 470.437 985.418 470.437H979.596V489ZM982.578 486.328V473.137H985.39C989.722 473.137 992.45 475.753 992.45 479.69C992.45 483.572 989.694 486.328 985.39 486.328H982.578ZM998.873 489H1001.83V475.19H998.873V489ZM998.339 470.043C998.339 471.14 999.239 471.984 1000.36 471.984C1001.46 471.984 1002.36 471.14 1002.36 470.043C1002.36 468.946 1001.46 468.074 1000.36 468.074C999.239 468.074 998.339 468.946 998.339 470.043ZM1016.93 475.19V477.159C1015.91 475.725 1014.14 474.881 1012.03 474.881C1008.21 474.881 1005.31 477.778 1005.31 481.8C1005.31 485.822 1008.18 488.719 1012.03 488.719C1013.94 488.719 1015.66 488.016 1016.7 486.75V487.734C1016.7 490.322 1015.07 491.672 1012.57 491.672C1010.68 491.672 1009.28 490.941 1007.73 489.703L1006.1 491.756C1007.76 493.303 1010.01 494.372 1012.73 494.372C1016.93 494.372 1019.65 491.925 1019.65 487.566V475.19H1016.93ZM1016.73 481.772C1016.73 483.178 1016.31 484.247 1015.49 485.006C1014.68 485.766 1013.72 486.131 1012.57 486.131C1011.36 486.131 1010.37 485.737 1009.56 484.95C1008.74 484.134 1008.35 483.094 1008.35 481.8C1008.35 480.534 1008.74 479.493 1009.56 478.706C1010.37 477.918 1011.36 477.525 1012.57 477.525C1014.84 477.525 1016.73 478.959 1016.73 481.772ZM1023.92 489H1026.88V475.19H1023.92V489ZM1023.39 470.043C1023.39 471.14 1024.29 471.984 1025.41 471.984C1026.51 471.984 1027.41 471.14 1027.41 470.043C1027.41 468.946 1026.51 468.074 1025.41 468.074C1024.29 468.074 1023.39 468.946 1023.39 470.043ZM1039.36 486.497C1038.54 486.581 1037.95 486.637 1037.53 486.637C1035.73 486.637 1034.8 486.019 1034.8 484.247V477.75H1038.91V475.19H1034.8V471.562H1031.82V475.19H1029.57V477.75H1031.82V484.5C1031.82 487.734 1033.73 489.309 1036.91 489.309C1037.62 489.309 1038.43 489.197 1039.36 489V486.497ZM1053.32 480.647C1053.32 476.934 1051.07 474.881 1047.67 474.881C1045.28 474.881 1043.23 475.837 1041.85 477.834L1043.56 479.578C1044.72 478.2 1045.84 477.525 1047.39 477.525C1049.27 477.525 1050.34 478.565 1050.34 480.478V481.378H1046.43C1043.31 481.378 1041.34 482.925 1041.34 485.316C1041.34 487.706 1043.25 489.309 1046.15 489.309C1048.03 489.309 1049.55 488.662 1050.57 487.453V489H1053.32V480.647ZM1050.34 483.769C1050.34 485.653 1048.77 487.031 1046.77 487.031C1045.33 487.031 1044.35 486.356 1044.35 485.203C1044.35 484.078 1045.22 483.515 1046.8 483.515H1050.34V483.769ZM1057.43 489H1060.39V467.906H1057.43V489Z" fill="white"/>
<path d="M544.703 362.406C599.215 362.406 643.406 318.215 643.406 263.703C643.406 209.191 599.215 165 544.703 165C490.191 165 446 209.191 446 263.703C446 318.215 490.191 362.406 544.703 362.406Z" fill="url(#paint0_linear_1077_66)"/>
<path d="M554.709 229.222H563.256L534.754 297.688H526L554.709 229.222Z" fill="white"/>
<path d="M541.84 229.222H550.826L519.967 303.901H561.533L560.109 311.612H508L541.84 229.222Z" fill="white"/>
<path d="M526.668 223.984L528.789 217H580.928L547.31 298.278H538.576L569.643 223.984H526.668Z" fill="white"/>
<path fill-rule="evenodd" clip-rule="evenodd" d="M747.061 207.209C744.391 216.335 735.959 223.001 725.971 223.001C713.837 223.001 704 213.164 704 201.03C704 190.064 712.034 180.974 722.537 179.326V207.209H747.061Z" fill="url(#paint1_linear_1077_66)"/>
<path opacity="0.5" fill-rule="evenodd" clip-rule="evenodd" d="M728.029 201.717H749.83C749.942 200.818 750 199.901 750 198.971C750 186.837 740.163 177 728.029 177V201.717Z" fill="url(#paint2_linear_1077_66)"/>
<path fill-rule="evenodd" clip-rule="evenodd" d="M348.05 186.8H384.45C386.963 186.8 389 188.837 389 191.35V218.65C389 221.163 386.963 223.2 384.45 223.2H348.05C345.537 223.2 343.5 221.163 343.5 218.65V191.35C343.5 188.837 345.537 186.8 348.05 186.8Z" fill="url(#paint3_linear_1077_66)"/>
<path fill-rule="evenodd" clip-rule="evenodd" d="M381.037 202.725H351.462C349.578 202.725 348.05 204.253 348.05 206.138V207.275H358.482C359.086 207.275 359.664 207.515 360.091 207.941L362.366 210.216C363.396 211.246 364.793 211.825 366.25 211.825C367.706 211.825 369.103 211.246 370.133 210.216L372.408 207.941C372.835 207.515 373.414 207.275 374.017 207.275H384.45V206.138C384.45 204.253 382.922 202.725 381.037 202.725Z" fill="#005786"/>
<path fill-rule="evenodd" clip-rule="evenodd" d="M351.462 191.35C349.578 191.35 348.05 192.878 348.05 194.763V195.9H384.45V194.763C384.45 192.878 382.922 191.35 381.037 191.35H351.462Z" fill="#005786"/>
<path d="M352.555 345.445H386.722C387.98 345.445 389 346.464 389 347.722C389 348.98 387.98 350 386.722 350H350.278C349.02 350 348 348.98 348 347.722V311.278C348 310.02 349.02 309 350.278 309C351.536 309 352.555 310.02 352.555 311.278V345.445Z" fill="url(#paint4_linear_1077_66)"/>
<path opacity="0.5" d="M361.05 335.613C360.189 336.531 358.748 336.577 357.83 335.717C356.913 334.856 356.866 333.415 357.726 332.497L366.268 323.386C367.1 322.499 368.483 322.422 369.408 323.211L376.15 328.964L384.934 317.838C385.713 316.851 387.145 316.682 388.133 317.462C389.12 318.241 389.289 319.674 388.509 320.661L378.259 333.644C377.459 334.658 375.976 334.804 374.993 333.966L368.105 328.088L361.05 335.613Z" fill="url(#paint5_linear_1077_66)"/>
<path d="M610.328 62C616.399 62 622.47 62 628.541 62C628.541 65.6707 628.54 69.3426 628.541 73.0133C628.543 75.2476 629.98 76.6853 632.213 76.6866C635.884 76.6879 639.556 76.6866 643.226 76.6866C643.415 76.6866 643.603 76.6866 643.816 76.6866C643.816 76.8527 643.816 76.9482 643.816 77.045C643.816 86.9333 643.826 96.8216 643.811 106.709C643.807 109.815 641.421 112.13 638.267 112.131C629.244 112.136 620.221 112.135 611.198 112.127C610.729 112.127 610.248 112.086 609.793 111.979C607.267 111.379 605.63 109.252 605.629 106.583C605.626 97.2677 605.628 87.9497 605.628 78.6331C605.628 74.9127 605.622 71.1924 605.63 67.472C605.636 65.5791 606.389 64.025 607.968 62.985C608.668 62.5246 609.536 62.3205 610.328 62ZM624.398 84.5211C627.937 84.5211 631.475 84.5172 635.014 84.525C635.719 84.5263 636.261 84.2725 636.547 83.6145C636.988 82.6047 636.233 81.5856 635.049 81.5843C628.282 81.5817 621.515 81.583 614.748 81.583C614.373 81.583 613.997 81.5686 613.623 81.5882C612.996 81.6196 612.54 81.931 612.301 82.5118C611.888 83.5099 612.63 84.5172 613.783 84.5185C617.321 84.525 620.86 84.5211 624.398 84.5211ZM624.38 92.3556C624.625 92.3556 624.869 92.3556 625.114 92.3556C628.423 92.3556 631.734 92.353 635.044 92.3582C635.731 92.3595 636.255 92.0979 636.541 91.4661C636.993 90.4614 636.244 89.4201 635.068 89.4188C629.507 89.4149 623.947 89.4175 618.386 89.4175C616.837 89.4175 615.288 89.4175 613.738 89.4175C613.112 89.4175 612.633 89.6778 612.348 90.2403C611.839 91.2489 612.573 92.3491 613.762 92.3517C617.303 92.3595 620.841 92.3556 624.38 92.3556ZM617.183 100.189C618.342 100.189 619.499 100.194 620.658 100.187C621.57 100.182 622.233 99.574 622.25 98.742C622.267 97.9008 621.584 97.2546 620.654 97.2533C618.37 97.2481 616.085 97.2494 613.801 97.2533C612.854 97.2546 612.189 97.8681 612.191 98.7224C612.192 99.5779 612.855 100.185 613.805 100.189C614.931 100.193 616.056 100.189 617.183 100.189Z" fill="url(#paint6_linear_1077_66)"/>
<path d="M631.605 62.6357C631.986 62.9314 632.394 63.1996 632.743 63.5279C635.844 66.4451 638.937 69.3688 642.019 72.3056C642.437 72.7033 642.78 73.1794 643.237 73.7131C642.954 73.7315 642.817 73.7485 642.681 73.7485C639.207 73.7498 635.733 73.7498 632.258 73.7498C631.609 73.7498 631.482 73.6255 631.481 72.9845C631.48 69.6893 631.481 66.3954 631.481 63.1001C631.481 62.9732 631.481 62.845 631.481 62.7182C631.523 62.6907 631.563 62.6632 631.605 62.6357Z" fill="url(#paint7_linear_1077_66)"/>
<path d="M641.908 462C632.976 462 624.045 462 615.114 462C614.983 461.961 614.852 461.916 614.72 461.88C612.846 461.383 611.654 460.199 611.147 458.328C611.097 458.147 611.049 457.963 611 457.782C611 442.594 611 427.407 611 412.22C611.025 412.175 611.066 412.134 611.076 412.086C611.63 409.434 613.385 408.001 616.092 408.001C624.388 408 632.685 407.999 640.982 408.003C643.899 408.004 645.923 410.02 645.929 412.937C645.937 417.172 645.937 421.408 645.918 425.643C645.916 425.902 645.784 426.224 645.602 426.411C644.417 427.635 643.203 428.834 641.995 430.036C639.663 432.357 637.675 434.941 636.14 437.852C635.67 438.741 635.259 439.696 635.041 440.67C634.884 441.366 635.094 442.142 635.142 442.91C634.376 442.91 633.55 442.928 632.726 442.897C632.51 442.889 632.251 442.78 632.095 442.631C631.282 441.855 630.504 441.04 629.697 440.257C628.992 439.572 628.104 439.576 627.389 440.239C627.269 440.348 627.145 440.454 626.942 440.63C626.942 439.762 626.936 439.011 626.943 438.26C626.951 437.535 626.642 436.997 625.976 436.712C625.303 436.425 624.702 436.598 624.193 437.106C622.116 439.18 620.037 441.252 617.969 443.335C617.294 444.016 617.288 444.964 617.916 445.601C618.555 446.248 619.52 446.234 620.221 445.545C621.199 444.584 622.166 443.612 623.131 442.638C623.311 442.456 623.468 442.251 623.634 442.056C623.682 442.083 623.73 442.111 623.778 442.138C623.778 442.832 623.789 443.526 623.775 444.22C623.759 444.99 624.013 445.604 624.741 445.941C625.402 446.245 626.032 446.067 626.681 445.418C627.289 444.812 627.89 444.201 628.541 443.545C629.21 444.225 629.84 444.857 630.462 445.498C630.85 445.898 631.313 446.083 631.876 446.082C634.407 446.072 636.94 446.124 639.469 446.051C640.287 446.027 641.154 445.812 641.898 445.467C643.088 444.918 644.194 444.187 645.336 443.53C645.51 443.43 645.678 443.317 645.889 443.185C645.91 443.327 645.927 443.393 645.927 443.458C645.926 448.15 645.951 452.843 645.903 457.535C645.887 459.155 645.064 460.425 643.683 461.266C643.143 461.594 642.502 461.761 641.908 462ZM625.358 427.09C627.413 427.09 629.467 427.093 631.521 427.089C632.562 427.087 633.258 426.46 633.27 425.53C633.281 424.574 632.581 423.928 631.514 423.927C627.424 423.924 623.332 423.924 619.242 423.927C618.188 423.927 617.45 424.586 617.453 425.511C617.456 426.436 618.191 427.087 619.249 427.089C621.285 427.093 623.323 427.09 625.358 427.09ZM625.375 430.255C623.321 430.255 621.267 430.252 619.213 430.256C618.193 430.257 617.467 430.906 617.453 431.816C617.437 432.74 618.179 433.416 619.225 433.418C623.315 433.421 627.407 433.421 631.497 433.418C632.572 433.418 633.272 432.785 633.27 431.83C633.267 430.88 632.565 430.256 631.486 430.255C629.449 430.253 627.413 430.255 625.375 430.255ZM628.537 417.494C629.537 417.494 630.536 417.498 631.537 417.492C632.568 417.488 633.264 416.851 633.268 415.92C633.272 414.984 632.578 414.333 631.553 414.33C629.536 414.325 627.518 414.325 625.501 414.33C624.499 414.333 623.768 415.022 623.78 415.928C623.793 416.82 624.509 417.484 625.482 417.491C626.502 417.499 627.52 417.492 628.537 417.494ZM628.521 452.508C627.521 452.508 626.522 452.504 625.522 452.509C624.513 452.515 623.783 453.181 623.783 454.089C623.783 454.996 624.512 455.668 625.519 455.671C627.537 455.677 629.554 455.677 631.572 455.671C632.589 455.668 633.282 455.003 633.27 454.065C633.258 453.155 632.568 452.516 631.573 452.509C630.556 452.504 629.539 452.508 628.521 452.508Z" fill="url(#paint8_linear_1077_66)"/>
<path opacity="0.5" d="M665 418.834C664.965 420.057 664.639 420.829 663.999 421.467C663.278 422.187 662.559 422.91 661.838 423.63C657.186 428.271 652.552 432.93 647.873 437.546C645.719 439.671 643.213 441.324 640.501 442.661C639.774 443.02 639.063 442.92 638.56 442.407C638.048 441.886 637.965 441.207 638.333 440.461C639.815 437.459 641.737 434.773 644.107 432.405C649.228 427.287 654.344 422.166 659.467 417.051C660.959 415.562 663.313 415.704 664.408 417.382C664.742 417.894 664.881 418.531 665 418.834Z" fill="url(#paint9_linear_1077_66)"/>
<g clip-path="url(#clip0_1077_66)">
<path d="M468.135 405.89C468.904 406.248 469.178 406.844 469.171 407.69C469.142 411.179 469.16 414.669 469.158 418.158C469.157 419.438 468.678 419.919 467.412 419.921C464.947 419.922 462.481 419.921 460.015 419.921C459.817 419.921 459.621 419.921 459.389 419.921C459.389 422.731 459.389 425.498 459.389 428.347C459.583 428.347 459.776 428.347 459.97 428.347C461.23 428.347 462.492 428.388 463.75 428.338C466.165 428.242 466.457 428.747 466.371 430.995C466.353 431.484 466.368 431.976 466.368 432.538C466.621 432.538 466.832 432.538 467.044 432.538C470.88 432.538 474.714 432.538 478.55 432.538C479.904 432.538 480.393 433.03 480.395 434.388C480.396 436.084 480.395 437.78 480.395 439.553C480.698 439.553 480.964 439.553 481.23 439.553C482.308 439.553 483.386 439.543 484.462 439.557C485.429 439.571 485.991 440.136 485.993 441.102C486 443.805 486 446.509 485.993 449.212C485.991 450.218 485.452 450.763 484.437 450.788C483.744 450.805 483.05 450.792 482.355 450.792C479.488 450.792 476.621 450.793 473.754 450.79C472.462 450.789 471.971 450.291 471.97 448.997C471.968 446.458 471.97 443.919 471.97 441.38C471.97 440.03 472.456 439.552 473.826 439.552C475.048 439.552 476.269 439.552 477.531 439.552C477.531 438.161 477.531 436.801 477.531 435.4C473.842 435.4 470.146 435.4 466.367 435.4C466.367 436.167 466.367 436.945 466.367 437.722C466.366 439.084 465.894 439.551 464.518 439.551C462.824 439.551 461.128 439.551 459.394 439.551C459.394 443.306 459.394 447.019 459.394 450.79C459.616 450.79 459.812 450.79 460.009 450.79C461.617 450.79 463.225 450.781 464.831 450.795C465.811 450.805 466.36 451.352 466.363 452.331C466.374 455.034 466.374 457.738 466.363 460.441C466.359 461.445 465.794 462.003 464.795 462.003C460.23 462.009 455.664 462.007 451.098 462.003C450.1 462.002 449.526 461.442 449.524 460.446C449.515 457.742 449.515 455.038 449.524 452.336C449.528 451.357 450.076 450.803 451.052 450.795C452.66 450.781 454.266 450.792 455.873 450.79C456.07 450.79 456.267 450.79 456.498 450.79C456.498 447.034 456.498 443.334 456.498 439.551C456.307 439.551 456.115 439.551 455.921 439.551C454.35 439.551 452.78 439.553 451.209 439.549C450.035 439.547 449.522 439.026 449.52 437.835C449.517 437.034 449.52 436.233 449.52 435.395C445.784 435.395 442.087 435.395 438.353 435.395C438.353 436.755 438.353 438.115 438.353 439.549C438.547 439.549 438.74 439.549 438.933 439.549C440.083 439.549 441.234 439.539 442.385 439.553C443.332 439.565 443.909 440.124 443.913 441.045C443.924 443.803 443.924 446.562 443.912 449.32C443.908 450.151 443.398 450.683 442.575 450.773C442.411 450.79 442.246 450.788 442.082 450.788C438.63 450.789 435.179 450.774 431.726 450.798C430.87 450.803 430.236 450.543 429.89 449.73C429.89 446.698 429.89 443.664 429.89 440.633C430.218 439.804 430.845 439.509 431.709 439.543C432.603 439.578 433.499 439.551 434.393 439.551C434.75 439.551 435.106 439.551 435.492 439.551C435.492 437.752 435.491 436.037 435.492 434.321C435.494 433.044 436.003 432.536 437.289 432.536C441.142 432.534 444.995 432.536 448.848 432.536C449.059 432.536 449.269 432.536 449.517 432.536C449.517 431.638 449.513 430.819 449.518 430.001C449.525 428.885 450.052 428.348 451.155 428.346C452.744 428.34 454.332 428.344 455.921 428.344C456.113 428.344 456.307 428.344 456.495 428.344C456.495 425.493 456.495 422.726 456.495 419.918C456.263 419.918 456.064 419.918 455.867 419.918C453.42 419.918 450.973 419.918 448.526 419.918C447.193 419.918 446.729 419.45 446.728 418.098C446.726 414.646 446.745 411.194 446.715 407.743C446.707 406.885 446.953 406.255 447.75 405.889C454.547 405.89 461.342 405.89 468.135 405.89Z" fill="url(#paint10_linear_1077_66)"/>
</g>
<g clip-path="url(#clip1_1077_66)">
<path d="M721.131 298C722.049 298 722.968 298 723.885 298C724.672 298.099 725.463 298.17 726.244 298.3C731.154 299.12 735.433 301.232 738.954 304.749C744.236 310.025 746.561 316.438 745.885 323.864C745.432 328.848 743.48 333.254 740.146 336.998C735.718 341.969 730.145 344.647 723.495 344.971C718.858 345.197 714.498 344.117 710.529 341.697C704.429 337.976 700.684 332.586 699.366 325.546C699.201 324.665 699.12 323.768 699 322.879C699 321.961 699 321.042 699 320.125C699.038 319.795 699.076 319.465 699.113 319.134C699.675 314.077 701.607 309.616 705.017 305.833C708.637 301.817 713.122 299.31 718.459 298.366C719.343 298.209 720.241 298.12 721.131 298ZM716.631 321.492C716.631 324.338 716.635 327.182 716.628 330.028C716.627 330.498 716.697 330.919 717.15 331.165C717.604 331.412 717.997 331.233 718.389 330.981C722.798 328.143 727.212 325.31 731.622 322.475C732.538 321.886 732.545 321.123 731.636 320.539C727.213 317.693 722.787 314.853 718.365 312.006C717.968 311.751 717.572 311.595 717.125 311.852C716.697 312.098 716.627 312.504 716.628 312.957C716.635 315.802 716.631 318.647 716.631 321.492Z" fill="url(#paint11_linear_1077_66)"/>
</g>
<g clip-path="url(#clip2_1077_66)">
<path d="M430.33 108.674C430.33 98.8864 430.33 89.0985 430.33 79.312C430.362 79.2005 430.408 79.0917 430.424 78.9788C431.047 74.5631 434.903 71.1026 439.382 71.0891C450.632 71.0529 461.882 71.0717 473.132 71.0824C474.959 71.0838 476.655 71.605 478.145 72.6676C480.62 74.4342 482.005 76.7837 482 79.8923C481.986 89.343 481.998 98.7938 481.988 108.246C481.988 108.711 481.932 109.185 481.828 109.638C480.832 113.943 477.127 116.893 472.685 116.911C469.322 116.924 465.96 116.913 462.596 116.913C454.978 116.913 447.362 116.92 439.744 116.911C435.327 116.905 431.632 114.043 430.589 109.846C430.492 109.456 430.415 109.064 430.33 108.674ZM456.262 111.904C461.727 111.904 467.191 111.905 472.656 111.901C473.007 111.901 473.367 111.905 473.71 111.839C475.547 111.483 476.731 109.912 476.732 107.819C476.736 98.7038 476.738 89.5889 476.732 80.474C476.731 78.0626 474.985 76.3297 472.557 76.3297C461.611 76.3257 450.666 76.3257 439.719 76.3297C437.278 76.331 435.559 78.0425 435.558 80.4713C435.554 89.5687 435.555 98.6675 435.559 107.765C435.559 108.098 435.571 108.439 435.643 108.762C436.065 110.646 437.666 111.898 439.666 111.901C445.198 111.908 450.729 111.904 456.262 111.904Z" fill="url(#paint12_linear_1077_66)"/>
<path d="M455.955 107.474C451.887 107.474 447.817 107.479 443.748 107.471C442.232 107.469 441.203 106.628 440.968 105.227C440.847 104.501 441.016 103.823 441.404 103.21C443.306 100.21 445.209 97.2106 447.132 94.2216C447.763 93.2409 448.692 92.7774 449.87 92.8553C450.545 92.8997 451.084 93.2113 451.502 93.7366C451.909 94.2484 452.321 94.7576 452.721 95.2748C453.876 96.7673 455.971 96.7525 457.058 95.2116C458.178 93.6224 459.252 92.0009 460.355 90.3996C461.095 89.3249 462.364 88.8843 463.589 89.2631C464.417 89.5197 464.941 90.0799 465.278 90.8671C466.947 94.7764 468.634 98.6789 470.303 102.588C470.538 103.139 470.803 103.7 470.904 104.282C471.203 106.011 469.921 107.471 468.162 107.474C464.093 107.477 460.023 107.474 455.955 107.474Z" fill="url(#paint13_linear_1077_66)"/>
<path d="M464.435 83.8174C464.444 81.7486 466.255 79.9955 468.375 79.9995C470.431 80.0049 472.28 81.8467 472.286 83.894C472.291 85.9467 470.394 87.8288 468.336 87.81C466.21 87.7925 464.424 85.9641 464.435 83.8174Z" fill="url(#paint14_linear_1077_66)"/>
</g>
<defs>
<linearGradient id="paint0_linear_1077_66" x1="643.406" y1="165" x2="416" y2="209.665" gradientUnits="userSpaceOnUse">
<stop stop-color="#02AAC3"/>
<stop offset="1" stop-color="#0054C9"/>
</linearGradient>
<linearGradient id="paint1_linear_1077_66" x1="764.409" y1="251.662" x2="669.978" y2="245.48" gradientUnits="userSpaceOnUse">
<stop stop-color="#00B395"/>
<stop offset="1" stop-color="#D4FF00"/>
</linearGradient>
<linearGradient id="paint2_linear_1077_66" x1="758.852" y1="217.938" x2="710.631" y2="215.092" gradientUnits="userSpaceOnUse">
<stop stop-color="#00B395"/>
<stop offset="1" stop-color="#D4FF00"/>
</linearGradient>
<linearGradient id="paint3_linear_1077_66" x1="407.331" y1="247.087" x2="307.808" y2="238.827" gradientUnits="userSpaceOnUse">
<stop stop-color="#00B395"/>
<stop offset="1" stop-color="#D4FF00"/>
</linearGradient>
<linearGradient id="paint4_linear_1077_66" x1="331.482" y1="376.906" x2="421.383" y2="370.936" gradientUnits="userSpaceOnUse">
<stop stop-color="#00B395"/>
<stop offset="1" stop-color="#D4FF00"/>
</linearGradient>
<linearGradient id="paint5_linear_1077_66" x1="344.263" y1="349.039" x2="413.664" y2="341.448" gradientUnits="userSpaceOnUse">
<stop stop-color="#00B395"/>
<stop offset="1" stop-color="#D4FF00"/>
</linearGradient>
<linearGradient id="paint6_linear_1077_66" x1="659.207" y1="145.035" x2="575.305" y2="140.79" gradientUnits="userSpaceOnUse">
<stop stop-color="#00B395"/>
<stop offset="1" stop-color="#D4FF00"/>
</linearGradient>
<linearGradient id="paint7_linear_1077_66" x1="647.974" y1="81.0434" x2="622.208" y2="79.2334" gradientUnits="userSpaceOnUse">
<stop stop-color="#00B395"/>
<stop offset="1" stop-color="#D4FF00"/>
</linearGradient>
<linearGradient id="paint8_linear_1077_66" x1="660.008" y1="497.438" x2="583.212" y2="494.139" gradientUnits="userSpaceOnUse">
<stop stop-color="#00B395"/>
<stop offset="1" stop-color="#D4FF00"/>
</linearGradient>
<linearGradient id="paint9_linear_1077_66" x1="675.834" y1="460.496" x2="616.866" y2="456.574" gradientUnits="userSpaceOnUse">
<stop stop-color="#00B395"/>
<stop offset="1" stop-color="#D4FF00"/>
</linearGradient>
<linearGradient id="paint10_linear_1077_66" x1="508.603" y1="498.834" x2="385.573" y2="490.666" gradientUnits="userSpaceOnUse">
<stop stop-color="#00B395"/>
<stop offset="1" stop-color="#D4FF00"/>
</linearGradient>
<linearGradient id="paint11_linear_1077_66" x1="764.934" y1="375.845" x2="661.878" y2="369.001" gradientUnits="userSpaceOnUse">
<stop stop-color="#00B395"/>
<stop offset="1" stop-color="#D4FF00"/>
</linearGradient>
<linearGradient id="paint12_linear_1077_66" x1="502.817" y1="147.006" x2="389.653" y2="138.538" gradientUnits="userSpaceOnUse">
<stop stop-color="#00B395"/>
<stop offset="1" stop-color="#D4FF00"/>
</linearGradient>
<linearGradient id="paint13_linear_1077_66" x1="483.041" y1="119.516" x2="417.702" y2="112.417" gradientUnits="userSpaceOnUse">
<stop stop-color="#00B395"/>
<stop offset="1" stop-color="#D4FF00"/>
</linearGradient>
<linearGradient id="paint14_linear_1077_66" x1="475.449" y1="92.9358" x2="458.234" y2="91.7867" gradientUnits="userSpaceOnUse">
<stop stop-color="#00B395"/>
<stop offset="1" stop-color="#D4FF00"/>
</linearGradient>
<clipPath id="clip0_1077_66">
<rect width="56.1089" height="56.1181" fill="white" transform="translate(429.891 405.891)"/>
</clipPath>
<clipPath id="clip1_1077_66">
<rect width="47" height="47" fill="white" transform="translate(699 298)"/>
</clipPath>
<clipPath id="clip2_1077_66">
<rect width="51.6704" height="45.8484" fill="white" transform="translate(430.33 71.0674)"/>
</clipPath>
</defs>
</svg>
