<svg width="170" height="31" viewBox="0 0 170 31" fill="none" xmlns="http://www.w3.org/2000/svg">
<path d="M5.07401 23.3525C5.27879 24.0482 6.30161 25.7671 9.98334 25.7671C12.7658 25.7671 14.4842 25.1125 14.1981 23.5985C13.9934 22.5754 12.3573 21.962 9.45242 21.5523C7.202 21.225 0.287127 20.2832 0.737861 14.3494C1.0239 10.4619 4.58319 7.96484 9.73955 7.96484C14.8948 8.04721 18.4541 10.9117 18.5776 15.2089H13.5036C13.5036 13.244 11.1308 12.753 9.57594 12.753C8.18473 12.753 5.89314 13.0803 5.85305 14.5944C5.81187 16.1084 7.28543 16.3133 10.2315 16.7641C14.5687 17.4187 19.5192 18.729 19.3968 23.967C19.3144 27.2411 16.2871 30.5965 9.86307 30.5965C4.91041 30.4328 0.0411729 28.1406 0 23.3525H5.07401Z" fill="white"/>
<path d="M34.4456 8.00488C41.4017 8.00488 45.7378 12.3433 45.7378 19.3001C45.7378 26.2569 41.4017 30.5964 34.4456 30.5964C27.4907 30.5964 23.1523 26.258 23.1523 19.3001C23.1523 12.3422 27.4907 8.00488 34.4456 8.00488ZM28.3087 19.3001C28.3087 23.5973 30.3132 25.6847 34.4456 25.6847C38.5781 25.6847 40.5836 23.5973 40.5836 19.3001C40.5836 15.0029 38.5792 12.9155 34.4456 12.9155C30.3132 12.9155 28.3087 15.0029 28.3087 19.3001Z" fill="white"/>
<path d="M54.5642 23.3525C54.769 24.0482 55.7918 25.7671 59.4736 25.7671C62.256 25.7671 63.9744 25.1125 63.6884 23.5985C63.4836 22.5754 61.8475 21.962 58.9416 21.5523C56.6912 21.225 49.7763 20.2832 50.227 14.3494C50.5131 10.4619 54.0723 7.96484 59.2287 7.96484C64.384 8.04721 67.9433 10.9117 68.0668 15.2089H62.9928C62.9928 13.244 60.6199 12.753 59.0651 12.753C57.6739 12.753 55.3823 13.0803 55.3411 14.5944C55.2999 16.1084 56.7735 16.3133 59.7195 16.7641C64.0568 17.4187 69.0073 18.729 68.8848 23.967C68.8025 27.2411 65.7752 30.5965 59.3511 30.5965C54.4006 30.4328 49.5314 28.1406 49.4902 23.3525H54.5642Z" fill="white"/>
<path d="M83.7311 8.00508C86.0227 8.00508 88.0683 8.49604 89.7456 9.43785V0.106445H94.9008V30.433H90.5224L90.2364 28.8777C88.4367 30.0233 86.2264 30.5966 83.7311 30.5966C76.8985 30.5966 72.6426 26.2582 72.6426 19.3003C72.6426 12.3424 76.8975 8.00508 83.7311 8.00508ZM83.9359 25.5212C87.986 25.5212 89.9503 23.4751 89.9503 19.3003C89.9503 15.0855 87.986 13.0794 83.9359 13.0794C79.8857 13.0794 77.9214 15.0855 77.9214 19.3003C77.9214 23.4751 79.8847 25.5212 83.9359 25.5212Z" fill="white"/>
<path d="M109.951 8.00488C116.908 8.00488 121.244 12.3433 121.244 19.3001C121.244 26.2569 116.906 30.5964 109.951 30.5964C102.997 30.5964 98.6582 26.258 98.6582 19.3001C98.6582 12.3422 102.997 8.00488 109.951 8.00488ZM103.815 19.3001C103.815 23.5973 105.819 25.6847 109.951 25.6847C114.084 25.6847 116.089 23.5973 116.089 19.3001C116.089 15.0029 114.085 12.9155 109.951 12.9155C105.819 12.9155 103.815 15.0029 103.815 19.3001Z" fill="white"/>
<path d="M136.049 8.0459C141.778 8.0459 145.418 10.8291 146.687 15.8633L146.851 16.5179L141.491 16.4767C140.795 14.1032 139.118 13.0389 136.09 13.0389C132.163 13.0389 130.24 15.0851 130.24 19.301C130.24 23.5159 132.163 25.5631 136.09 25.5631C139.118 25.5631 140.796 24.4989 141.491 22.1254H146.851L146.687 22.7388C145.337 27.773 141.777 30.5963 136.049 30.5963C129.217 30.5963 125.002 26.2579 125.002 19.301C125.002 12.3431 129.216 8.0459 136.049 8.0459Z" fill="white"/>
<path d="M155.676 23.3525C155.881 24.0482 156.904 25.7671 160.586 25.7671C163.368 25.7671 165.087 25.1125 164.801 23.5985C164.596 22.5754 162.96 21.962 160.055 21.5523C157.804 21.225 150.89 20.2832 151.339 14.3494C151.625 10.4619 155.186 7.96484 160.341 7.96484C165.496 8.04721 169.055 10.9117 169.179 15.2089H164.105C164.105 13.244 161.732 12.753 160.177 12.753C158.786 12.753 156.494 13.0803 156.454 14.5944C156.413 16.1084 157.887 16.3133 160.833 16.7641C165.17 17.4187 170.121 18.729 169.998 23.967C169.916 27.2411 166.888 30.5965 160.464 30.5965C155.514 30.4328 150.645 28.1406 150.604 23.3525H155.676Z" fill="white"/>
<path d="M169.213 0.230469H153.215V3.98687H169.213V0.230469Z" fill="white"/>
<path d="M149.811 4.21702C148.549 4.21702 147.717 3.35757 147.717 2.12206C147.717 0.859443 148.549 0 149.811 0C151.072 0 151.906 0.859443 151.906 2.12206C151.906 3.35866 151.073 4.21702 149.811 4.21702Z" fill="white"/>
<path d="M144.314 4.21702C143.052 4.21702 142.22 3.35757 142.22 2.12206C142.22 0.859443 143.052 0 144.314 0C145.575 0 146.409 0.859443 146.409 2.12206C146.407 3.35866 145.575 4.21702 144.314 4.21702Z" fill="white"/>
<path d="M138.813 4.21702C137.551 4.21702 136.719 3.35757 136.719 2.12206C136.719 0.859443 137.551 0 138.813 0C140.074 0 140.908 0.859443 140.908 2.12206C140.908 3.35866 140.075 4.21702 138.813 4.21702Z" fill="white"/>
</svg>
