<svg width="133" height="24" viewBox="0 0 133 24" fill="none" xmlns="http://www.w3.org/2000/svg">
<path d="M3.96968 18.27C4.12989 18.8144 4.9301 20.1592 7.81052 20.1592C9.98736 20.1592 11.3318 19.647 11.108 18.4625C10.9478 17.6621 9.66778 17.1822 7.39515 16.8617C5.63452 16.6056 0.224635 15.8688 0.577269 11.2265C0.801057 8.18502 3.58568 6.23145 7.61979 6.23145C11.653 6.29589 14.4377 8.5369 14.5343 11.8989H10.5646C10.5646 10.3616 8.70821 9.9775 7.49179 9.9775C6.40337 9.9775 4.61053 10.2336 4.57916 11.4181C4.54695 12.6026 5.69979 12.7629 8.00463 13.1156C11.3979 13.6277 15.2709 14.6529 15.1752 18.7508C15.1107 21.3123 12.7423 23.9374 7.71642 23.9374C3.84168 23.8094 0.0322118 22.0161 0 18.27H3.96968Z" fill="#092BD7"/>
<path d="M26.9486 6.26245C32.3907 6.26245 35.7832 9.65662 35.7832 15.0993C35.7832 20.542 32.3907 23.9371 26.9486 23.9371C21.5074 23.9371 18.1133 20.5429 18.1133 15.0993C18.1133 9.65577 21.5074 6.26245 26.9486 6.26245ZM22.1474 15.0993C22.1474 18.4613 23.7156 20.0944 26.9486 20.0944C30.1817 20.0944 31.7507 18.4613 31.7507 15.0993C31.7507 11.7374 30.1825 10.1043 26.9486 10.1043C23.7156 10.1043 22.1474 11.7374 22.1474 15.0993Z" fill="#092BD7"/>
<path d="M42.6884 18.27C42.8486 18.8144 43.6488 20.1592 46.5293 20.1592C48.7061 20.1592 50.0505 19.647 49.8267 18.4625C49.6665 17.6621 48.3865 17.1822 46.1131 16.8617C44.3524 16.6056 38.9425 15.8688 39.2952 11.2265C39.519 8.18502 42.3036 6.23145 46.3377 6.23145C50.3709 6.29589 53.1556 8.5369 53.2522 11.8989H49.2825C49.2825 10.3616 47.4261 9.9775 46.2097 9.9775C45.1213 9.9775 43.3284 10.2336 43.2962 11.4181C43.264 12.6026 44.4168 12.7629 46.7217 13.1156C50.1149 13.6277 53.988 14.6529 53.8922 18.7508C53.8278 21.3123 51.4594 23.9374 46.4335 23.9374C42.5604 23.8094 38.751 22.0161 38.7188 18.27H42.6884Z" fill="#092BD7"/>
<path d="M65.5072 6.26255C67.3 6.26255 68.9004 6.64665 70.2126 7.38348V0.0830078H74.2459V23.8091H70.8204L70.5966 22.5924C69.1886 23.4886 67.4594 23.9372 65.5072 23.9372C60.1617 23.9372 56.832 20.543 56.832 15.0994C56.832 9.65587 60.1609 6.26255 65.5072 6.26255ZM65.6674 19.9664C68.836 19.9664 70.3729 18.3656 70.3729 15.0994C70.3729 11.8019 68.836 10.2324 65.6674 10.2324C62.4988 10.2324 60.9619 11.8019 60.9619 15.0994C60.9619 18.3656 62.4979 19.9664 65.6674 19.9664Z" fill="#092BD7"/>
<path d="M86.0209 6.26245C91.463 6.26245 94.8554 9.65662 94.8554 15.0993C94.8554 20.542 91.4622 23.9371 86.0209 23.9371C80.5797 23.9371 77.1855 20.5429 77.1855 15.0993C77.1855 9.65577 80.5797 6.26245 86.0209 6.26245ZM81.2197 15.0993C81.2197 18.4613 82.7879 20.0944 86.0209 20.0944C89.254 20.0944 90.823 18.4613 90.823 15.0993C90.823 11.7374 89.2548 10.1043 86.0209 10.1043C82.7879 10.1043 81.2197 11.7374 81.2197 15.0993Z" fill="#092BD7"/>
<path d="M106.439 6.29468C110.921 6.29468 113.769 8.4721 114.761 12.4106L114.889 12.9228L110.696 12.8905C110.152 11.0336 108.839 10.201 106.471 10.201C103.398 10.201 101.894 11.8018 101.894 15.1002C101.894 18.3977 103.398 19.9994 106.471 19.9994C108.839 19.9994 110.153 19.1667 110.696 17.3098H114.889L114.761 17.7897C113.705 21.7283 110.92 23.9371 106.439 23.9371C101.093 23.9371 97.7959 20.5429 97.7959 15.1002C97.7959 9.65663 101.093 6.29468 106.439 6.29468Z" fill="#092BD7"/>
<path d="M121.794 18.27C121.954 18.8144 122.754 20.1592 125.635 20.1592C127.812 20.1592 129.156 19.647 128.932 18.4625C128.772 17.6621 127.492 17.1822 125.22 16.8617C123.459 16.6056 118.049 15.8688 118.401 11.2265C118.625 8.18502 121.41 6.23145 125.443 6.23145C129.477 6.29589 132.261 8.5369 132.358 11.8989H128.388C128.388 10.3616 126.532 9.9775 125.315 9.9775C124.227 9.9775 122.434 10.2336 122.403 11.4181C122.37 12.6026 123.523 12.7629 125.828 13.1156C129.221 13.6277 133.094 14.6529 132.999 18.7508C132.934 21.3123 130.566 23.9374 125.54 23.9374C121.667 23.8094 117.857 22.0161 117.825 18.27H121.794Z" fill="#092BD7"/>
<path d="M132.384 0.180664H119.868V3.11951H132.384V0.180664Z" fill="#092BD7"/>
<path d="M117.206 3.2992C116.218 3.2992 115.567 2.62681 115.567 1.6602C115.567 0.67239 116.218 0 117.206 0C118.193 0 118.845 0.67239 118.845 1.6602C118.845 2.62766 118.193 3.2992 117.206 3.2992Z" fill="#092BD7"/>
<path d="M112.905 3.2992C111.918 3.2992 111.267 2.62681 111.267 1.6602C111.267 0.67239 111.918 0 112.905 0C113.892 0 114.544 0.67239 114.544 1.6602C114.543 2.62766 113.892 3.2992 112.905 3.2992Z" fill="#092BD7"/>
<path d="M108.601 3.2992C107.614 3.2992 106.963 2.62681 106.963 1.6602C106.963 0.67239 107.614 0 108.601 0C109.588 0 110.24 0.67239 110.24 1.6602C110.24 2.62766 109.589 3.2992 108.601 3.2992Z" fill="#092BD7"/>
</svg>
