<svg width="38" height="37" viewBox="0 0 38 37" fill="none" xmlns="http://www.w3.org/2000/svg">
<path fill-rule="evenodd" clip-rule="evenodd" d="M10.6064 18.7837C10.6064 15.4988 10.6064 13.8564 11.443 12.705C11.7131 12.3331 12.0402 12.0061 12.412 11.736C13.5634 10.8994 15.2059 10.8994 18.4907 10.8994H18.65C21.9349 10.8994 23.5774 10.8994 24.7288 11.736C25.1006 12.0061 25.4276 12.3331 25.6978 12.705C26.5343 13.8564 26.5343 15.4988 26.5343 18.7837V18.943C26.5343 22.2279 26.5343 23.8703 25.6978 25.0217C25.4276 25.3936 25.1006 25.7206 24.7288 25.9908C23.5774 26.8273 21.9349 26.8273 18.65 26.8273H18.4907C15.2059 26.8273 13.5634 26.8273 12.412 25.9908C12.0402 25.7206 11.7131 25.3936 11.443 25.0217C10.6064 23.8703 10.6064 22.2279 10.6064 18.943V18.7837ZM18.5705 14.6473C16.2421 14.6473 14.3543 16.5351 14.3543 18.8635C14.3543 21.1919 16.2421 23.0797 18.5705 23.0797C20.8989 23.0797 22.7867 21.1919 22.7867 18.8635C22.7867 16.5351 20.8989 14.6473 18.5705 14.6473ZM18.5705 21.4986C17.1181 21.4986 15.9354 20.316 15.9354 18.8635C15.9354 17.41 17.1181 16.2284 18.5705 16.2284C20.023 16.2284 21.2057 17.41 21.2057 18.8635C21.2057 20.316 20.023 21.4986 18.5705 21.4986ZM23.6643 14.3311C23.6643 14.6413 23.4128 14.8929 23.1025 14.8929C22.7922 14.8929 22.5407 14.6413 22.5407 14.3311C22.5407 14.0208 22.7922 13.7692 23.1025 13.7692C23.4128 13.7692 23.6643 14.0208 23.6643 14.3311Z" fill="white"/>
<path opacity="0.25" fill-rule="evenodd" clip-rule="evenodd" d="M18.8774 35.8584C28.9116 35.8584 37.0458 28.0551 37.0458 18.4292C37.0458 8.80332 28.9116 1 18.8774 1C8.84327 1 0.708984 8.80332 0.708984 18.4292C0.708984 28.0551 8.84327 35.8584 18.8774 35.8584Z" stroke="white" stroke-width="1.34966"/>
</svg>
