<svg width="39" height="37" viewBox="0 0 39 37" fill="none" xmlns="http://www.w3.org/2000/svg">
<path opacity="0.25" fill-rule="evenodd" clip-rule="evenodd" d="M19.1684 35.8584C29.2026 35.8584 37.3369 28.0551 37.3369 18.4292C37.3369 8.80332 29.2026 1 19.1684 1C9.13428 1 1 8.80332 1 18.4292C1 28.0551 9.13428 35.8584 19.1684 35.8584Z" stroke="white" stroke-width="1.34966"/>
<path d="M14.9982 14.91C15.8489 14.91 16.5384 14.2485 16.5384 13.4325C16.5384 12.6166 15.8489 11.9551 14.9982 11.9551C14.1476 11.9551 13.458 12.6166 13.458 13.4325C13.458 14.2485 14.1476 14.91 14.9982 14.91Z" fill="white"/>
<path d="M16.2817 15.8984H13.7147C13.573 15.8984 13.458 16.0088 13.458 16.1447V23.5327C13.458 23.6686 13.573 23.7789 13.7147 23.7789H16.2817C16.4234 23.7789 16.5384 23.6686 16.5384 23.5327V16.1447C16.5384 16.0088 16.4234 15.8984 16.2817 15.8984Z" fill="white"/>
<path d="M23.9321 15.4872C22.8349 15.1267 21.4626 15.4434 20.6396 16.0112C20.6114 15.9053 20.5107 15.8265 20.3911 15.8265H17.8241C17.6824 15.8265 17.5674 15.9369 17.5674 16.0728V23.4607C17.5674 23.5967 17.6824 23.707 17.8241 23.707H20.3911C20.5328 23.707 20.6478 23.5967 20.6478 23.4607V18.1513C21.0626 17.8085 21.5971 17.6991 22.0345 17.8774C22.4586 18.0493 22.7014 18.4689 22.7014 19.028V23.4607C22.7014 23.5967 22.8164 23.707 22.9581 23.707H25.5252C25.6669 23.707 25.7819 23.5967 25.7819 23.4607V18.532C25.7526 16.5082 24.7602 15.7591 23.9321 15.4872Z" fill="white"/>
</svg>
