<svg width="449" height="226" viewBox="0 0 449 226" fill="none" xmlns="http://www.w3.org/2000/svg">
<path opacity="0.5" d="M141.931 50.3294L186.66 86.3242C187.308 86.8457 188.24 86.793 188.825 86.203C191.806 83.174 201.483 74.5296 217.713 71.3163C218.504 71.1582 219.072 70.4576 219.078 69.6516L219.257 13.7921C219.262 11.4374 217.36 9.53577 215.006 9.52524C203.617 9.48836 171.325 12.4541 141.499 44.1029C139.803 45.9045 140.003 48.7807 141.931 50.3294Z" fill="#005786"/>
<g style="mix-blend-mode:exclusion" opacity="0.5">
<path d="M302.297 50.3294L257.569 86.3242C256.921 86.8457 255.988 86.793 255.404 86.203C252.422 83.174 242.745 74.5296 226.515 71.3163C225.725 71.1582 225.156 70.4576 225.151 69.6516L224.972 13.7921C224.966 11.4374 226.868 9.53577 229.223 9.52524C240.612 9.48836 272.903 12.4541 302.729 44.1029C304.431 45.9045 304.225 48.7807 302.297 50.3294Z" fill="#007BFF"/>
</g>
<g style="mix-blend-mode:exclusion" opacity="0.5">
<path d="M303.793 184.363L259.064 148.368C258.416 147.847 257.483 147.899 256.899 148.489C253.917 151.518 244.24 160.163 228.01 163.376C227.22 163.534 226.651 164.235 226.646 165.041L226.467 220.895C226.462 223.25 228.363 225.151 230.718 225.162C242.107 225.199 274.398 222.233 304.224 190.584C305.921 188.788 305.721 185.912 303.793 184.363Z" fill="#007BFF"/>
</g>
<path opacity="0.5" d="M143.426 184.363L188.155 148.368C188.803 147.847 189.735 147.899 190.32 148.489C193.302 151.518 202.979 160.163 219.209 163.376C219.999 163.534 220.568 164.235 220.573 165.041L220.752 220.895C220.757 223.25 218.856 225.151 216.501 225.162C205.112 225.199 172.821 222.233 142.994 190.584C141.293 188.788 141.498 185.912 143.426 184.363Z" fill="#005786"/>
<path opacity="0.5" d="M176.723 120.117H116.207C115.285 120.117 114.532 120.881 114.563 121.803C114.7 125.933 115.048 130.237 115.664 134.719C115.754 135.362 115.98 135.947 116.312 136.453C120.284 158.53 130.124 172.895 134.997 178.895C136.483 180.723 139.159 181.013 140.987 179.527L184.351 144.323C184.978 143.812 185.167 142.932 184.793 142.216C180.758 134.525 179.025 127.308 178.356 121.571C178.256 120.739 177.556 120.117 176.723 120.117Z" fill="#005786"/>
<path opacity="0.5" d="M184.72 92.4294C185.084 91.7394 184.899 90.8912 184.294 90.4013L140.887 55.1599C139.059 53.6744 136.383 53.9641 134.898 55.792C129.988 61.8395 120.032 76.3838 116.123 98.7508C115.949 99.1248 115.823 99.5357 115.76 99.9676C115.375 102.76 115.096 105.483 114.906 108.138C114.775 109.676 114.675 111.246 114.606 112.842C114.564 113.78 115.307 114.565 116.25 114.565H176.629C177.461 114.565 178.162 113.943 178.257 113.116C178.926 107.374 180.664 100.136 184.72 92.4294Z" fill="#005786"/>
<g style="mix-blend-mode:exclusion" opacity="0.5">
<path d="M261.03 142.215C260.656 142.931 260.846 143.811 261.472 144.322L304.837 179.526C306.665 181.012 309.341 180.722 310.826 178.894C315.736 172.847 325.687 158.303 329.601 135.936C329.774 135.562 329.901 135.151 329.964 134.719C330.349 131.927 330.628 129.203 330.817 126.548C330.96 124.879 331.07 123.172 331.139 121.428C331.176 120.501 330.422 119.732 329.495 119.732H269.148C268.31 119.732 267.609 120.359 267.515 121.196C266.877 126.991 265.155 134.361 261.03 142.215Z" fill="#007BFF"/>
</g>
<g style="mix-blend-mode:exclusion" opacity="0.5">
<path d="M330.058 99.973C329.969 99.3303 329.742 98.7456 329.41 98.2399C325.438 76.1626 315.604 61.7974 310.726 55.7974C309.24 53.9695 306.564 53.6798 304.736 55.1653L261.372 90.3698C260.745 90.8808 260.555 91.7658 260.929 92.4822C264.875 100.005 266.619 107.074 267.319 112.747C267.419 113.569 268.12 114.185 268.947 114.185H329.495C330.422 114.185 331.17 113.422 331.138 112.494C331.001 108.486 330.654 104.314 330.058 99.973Z" fill="#007BFF"/>
</g>
<path d="M142 28.396C142.219 28.396 142.396 28.2187 142.396 28C142.396 27.7813 142.219 27.604 142 27.604L142 28.396ZM13 27.604C12.7813 27.604 12.604 27.7813 12.604 28C12.604 28.2187 12.7813 28.396 13 28.396L13 27.604ZM142 27.604L140.598 27.604L140.598 28.396L142 28.396L142 27.604ZM137.793 27.604L134.989 27.604L134.989 28.396L137.793 28.396L137.793 27.604ZM132.185 27.604L129.38 27.604L129.38 28.396L132.185 28.396L132.185 27.604ZM126.576 27.604L123.772 27.604L123.772 28.396L126.576 28.396L126.576 27.604ZM120.967 27.604L118.163 27.604L118.163 28.396L120.967 28.396L120.967 27.604ZM115.359 27.604L112.554 27.604L112.554 28.396L115.359 28.396L115.359 27.604ZM109.75 27.604L106.946 27.604L106.946 28.396L109.75 28.396L109.75 27.604ZM104.141 27.604L101.337 27.604L101.337 28.396L104.141 28.396L104.141 27.604ZM98.5326 27.604L95.7283 27.604L95.7283 28.396L98.5326 28.396L98.5326 27.604ZM92.9239 27.604L90.1196 27.604L90.1196 28.396L92.9239 28.396L92.9239 27.604ZM87.3152 27.604L84.5109 27.604L84.5109 28.396L87.3152 28.396L87.3152 27.604ZM81.7065 27.604L78.9022 27.604L78.9022 28.396L81.7065 28.396L81.7065 27.604ZM76.0978 27.604L73.2935 27.604L73.2935 28.396L76.0978 28.396L76.0978 27.604ZM70.4891 27.604L67.6848 27.604L67.6848 28.396L70.4891 28.396L70.4891 27.604ZM64.8804 27.604L62.0761 27.604L62.0761 28.396L64.8804 28.396L64.8804 27.604ZM59.2718 27.604L56.4674 27.604L56.4674 28.396L59.2718 28.396L59.2718 27.604ZM53.6631 27.604L50.8587 27.604L50.8587 28.396L53.6631 28.396L53.6631 27.604ZM48.0544 27.604L45.25 27.604L45.25 28.396L48.0544 28.396L48.0544 27.604ZM42.4457 27.604L39.6413 27.604L39.6413 28.396L42.4457 28.396L42.4457 27.604ZM36.837 27.604L34.0327 27.604L34.0327 28.396L36.837 28.396L36.837 27.604ZM31.2283 27.604L28.424 27.604L28.424 28.396L31.2283 28.396L31.2283 27.604ZM25.6196 27.604L22.8153 27.604L22.8153 28.396L25.6196 28.396L25.6196 27.604ZM20.0109 27.604L17.2066 27.604L17.2066 28.396L20.0109 28.396L20.0109 27.604ZM14.4022 27.604L13 27.604L13 28.396L14.4022 28.396L14.4022 27.604Z" fill="white" fill-opacity="0.25"/>
<line x1="445.987" y1="28.396" x2="304.21" y2="28.396" stroke="white" stroke-opacity="0.25" stroke-width="0.792051" stroke-miterlimit="4.14008" stroke-linecap="round" stroke-dasharray="2.77 2.77"/>
<line x1="103.604" y1="154.396" x2="2.39603" y2="154.396" stroke="white" stroke-opacity="0.25" stroke-width="0.792051" stroke-miterlimit="4.14008" stroke-linecap="round" stroke-dasharray="2.77 2.77"/>
<line x1="446.779" y1="154.056" x2="337.08" y2="154.056" stroke="white" stroke-opacity="0.25" stroke-width="0.792051" stroke-miterlimit="4.14008" stroke-linecap="round" stroke-dasharray="2.77 2.77"/>
<line x1="157.604" y1="220.396" x2="13.396" y2="220.396" stroke="white" stroke-opacity="0.25" stroke-width="0.792051" stroke-miterlimit="4.14008" stroke-linecap="round" stroke-dasharray="2.77 2.77"/>
<line x1="434.121" y1="220.212" x2="286.279" y2="220.212" stroke="white" stroke-opacity="0.25" stroke-width="0.792051" stroke-miterlimit="4.14008" stroke-linecap="round" stroke-dasharray="2.77 2.77"/>
<path d="M13.688 8.72C13.64 11.744 16.168 14.224 19.256 14.176C21.384 14.176 23.24 13.072 24.184 11.392V8.416H19.24V9.92H22.488V11.056C21.832 12.064 20.728 12.656 19.336 12.656C17.064 12.656 15.448 10.96 15.448 8.704C15.448 6.48 17.016 4.816 19.24 4.816C20.552 4.816 21.608 5.376 22.392 6.48L23.624 5.472C22.616 4.064 21.096 3.264 19.256 3.264C16.2 3.216 13.624 5.696 13.688 8.72ZM26.0735 10.704C26.0735 12.816 27.5455 14.176 29.5135 14.176C31.4335 14.176 32.9215 12.816 32.9215 10.704V6.144H31.2415V10.832C31.2415 11.92 30.4895 12.624 29.5135 12.624C28.4895 12.624 27.7375 11.92 27.7375 10.832V6.144H26.0735V10.704ZM41.5185 9.248C41.5185 7.136 40.2385 5.968 38.3025 5.968C36.9425 5.968 35.7745 6.512 34.9905 7.648L35.9665 8.64C36.6225 7.856 37.2625 7.472 38.1425 7.472C39.2145 7.472 39.8225 8.064 39.8225 9.152V9.664H37.5985C35.8225 9.664 34.7025 10.544 34.7025 11.904C34.7025 13.264 35.7905 14.176 37.4385 14.176C38.5105 14.176 39.3745 13.808 39.9505 13.12V14H41.5185V9.248ZM39.8225 11.024C39.8225 12.096 38.9265 12.88 37.7905 12.88C36.9745 12.88 36.4145 12.496 36.4145 11.84C36.4145 11.2 36.9105 10.88 37.8065 10.88H39.8225V11.024ZM48.3526 6.144C48.1606 6.096 47.9526 6.064 47.7126 6.064C46.8166 6.064 45.9846 6.464 45.4246 7.168V6.144H43.8566V14H45.5366V9.808C45.5366 8.416 46.5126 7.632 47.8406 7.632H48.3526V6.144ZM55.6684 2V7.104C55.0764 6.384 54.1324 5.968 53.0444 5.968C50.8684 5.92 49.1564 7.792 49.2044 10.08C49.2044 12.4 50.8364 14.176 53.0444 14.176C54.2124 14.176 55.2204 13.696 55.7964 12.88V14H57.3644V2H55.6684ZM55.7004 10.08C55.7004 11.792 54.5644 12.64 53.3324 12.64C51.9404 12.64 50.9164 11.568 50.9164 10.064C50.9164 8.56 51.9884 7.504 53.3324 7.504C54.5484 7.504 55.7004 8.384 55.7004 10.08ZM66.8661 10.624C66.9461 10.256 66.9941 9.904 66.9941 9.568C66.9941 7.52 65.4421 5.968 63.3621 5.968C61.1381 5.92 59.2501 7.824 59.2981 10.08C59.2981 12.4 61.1221 14.176 63.5221 14.176C64.7221 14.176 65.7621 13.76 66.6581 12.912L65.8581 11.76C65.1541 12.384 64.3861 12.688 63.5701 12.688C62.2261 12.688 61.2181 11.904 61.0101 10.624H66.8661ZM61.0421 9.312C61.2981 8.144 62.1941 7.392 63.2981 7.392C64.4021 7.392 65.2981 8.112 65.3141 9.312H61.0421ZM73.5155 14H75.2115V3.44H73.5155V14ZM89.4768 9.088C89.4768 7.216 88.3728 5.968 86.5648 5.968C85.4608 5.968 84.4848 6.448 83.9088 7.2C83.4448 6.432 82.6128 5.968 81.5248 5.968C80.5807 5.968 79.8128 6.304 79.2528 6.88V6.144H77.6848V14H79.3648V9.328C79.3648 8.24 80.0688 7.504 81.0928 7.504C82.1008 7.504 82.7408 8.24 82.7408 9.328V14H84.4208V9.248C84.4208 8.24 85.1248 7.504 86.1488 7.504C87.1568 7.504 87.7808 8.224 87.7808 9.328V14H89.4768V9.088ZM98.0498 9.248C98.0498 7.136 96.7698 5.968 94.8338 5.968C93.4738 5.968 92.3058 6.512 91.5218 7.648L92.4978 8.64C93.1538 7.856 93.7938 7.472 94.6738 7.472C95.7458 7.472 96.3538 8.064 96.3538 9.152V9.664H94.1298C92.3538 9.664 91.2338 10.544 91.2338 11.904C91.2338 13.264 92.3218 14.176 93.9698 14.176C95.0418 14.176 95.9058 13.808 96.4818 13.12V14H98.0498V9.248ZM96.3538 11.024C96.3538 12.096 95.4578 12.88 94.3218 12.88C93.5058 12.88 92.9457 12.496 92.9457 11.84C92.9457 11.2 93.4418 10.88 94.3378 10.88H96.3538V11.024ZM106.548 6.144V7.264C105.972 6.448 104.964 5.968 103.764 5.968C101.588 5.968 99.9399 7.616 99.9399 9.904C99.9399 12.192 101.572 13.84 103.764 13.84C104.852 13.84 105.828 13.44 106.42 12.72V13.28C106.42 14.752 105.492 15.52 104.068 15.52C102.996 15.52 102.196 15.104 101.316 14.4L100.388 15.568C101.332 16.448 102.612 17.056 104.164 17.056C106.548 17.056 108.1 15.664 108.1 13.184V6.144H106.548ZM106.436 9.888C106.436 10.688 106.196 11.296 105.732 11.728C105.268 12.16 104.724 12.368 104.068 12.368C103.38 12.368 102.82 12.144 102.356 11.696C101.892 11.232 101.668 10.64 101.668 9.904C101.668 9.184 101.892 8.592 102.356 8.144C102.82 7.696 103.38 7.472 104.068 7.472C105.364 7.472 106.436 8.288 106.436 9.888ZM117.601 10.624C117.681 10.256 117.729 9.904 117.729 9.568C117.729 7.52 116.177 5.968 114.097 5.968C111.873 5.92 109.985 7.824 110.033 10.08C110.033 12.4 111.857 14.176 114.257 14.176C115.457 14.176 116.497 13.76 117.392 12.912L116.593 11.76C115.889 12.384 115.121 12.688 114.305 12.688C112.961 12.688 111.953 11.904 111.745 10.624H117.601ZM111.777 9.312C112.033 8.144 112.929 7.392 114.033 7.392C115.137 7.392 116.033 8.112 116.049 9.312H111.777ZM126.517 9.088C126.517 7.216 125.414 5.968 123.574 5.968C122.598 5.968 121.814 6.288 121.222 6.912V6.144H119.654V14H121.334V9.312C121.334 8.24 122.086 7.488 123.126 7.488C124.15 7.488 124.838 8.224 124.838 9.312V14H126.517V9.088ZM128.121 12.656C128.825 13.568 129.945 14.176 131.289 14.176C132.121 14.176 132.809 13.968 133.369 13.552C133.929 13.12 134.201 12.528 134.201 11.776C134.201 10.672 133.545 10.032 132.057 9.408L131.305 9.104C130.537 8.784 130.265 8.576 130.265 8.176C130.265 7.68 130.681 7.424 131.337 7.424C132.025 7.424 132.681 7.712 133.177 8.224L134.089 7.184C133.401 6.368 132.505 5.968 131.369 5.968C129.769 5.968 128.601 6.832 128.601 8.24C128.601 9.344 129.257 9.952 130.649 10.528L131.449 10.864C132.217 11.184 132.553 11.376 132.553 11.84C132.553 12.416 132.009 12.72 131.289 12.72C130.457 12.72 129.769 12.32 129.081 11.6L128.121 12.656Z" fill="white"/>
<path d="M13.688 180.72C13.624 183.744 16.232 186.224 19.24 186.176C21.208 186.176 22.872 185.232 23.768 183.744L22.488 182.8C21.736 183.968 20.648 184.624 19.256 184.624C17.096 184.624 15.448 182.96 15.448 180.72C15.448 178.48 17.096 176.816 19.256 176.816C20.648 176.816 21.736 177.472 22.488 178.64L23.768 177.696C22.856 176.208 21.176 175.264 19.24 175.264C16.232 175.216 13.624 177.696 13.688 180.72ZM25.0325 182.064C24.9845 184.288 26.9205 186.224 29.1765 186.176C31.4645 186.224 33.4005 184.288 33.3525 182.064C33.4005 179.84 31.4645 177.92 29.1765 177.968C26.9205 177.936 24.9845 179.808 25.0325 182.064ZM31.6245 182.08C31.6245 183.504 30.5685 184.624 29.1765 184.624C27.8005 184.624 26.7445 183.536 26.7445 182.08C26.7445 180.624 27.8005 179.504 29.1925 179.504C30.5525 179.504 31.6245 180.624 31.6245 182.08ZM42.1425 181.088C42.1425 179.216 41.0385 177.968 39.1985 177.968C38.2225 177.968 37.4385 178.288 36.8465 178.912V178.144H35.2785V186H36.9585V181.312C36.9585 180.24 37.7105 179.488 38.7505 179.488C39.7745 179.488 40.4625 180.224 40.4625 181.312V186H42.1425V181.088ZM43.7456 184.656C44.4496 185.568 45.5696 186.176 46.9136 186.176C47.7456 186.176 48.4336 185.968 48.9936 185.552C49.5536 185.12 49.8256 184.528 49.8256 183.776C49.8256 182.672 49.1696 182.032 47.6816 181.408L46.9296 181.104C46.1616 180.784 45.8896 180.576 45.8896 180.176C45.8896 179.68 46.3056 179.424 46.9616 179.424C47.6496 179.424 48.3056 179.712 48.8016 180.224L49.7136 179.184C49.0256 178.368 48.1296 177.968 46.9936 177.968C45.3936 177.968 44.2256 178.832 44.2256 180.24C44.2256 181.344 44.8816 181.952 46.2736 182.528L47.0736 182.864C47.8416 183.184 48.1776 183.376 48.1776 183.84C48.1776 184.416 47.6336 184.72 46.9136 184.72C46.0816 184.72 45.3936 184.32 44.7056 183.6L43.7456 184.656ZM51.6829 182.704C51.6829 184.816 53.1549 186.176 55.1229 186.176C57.0429 186.176 58.5309 184.816 58.5309 182.704V178.144H56.8509V182.832C56.8509 183.92 56.0989 184.624 55.1229 184.624C54.0989 184.624 53.3469 183.92 53.3469 182.832V178.144H51.6829V182.704ZM60.8879 186H62.5679V174H60.8879V186ZM69.6693 184.576C69.2053 184.624 68.8693 184.656 68.6293 184.656C67.6053 184.656 67.0773 184.304 67.0773 183.296V179.6H69.4133V178.144H67.0773V176.08H65.3813V178.144H64.1013V179.6H65.3813V183.44C65.3813 185.28 66.4693 186.176 68.2773 186.176C68.6773 186.176 69.1413 186.112 69.6693 186V184.576ZM78.288 182.624C78.368 182.256 78.416 181.904 78.416 181.568C78.416 179.52 76.864 177.968 74.784 177.968C72.56 177.92 70.672 179.824 70.72 182.08C70.72 184.4 72.544 186.176 74.944 186.176C76.144 186.176 77.184 185.76 78.08 184.912L77.28 183.76C76.576 184.384 75.808 184.688 74.992 184.688C73.648 184.688 72.64 183.904 72.432 182.624H78.288ZM72.464 181.312C72.72 180.144 73.616 179.392 74.72 179.392C75.824 179.392 76.72 180.112 76.736 181.312H72.464ZM84.0894 184.656C84.7934 185.568 85.9134 186.176 87.2574 186.176C88.0894 186.176 88.7774 185.968 89.3374 185.552C89.8974 185.12 90.1694 184.528 90.1694 183.776C90.1694 182.672 89.5134 182.032 88.0254 181.408L87.2734 181.104C86.5054 180.784 86.2334 180.576 86.2334 180.176C86.2334 179.68 86.6494 179.424 87.3054 179.424C87.9934 179.424 88.6494 179.712 89.1454 180.224L90.0574 179.184C89.3694 178.368 88.4734 177.968 87.3374 177.968C85.7374 177.968 84.5694 178.832 84.5694 180.24C84.5694 181.344 85.2254 181.952 86.6174 182.528L87.4174 182.864C88.1854 183.184 88.5214 183.376 88.5214 183.84C88.5214 184.416 87.9774 184.72 87.2574 184.72C86.4254 184.72 85.7374 184.32 85.0494 183.6L84.0894 184.656ZM99.1786 182.624C99.2586 182.256 99.3066 181.904 99.3066 181.568C99.3066 179.52 97.7546 177.968 95.6746 177.968C93.4506 177.92 91.5626 179.824 91.6106 182.08C91.6106 184.4 93.4346 186.176 95.8346 186.176C97.0346 186.176 98.0746 185.76 98.9706 184.912L98.1706 183.76C97.4666 184.384 96.6986 184.688 95.8826 184.688C94.5386 184.688 93.5306 183.904 93.3226 182.624H99.1786ZM93.3546 181.312C93.6106 180.144 94.5066 179.392 95.6106 179.392C96.7146 179.392 97.6106 180.112 97.6266 181.312H93.3546ZM101.152 182.704C101.152 184.816 102.624 186.176 104.592 186.176C106.512 186.176 108 184.816 108 182.704V178.144H106.32V182.832C106.32 183.92 105.568 184.624 104.592 184.624C103.568 184.624 102.816 183.92 102.816 182.832V178.144H101.152V182.704ZM109.621 184.656C110.325 185.568 111.445 186.176 112.789 186.176C113.621 186.176 114.309 185.968 114.869 185.552C115.429 185.12 115.701 184.528 115.701 183.776C115.701 182.672 115.045 182.032 113.557 181.408L112.805 181.104C112.037 180.784 111.765 180.576 111.765 180.176C111.765 179.68 112.181 179.424 112.837 179.424C113.525 179.424 114.181 179.712 114.677 180.224L115.589 179.184C114.901 178.368 114.005 177.968 112.869 177.968C111.269 177.968 110.101 178.832 110.101 180.24C110.101 181.344 110.757 181.952 112.149 182.528L112.949 182.864C113.717 183.184 114.053 183.376 114.053 183.84C114.053 184.416 113.509 184.72 112.789 184.72C111.957 184.72 111.269 184.32 110.581 183.6L109.621 184.656ZM20.184 193V198.104C19.592 197.384 18.648 196.968 17.56 196.968C15.384 196.92 13.672 198.792 13.72 201.08C13.72 203.4 15.352 205.176 17.56 205.176C18.728 205.176 19.736 204.696 20.312 203.88V205H21.88V193H20.184ZM20.216 201.08C20.216 202.792 19.08 203.64 17.848 203.64C16.456 203.64 15.432 202.568 15.432 201.064C15.432 199.56 16.504 198.504 17.848 198.504C19.064 198.504 20.216 199.384 20.216 201.08ZM23.8138 201.064C23.7658 203.288 25.7018 205.224 27.9578 205.176C30.2458 205.224 32.1818 203.288 32.1337 201.064C32.1818 198.84 30.2458 196.92 27.9578 196.968C25.7018 196.936 23.7658 198.808 23.8138 201.064ZM30.4058 201.08C30.4058 202.504 29.3498 203.624 27.9578 203.624C26.5818 203.624 25.5258 202.536 25.5258 201.08C25.5258 199.624 26.5818 198.504 27.9738 198.504C29.3338 198.504 30.4058 199.624 30.4058 201.08ZM33.5638 201.064C33.5638 203.352 35.4038 205.176 37.7238 205.176C39.1478 205.176 40.3318 204.488 41.0358 203.352L39.8518 202.44C39.2758 203.224 38.5718 203.624 37.7398 203.624C36.3318 203.624 35.2758 202.504 35.2758 201.064C35.2758 199.64 36.3318 198.52 37.7398 198.52C38.5878 198.52 39.2918 198.92 39.8518 199.72L41.0358 198.792C40.3478 197.656 39.1798 196.968 37.7238 196.968C35.4678 196.936 33.5158 198.808 33.5638 201.064ZM42.8079 201.704C42.8079 203.816 44.2799 205.176 46.2479 205.176C48.1679 205.176 49.6559 203.816 49.6559 201.704V197.144H47.9759V201.832C47.9759 202.92 47.2239 203.624 46.2479 203.624C45.2239 203.624 44.4719 202.92 44.4719 201.832V197.144H42.8079V201.704ZM63.8049 200.088C63.8049 198.216 62.7009 196.968 60.8929 196.968C59.7889 196.968 58.8129 197.448 58.2369 198.2C57.7729 197.432 56.9409 196.968 55.8529 196.968C54.9089 196.968 54.1409 197.304 53.5809 197.88V197.144H52.0129V205H53.6929V200.328C53.6929 199.24 54.3969 198.504 55.4209 198.504C56.4289 198.504 57.0689 199.24 57.0689 200.328V205H58.7489V200.248C58.7489 199.24 59.4529 198.504 60.4769 198.504C61.4849 198.504 62.1089 199.224 62.1089 200.328V205H63.8049V200.088ZM73.2099 201.624C73.2899 201.256 73.3379 200.904 73.3379 200.568C73.3379 198.52 71.7859 196.968 69.7059 196.968C67.4819 196.92 65.5939 198.824 65.6419 201.08C65.6419 203.4 67.4659 205.176 69.8659 205.176C71.0659 205.176 72.1059 204.76 73.0019 203.912L72.2019 202.76C71.4979 203.384 70.7299 203.688 69.9139 203.688C68.5699 203.688 67.5619 202.904 67.3539 201.624H73.2099ZM67.3859 200.312C67.6419 199.144 68.5379 198.392 69.6419 198.392C70.7459 198.392 71.6419 199.112 71.6579 200.312H67.3859ZM82.1269 200.088C82.1269 198.216 81.0229 196.968 79.1829 196.968C78.2069 196.968 77.4229 197.288 76.8309 197.912V197.144H75.2629V205H76.9429V200.312C76.9429 199.24 77.6949 198.488 78.7349 198.488C79.7589 198.488 80.4469 199.224 80.4469 200.312V205H82.1269V200.088ZM89.138 203.576C88.674 203.624 88.338 203.656 88.098 203.656C87.074 203.656 86.546 203.304 86.546 202.296V198.6H88.882V197.144H86.546V195.08H84.85V197.144H83.57V198.6H84.85V202.44C84.85 204.28 85.938 205.176 87.746 205.176C88.146 205.176 88.61 205.112 89.138 205V203.576ZM90.1888 201.064C90.1408 203.288 92.0768 205.224 94.3328 205.176C96.6208 205.224 98.5568 203.288 98.5087 201.064C98.5568 198.84 96.6208 196.92 94.3328 196.968C92.0768 196.936 90.1408 198.808 90.1888 201.064ZM96.7808 201.08C96.7808 202.504 95.7248 203.624 94.3328 203.624C92.9568 203.624 91.9008 202.536 91.9008 201.08C91.9008 199.624 92.9568 198.504 94.3488 198.504C95.7088 198.504 96.7808 199.624 96.7808 201.08ZM99.6988 203.656C100.403 204.568 101.523 205.176 102.867 205.176C103.699 205.176 104.387 204.968 104.947 204.552C105.507 204.12 105.779 203.528 105.779 202.776C105.779 201.672 105.123 201.032 103.635 200.408L102.883 200.104C102.115 199.784 101.843 199.576 101.843 199.176C101.843 198.68 102.259 198.424 102.915 198.424C103.603 198.424 104.259 198.712 104.755 199.224L105.667 198.184C104.979 197.368 104.083 196.968 102.947 196.968C101.347 196.968 100.179 197.832 100.179 199.24C100.179 200.344 100.835 200.952 102.227 201.528L103.027 201.864C103.795 202.184 104.131 202.376 104.131 202.84C104.131 203.416 103.587 203.72 102.867 203.72C102.035 203.72 101.347 203.32 100.659 202.6L99.6988 203.656Z" fill="white"/>
<line x1="103.821" y1="97.3159" x2="2.43826" y2="97.3159" stroke="white" stroke-opacity="0.25" stroke-width="0.792051" stroke-miterlimit="4.14008" stroke-linecap="round" stroke-dasharray="2.77 2.77"/>
<path d="M445.987 97.3164L340.804 97.3164" stroke="white" stroke-opacity="0.25" stroke-width="0.792051" stroke-miterlimit="4.14008" stroke-linecap="round" stroke-dasharray="2.77 2.77"/>
<path d="M1.14601 58.72C1.09801 61.744 3.62601 64.224 6.71401 64.176C8.84201 64.176 10.698 63.072 11.642 61.392V58.416H6.69801V59.92H9.94601V61.056C9.29001 62.064 8.18601 62.656 6.79401 62.656C4.52201 62.656 2.90601 60.96 2.90601 58.704C2.90601 56.48 4.47401 54.816 6.69801 54.816C8.01001 54.816 9.06601 55.376 9.85001 56.48L11.082 55.472C10.074 54.064 8.55401 53.264 6.71401 53.264C3.65801 53.216 1.08201 55.696 1.14601 58.72ZM13.5315 60.704C13.5315 62.816 15.0035 64.176 16.9715 64.176C18.8915 64.176 20.3795 62.816 20.3795 60.704V56.144H18.6995V60.832C18.6995 61.92 17.9475 62.624 16.9715 62.624C15.9475 62.624 15.1955 61.92 15.1955 60.832V56.144H13.5315V60.704ZM28.9765 59.248C28.9765 57.136 27.6965 55.968 25.7605 55.968C24.4005 55.968 23.2325 56.512 22.4485 57.648L23.4245 58.64C24.0805 57.856 24.7205 57.472 25.6005 57.472C26.6725 57.472 27.2805 58.064 27.2805 59.152V59.664H25.0565C23.2805 59.664 22.1605 60.544 22.1605 61.904C22.1605 63.264 23.2485 64.176 24.8965 64.176C25.9685 64.176 26.8325 63.808 27.4085 63.12V64H28.9765V59.248ZM27.2805 61.024C27.2805 62.096 26.3845 62.88 25.2485 62.88C24.4325 62.88 23.8725 62.496 23.8725 61.84C23.8725 61.2 24.3685 60.88 25.2645 60.88H27.2805V61.024ZM35.8106 56.144C35.6186 56.096 35.4106 56.064 35.1706 56.064C34.2746 56.064 33.4426 56.464 32.8826 57.168V56.144H31.3146V64H32.9946V59.808C32.9946 58.416 33.9706 57.632 35.2986 57.632H35.8106V56.144ZM43.1264 52V57.104C42.5344 56.384 41.5904 55.968 40.5024 55.968C38.3264 55.92 36.6144 57.792 36.6624 60.08C36.6624 62.4 38.2944 64.176 40.5024 64.176C41.6704 64.176 42.6784 63.696 43.2544 62.88V64H44.8224V52H43.1264ZM43.1584 60.08C43.1584 61.792 42.0224 62.64 40.7904 62.64C39.3984 62.64 38.3744 61.568 38.3744 60.064C38.3744 58.56 39.4464 57.504 40.7904 57.504C42.0064 57.504 43.1584 58.384 43.1584 60.08ZM54.3241 60.624C54.4041 60.256 54.4521 59.904 54.4521 59.568C54.4521 57.52 52.9001 55.968 50.8201 55.968C48.5961 55.92 46.7081 57.824 46.7561 60.08C46.7561 62.4 48.5801 64.176 50.9801 64.176C52.1801 64.176 53.2201 63.76 54.1161 62.912L53.3161 61.76C52.6121 62.384 51.8441 62.688 51.0281 62.688C49.6841 62.688 48.6761 61.904 48.4681 60.624H54.3241ZM48.5001 59.312C48.7561 58.144 49.6521 57.392 50.7561 57.392C51.8601 57.392 52.7561 58.112 52.7721 59.312H48.5001ZM66.8295 52V57.104C66.2375 56.384 65.2935 55.968 64.2055 55.968C62.0295 55.92 60.3175 57.792 60.3655 60.08C60.3655 62.4 61.9975 64.176 64.2055 64.176C65.3735 64.176 66.3815 63.696 66.9575 62.88V64H68.5255V52H66.8295ZM66.8615 60.08C66.8615 61.792 65.7255 62.64 64.4935 62.64C63.1015 62.64 62.0775 61.568 62.0775 60.064C62.0775 58.56 63.1495 57.504 64.4935 57.504C65.7095 57.504 66.8615 58.384 66.8615 60.08ZM78.0273 60.624C78.1073 60.256 78.1553 59.904 78.1553 59.568C78.1553 57.52 76.6033 55.968 74.5233 55.968C72.2993 55.92 70.4113 57.824 70.4593 60.08C70.4593 62.4 72.2833 64.176 74.6833 64.176C75.8833 64.176 76.9233 63.76 77.8193 62.912L77.0193 61.76C76.3153 62.384 75.5473 62.688 74.7313 62.688C73.3873 62.688 72.3793 61.904 72.1713 60.624H78.0273ZM72.2033 59.312C72.4593 58.144 73.3553 57.392 74.4593 57.392C75.5633 57.392 76.4593 58.112 76.4753 59.312H72.2033ZM1.14601 77.72C1.08201 80.744 3.69001 83.224 6.69801 83.176C8.66601 83.176 10.33 82.232 11.226 80.744L9.94601 79.8C9.19401 80.968 8.10601 81.624 6.71401 81.624C4.55401 81.624 2.90601 79.96 2.90601 77.72C2.90601 75.48 4.55401 73.816 6.71401 73.816C8.10601 73.816 9.19401 74.472 9.94601 75.64L11.226 74.696C10.314 73.208 8.63401 72.264 6.69801 72.264C3.69001 72.216 1.08201 74.696 1.14601 77.72ZM19.3046 78.248C19.3046 76.136 18.0246 74.968 16.0886 74.968C14.7286 74.968 13.5606 75.512 12.7766 76.648L13.7526 77.64C14.4086 76.856 15.0486 76.472 15.9286 76.472C17.0006 76.472 17.6086 77.064 17.6086 78.152V78.664H15.3846C13.6086 78.664 12.4886 79.544 12.4886 80.904C12.4886 82.264 13.5766 83.176 15.2246 83.176C16.2966 83.176 17.1606 82.808 17.7366 82.12V83H19.3046V78.248ZM17.6086 80.024C17.6086 81.096 16.7126 81.88 15.5766 81.88C14.7606 81.88 14.2006 81.496 14.2006 80.84C14.2006 80.2 14.6966 79.88 15.5926 79.88H17.6086V80.024ZM21.6428 83H23.3228V75.144H21.6428V83ZM21.3388 72.216C21.3388 72.84 21.8508 73.32 22.4908 73.32C23.1148 73.32 23.6268 72.84 23.6268 72.216C23.6268 71.592 23.1148 71.096 22.4908 71.096C21.8508 71.096 21.3388 71.592 21.3388 72.216ZM32.5201 83L29.5921 78.936L32.3121 75.144H30.3921L28.6481 77.736L26.8881 75.144H24.9681L27.6721 78.92L24.7601 83H26.6801L28.6321 80.12L30.6001 83H32.5201ZM40.0546 78.248C40.0546 76.136 38.7746 74.968 36.8386 74.968C35.4786 74.968 34.3106 75.512 33.5266 76.648L34.5026 77.64C35.1586 76.856 35.7986 76.472 36.6786 76.472C37.7506 76.472 38.3586 77.064 38.3586 78.152V78.664H36.1346C34.3586 78.664 33.2386 79.544 33.2386 80.904C33.2386 82.264 34.3266 83.176 35.9746 83.176C37.0466 83.176 37.9106 82.808 38.4866 82.12V83H40.0546V78.248ZM38.3586 80.024C38.3586 81.096 37.4626 81.88 36.3266 81.88C35.5106 81.88 34.9506 81.496 34.9506 80.84C34.9506 80.2 35.4466 79.88 36.3426 79.88H38.3586V80.024ZM41.6568 81.656C42.3608 82.568 43.4808 83.176 44.8248 83.176C45.6568 83.176 46.3448 82.968 46.9048 82.552C47.4648 82.12 47.7368 81.528 47.7368 80.776C47.7368 79.672 47.0808 79.032 45.5928 78.408L44.8408 78.104C44.0728 77.784 43.8008 77.576 43.8008 77.176C43.8008 76.68 44.2168 76.424 44.8728 76.424C45.5608 76.424 46.2168 76.712 46.7128 77.224L47.6248 76.184C46.9368 75.368 46.0408 74.968 44.9048 74.968C43.3048 74.968 42.1368 75.832 42.1368 77.24C42.1368 78.344 42.7928 78.952 44.1848 79.528L44.9848 79.864C45.7528 80.184 46.0888 80.376 46.0888 80.84C46.0888 81.416 45.5448 81.72 44.8248 81.72C43.9928 81.72 43.3048 81.32 42.6168 80.6L41.6568 81.656Z" fill="white"/>
<path d="M10.416 139H12.24L7.584 128.264H7.008L2.352 139H4.16L4.912 137.24H9.664L10.416 139ZM9.056 135.784H5.52L7.296 131.416L9.056 135.784ZM20.6737 134.088C20.6737 132.216 19.5698 130.968 17.7298 130.968C16.7538 130.968 15.9698 131.288 15.3778 131.912V131.144H13.8098V139H15.4898V134.312C15.4898 133.24 16.2418 132.488 17.2818 132.488C18.3058 132.488 18.9938 133.224 18.9938 134.312V139H20.6737V134.088ZM29.2529 134.248C29.2529 132.136 27.9729 130.968 26.0369 130.968C24.6769 130.968 23.5089 131.512 22.7249 132.648L23.7009 133.64C24.3569 132.856 24.9969 132.472 25.8769 132.472C26.9489 132.472 27.5569 133.064 27.5569 134.152V134.664H25.3329C23.5569 134.664 22.4369 135.544 22.4369 136.904C22.4369 138.264 23.5249 139.176 25.1729 139.176C26.2449 139.176 27.1089 138.808 27.6849 138.12V139H29.2529V134.248ZM27.5569 136.024C27.5569 137.096 26.6609 137.88 25.5249 137.88C24.7089 137.88 24.1489 137.496 24.1489 136.84C24.1489 136.2 24.6449 135.88 25.5409 135.88H27.5569V136.024ZM31.591 139H33.271V127H31.591V139ZM41.1724 131.144L38.8524 136.856L36.5964 131.144H34.7884L37.9244 138.648L37.6044 139.384C37.2204 140.264 36.6764 140.536 35.8924 140.536C35.7644 140.536 35.4604 140.52 34.9644 140.472V141.896C35.3964 142.008 35.8284 142.056 36.2604 142.056C37.6044 142.056 38.4844 141.384 39.1404 139.896L42.9644 131.144H41.1724ZM49.1536 137.576C48.6896 137.624 48.3536 137.656 48.1136 137.656C47.0896 137.656 46.5616 137.304 46.5616 136.296V132.6H48.8976V131.144H46.5616V129.08H44.8656V131.144H43.5856V132.6H44.8656V136.44C44.8656 138.28 45.9536 139.176 47.7616 139.176C48.1616 139.176 48.6256 139.112 49.1536 139V137.576ZM50.8566 139H52.5366V131.144H50.8566V139ZM50.5526 128.216C50.5526 128.84 51.0646 129.32 51.7046 129.32C52.3286 129.32 52.8406 128.84 52.8406 128.216C52.8406 127.592 52.3286 127.096 51.7046 127.096C51.0646 127.096 50.5526 127.592 50.5526 128.216ZM54.47 135.064C54.47 137.352 56.31 139.176 58.63 139.176C60.054 139.176 61.238 138.488 61.942 137.352L60.758 136.44C60.182 137.224 59.478 137.624 58.646 137.624C57.238 137.624 56.182 136.504 56.182 135.064C56.182 133.64 57.238 132.52 58.646 132.52C59.494 132.52 60.198 132.92 60.758 133.72L61.942 132.792C61.254 131.656 60.086 130.968 58.63 130.968C56.374 130.936 54.422 132.808 54.47 135.064ZM63.0581 137.656C63.7621 138.568 64.8821 139.176 66.2261 139.176C67.0581 139.176 67.7461 138.968 68.3061 138.552C68.8661 138.12 69.1381 137.528 69.1381 136.776C69.1381 135.672 68.4821 135.032 66.9941 134.408L66.2421 134.104C65.4741 133.784 65.2021 133.576 65.2021 133.176C65.2021 132.68 65.6181 132.424 66.2741 132.424C66.9621 132.424 67.6181 132.712 68.1141 133.224L69.0261 132.184C68.3381 131.368 67.4421 130.968 66.3061 130.968C64.7061 130.968 63.5381 131.832 63.5381 133.24C63.5381 134.344 64.1941 134.952 65.5861 135.528L66.3861 135.864C67.1541 136.184 67.4901 136.376 67.4901 136.84C67.4901 137.416 66.9461 137.72 66.2261 137.72C65.3941 137.72 64.7061 137.32 64.0181 136.6L63.0581 137.656Z" fill="white"/>
<path d="M365.854 64H367.678L363.022 53.264H362.446L357.79 64H359.598L360.35 62.24H365.102L365.854 64ZM364.494 60.784H360.958L362.734 56.416L364.494 60.784ZM368.486 60.064C368.486 62.352 370.326 64.176 372.646 64.176C374.07 64.176 375.254 63.488 375.958 62.352L374.774 61.44C374.198 62.224 373.494 62.624 372.662 62.624C371.254 62.624 370.198 61.504 370.198 60.064C370.198 58.64 371.254 57.52 372.662 57.52C373.51 57.52 374.214 57.92 374.774 58.72L375.958 57.792C375.27 56.656 374.102 55.968 372.646 55.968C370.39 55.936 368.438 57.808 368.486 60.064ZM384.726 60.624C384.806 60.256 384.854 59.904 384.854 59.568C384.854 57.52 383.302 55.968 381.222 55.968C378.998 55.92 377.11 57.824 377.158 60.08C377.158 62.4 378.982 64.176 381.382 64.176C382.582 64.176 383.622 63.76 384.517 62.912L383.718 61.76C383.014 62.384 382.246 62.688 381.43 62.688C380.086 62.688 379.078 61.904 378.87 60.624H384.726ZM378.902 59.312C379.158 58.144 380.054 57.392 381.158 57.392C382.262 57.392 383.158 58.112 383.174 59.312H378.902ZM386.043 62.656C386.747 63.568 387.867 64.176 389.211 64.176C390.043 64.176 390.731 63.968 391.291 63.552C391.851 63.12 392.123 62.528 392.123 61.776C392.123 60.672 391.467 60.032 389.979 59.408L389.227 59.104C388.459 58.784 388.187 58.576 388.187 58.176C388.187 57.68 388.603 57.424 389.259 57.424C389.947 57.424 390.603 57.712 391.099 58.224L392.011 57.184C391.323 56.368 390.427 55.968 389.291 55.968C387.691 55.968 386.523 56.832 386.523 58.24C386.523 59.344 387.179 59.952 388.571 60.528L389.371 60.864C390.139 61.184 390.475 61.376 390.475 61.84C390.475 62.416 389.931 62.72 389.211 62.72C388.379 62.72 387.691 62.32 387.003 61.6L386.043 62.656ZM393.324 62.656C394.028 63.568 395.148 64.176 396.492 64.176C397.324 64.176 398.012 63.968 398.572 63.552C399.132 63.12 399.404 62.528 399.404 61.776C399.404 60.672 398.748 60.032 397.26 59.408L396.508 59.104C395.74 58.784 395.468 58.576 395.468 58.176C395.468 57.68 395.884 57.424 396.54 57.424C397.228 57.424 397.884 57.712 398.38 58.224L399.292 57.184C398.604 56.368 397.708 55.968 396.572 55.968C394.972 55.968 393.804 56.832 393.804 58.24C393.804 59.344 394.46 59.952 395.852 60.528L396.652 60.864C397.42 61.184 397.756 61.376 397.756 61.84C397.756 62.416 397.212 62.72 396.492 62.72C395.66 62.72 394.972 62.32 394.284 61.6L393.324 62.656ZM408.413 60.624C408.493 60.256 408.541 59.904 408.541 59.568C408.541 57.52 406.989 55.968 404.909 55.968C402.685 55.92 400.797 57.824 400.845 60.08C400.845 62.4 402.669 64.176 405.069 64.176C406.269 64.176 407.309 63.76 408.205 62.912L407.405 61.76C406.701 62.384 405.933 62.688 405.117 62.688C403.773 62.688 402.765 61.904 402.557 60.624H408.413ZM402.589 59.312C402.845 58.144 403.741 57.392 404.845 57.392C405.949 57.392 406.845 58.112 406.861 59.312H402.589ZM414.214 62.656C414.918 63.568 416.038 64.176 417.382 64.176C418.214 64.176 418.902 63.968 419.462 63.552C420.022 63.12 420.294 62.528 420.294 61.776C420.294 60.672 419.638 60.032 418.15 59.408L417.398 59.104C416.63 58.784 416.358 58.576 416.358 58.176C416.358 57.68 416.774 57.424 417.43 57.424C418.118 57.424 418.774 57.712 419.27 58.224L420.182 57.184C419.494 56.368 418.598 55.968 417.462 55.968C415.862 55.968 414.694 56.832 414.694 58.24C414.694 59.344 415.35 59.952 416.742 60.528L417.542 60.864C418.31 61.184 418.646 61.376 418.646 61.84C418.646 62.416 418.102 62.72 417.382 62.72C416.55 62.72 415.862 62.32 415.174 61.6L414.214 62.656ZM422.152 60.704C422.152 62.816 423.624 64.176 425.592 64.176C427.512 64.176 429 62.816 429 60.704V56.144H427.32V60.832C427.32 61.92 426.568 62.624 425.592 62.624C424.568 62.624 423.816 61.92 423.816 60.832V56.144H422.152V60.704ZM437.597 59.248C437.597 57.136 436.317 55.968 434.381 55.968C433.021 55.968 431.853 56.512 431.069 57.648L432.045 58.64C432.701 57.856 433.341 57.472 434.221 57.472C435.293 57.472 435.901 58.064 435.901 59.152V59.664H433.677C431.901 59.664 430.781 60.544 430.781 61.904C430.781 63.264 431.869 64.176 433.517 64.176C434.589 64.176 435.453 63.808 436.029 63.12V64H437.597V59.248ZM435.901 61.024C435.901 62.096 435.005 62.88 433.869 62.88C433.053 62.88 432.493 62.496 432.493 61.84C432.493 61.2 432.989 60.88 433.885 60.88H435.901V61.024ZM439.199 62.656C439.903 63.568 441.023 64.176 442.367 64.176C443.199 64.176 443.887 63.968 444.447 63.552C445.007 63.12 445.279 62.528 445.279 61.776C445.279 60.672 444.623 60.032 443.135 59.408L442.383 59.104C441.615 58.784 441.343 58.576 441.343 58.176C441.343 57.68 441.759 57.424 442.415 57.424C443.103 57.424 443.759 57.712 444.255 58.224L445.167 57.184C444.479 56.368 443.583 55.968 442.447 55.968C440.847 55.968 439.679 56.832 439.679 58.24C439.679 59.344 440.335 59.952 441.727 60.528L442.527 60.864C443.295 61.184 443.631 61.376 443.631 61.84C443.631 62.416 443.087 62.72 442.367 62.72C441.535 62.72 440.847 62.32 440.159 61.6L439.199 62.656ZM410.003 72.264L405.571 78.168L401.139 72.264H400.547V83H402.243V76.36L405.283 80.344H405.859L408.883 76.376V83H410.579V72.264H410.003ZM413.044 83H414.724V75.144H413.044V83ZM413.252 73.912H414.5L416.084 70.824V70.52H414.036L413.252 73.912ZM423.122 71V76.104C422.53 75.384 421.586 74.968 420.498 74.968C418.322 74.92 416.61 76.792 416.658 79.08C416.658 81.4 418.289 83.176 420.498 83.176C421.666 83.176 422.674 82.696 423.25 81.88V83H424.818V71H423.122ZM423.154 79.08C423.154 80.792 422.018 81.64 420.786 81.64C419.394 81.64 418.37 80.568 418.37 79.064C418.37 77.56 419.442 76.504 420.786 76.504C422.002 76.504 423.154 77.384 423.154 79.08ZM427.247 83H428.927V75.144H427.247V83ZM426.943 72.216C426.943 72.84 427.455 73.32 428.095 73.32C428.719 73.32 429.231 72.84 429.231 72.216C429.231 71.592 428.719 71.096 428.095 71.096C427.455 71.096 426.943 71.592 426.943 72.216ZM437.597 78.248C437.597 76.136 436.317 74.968 434.381 74.968C433.021 74.968 431.853 75.512 431.069 76.648L432.045 77.64C432.701 76.856 433.341 76.472 434.221 76.472C435.293 76.472 435.901 77.064 435.901 78.152V78.664H433.677C431.901 78.664 430.781 79.544 430.781 80.904C430.781 82.264 431.869 83.176 433.517 83.176C434.589 83.176 435.453 82.808 436.029 82.12V83H437.597V78.248ZM435.901 80.024C435.901 81.096 435.005 81.88 433.869 81.88C433.053 81.88 432.493 81.496 432.493 80.84C432.493 80.2 432.989 79.88 433.885 79.88H435.901V80.024ZM439.199 81.656C439.903 82.568 441.023 83.176 442.367 83.176C443.199 83.176 443.887 82.968 444.447 82.552C445.007 82.12 445.279 81.528 445.279 80.776C445.279 79.672 444.623 79.032 443.135 78.408L442.383 78.104C441.615 77.784 441.343 77.576 441.343 77.176C441.343 76.68 441.759 76.424 442.415 76.424C443.103 76.424 443.759 76.712 444.255 77.224L445.167 76.184C444.479 75.368 443.583 74.968 442.447 74.968C440.847 74.968 439.679 75.832 439.679 77.24C439.679 78.344 440.335 78.952 441.727 79.528L442.527 79.864C443.295 80.184 443.631 80.376 443.631 80.84C443.631 81.416 443.087 81.72 442.367 81.72C441.535 81.72 440.847 81.32 440.159 80.6L439.199 81.656Z" fill="white"/>
<path d="M387.384 3.44L384.744 10.576L381.704 3.264H381.112L378.088 10.576L375.448 3.44H373.576L377.688 14.176H378.264L381.416 6.688L384.568 14.176H385.128L389.24 3.44H387.384ZM389.564 10.064C389.516 12.288 391.452 14.224 393.708 14.176C395.996 14.224 397.932 12.288 397.884 10.064C397.932 7.84 395.996 5.92 393.708 5.968C391.452 5.936 389.516 7.808 389.564 10.064ZM396.156 10.08C396.156 11.504 395.1 12.624 393.708 12.624C392.332 12.624 391.276 11.536 391.276 10.08C391.276 8.624 392.332 7.504 393.724 7.504C395.084 7.504 396.156 8.624 396.156 10.08ZM404.306 6.144C404.114 6.096 403.906 6.064 403.666 6.064C402.77 6.064 401.938 6.464 401.378 7.168V6.144H399.81V14H401.49V9.808C401.49 8.416 402.466 7.632 403.794 7.632H404.306V6.144ZM405.81 14H407.49V2H405.81V14ZM409.522 9.6L412.69 6.144H410.61L407.538 9.584L410.946 14H412.962L409.522 9.6ZM416.309 4.704C416.309 3.696 416.821 3.344 417.845 3.344C418.037 3.344 418.261 3.36 418.517 3.392V1.968C418.213 1.872 417.861 1.824 417.429 1.824C415.701 1.824 414.629 2.72 414.629 4.56V6.144H413.509V7.6H414.629V14H416.309V7.6H418.165V6.144H416.309V4.704ZM419.733 14H421.413V2H419.733V14ZM423.361 10.064C423.313 12.288 425.249 14.224 427.505 14.176C429.793 14.224 431.729 12.288 431.681 10.064C431.729 7.84 429.793 5.92 427.505 5.968C425.249 5.936 423.313 7.808 423.361 10.064ZM429.953 10.08C429.953 11.504 428.897 12.624 427.505 12.624C426.129 12.624 425.073 11.536 425.073 10.08C425.073 8.624 426.129 7.504 427.521 7.504C428.881 7.504 429.953 8.624 429.953 10.08ZM443.646 6.144L441.614 11.216L439.198 5.968H438.622L436.238 11.28L434.174 6.144H432.382L435.87 14.176H436.446L438.91 8.944L441.374 14.176H441.95L445.438 6.144H443.646Z" fill="white"/>
<path d="M365.447 186H367.271L362.615 175.264H362.039L357.383 186H359.191L359.943 184.24H364.695L365.447 186ZM364.087 182.784H360.551L362.327 178.416L364.087 182.784ZM368.105 184.656C368.809 185.568 369.929 186.176 371.273 186.176C372.105 186.176 372.793 185.968 373.353 185.552C373.913 185.12 374.185 184.528 374.185 183.776C374.185 182.672 373.529 182.032 372.041 181.408L371.289 181.104C370.521 180.784 370.249 180.576 370.249 180.176C370.249 179.68 370.665 179.424 371.321 179.424C372.009 179.424 372.665 179.712 373.161 180.224L374.073 179.184C373.385 178.368 372.489 177.968 371.353 177.968C369.753 177.968 368.585 178.832 368.585 180.24C368.585 181.344 369.241 181.952 370.633 182.528L371.433 182.864C372.201 183.184 372.537 183.376 372.537 183.84C372.537 184.416 371.993 184.72 371.273 184.72C370.441 184.72 369.753 184.32 369.065 183.6L368.105 184.656ZM375.386 184.656C376.09 185.568 377.21 186.176 378.554 186.176C379.386 186.176 380.074 185.968 380.634 185.552C381.194 185.12 381.466 184.528 381.466 183.776C381.466 182.672 380.81 182.032 379.322 181.408L378.57 181.104C377.802 180.784 377.53 180.576 377.53 180.176C377.53 179.68 377.946 179.424 378.602 179.424C379.29 179.424 379.946 179.712 380.442 180.224L381.354 179.184C380.666 178.368 379.77 177.968 378.634 177.968C377.034 177.968 375.866 178.832 375.866 180.24C375.866 181.344 376.522 181.952 377.914 182.528L378.714 182.864C379.482 183.184 379.818 183.376 379.818 183.84C379.818 184.416 379.274 184.72 378.554 184.72C377.722 184.72 377.034 184.32 376.346 183.6L375.386 184.656ZM383.404 186H385.084V178.144H383.404V186ZM383.1 175.216C383.1 175.84 383.612 176.32 384.252 176.32C384.876 176.32 385.388 175.84 385.388 175.216C385.388 174.592 384.876 174.096 384.252 174.096C383.612 174.096 383.1 174.592 383.1 175.216ZM394.377 181.088C394.377 179.216 393.273 177.968 391.433 177.968C390.457 177.968 389.673 178.288 389.081 178.912V178.144H387.513V186H389.193V181.312C389.193 180.24 389.945 179.488 390.985 179.488C392.009 179.488 392.697 180.224 392.697 181.312V186H394.377V181.088ZM402.956 181.248C402.956 179.136 401.676 177.968 399.74 177.968C398.38 177.968 397.212 178.512 396.428 179.648L397.404 180.64C398.06 179.856 398.7 179.472 399.58 179.472C400.652 179.472 401.26 180.064 401.26 181.152V181.664H399.036C397.26 181.664 396.14 182.544 396.14 183.904C396.14 185.264 397.228 186.176 398.876 186.176C399.948 186.176 400.812 185.808 401.388 185.12V186H402.956V181.248ZM401.26 183.024C401.26 184.096 400.364 184.88 399.228 184.88C398.412 184.88 397.852 184.496 397.852 183.84C397.852 183.2 398.348 182.88 399.244 182.88H401.26V183.024ZM409.966 184.576C409.502 184.624 409.166 184.656 408.926 184.656C407.902 184.656 407.374 184.304 407.374 183.296V179.6H409.71V178.144H407.374V176.08H405.678V178.144H404.398V179.6H405.678V183.44C405.678 185.28 406.766 186.176 408.574 186.176C408.974 186.176 409.438 186.112 409.966 186V184.576ZM411.589 182.704C411.589 184.816 413.061 186.176 415.029 186.176C416.949 186.176 418.437 184.816 418.437 182.704V178.144H416.757V182.832C416.757 183.92 416.005 184.624 415.029 184.624C414.005 184.624 413.253 183.92 413.253 182.832V178.144H411.589V182.704ZM425.29 178.144C425.098 178.096 424.89 178.064 424.65 178.064C423.754 178.064 422.922 178.464 422.362 179.168V178.144H420.794V186H422.474V181.808C422.474 180.416 423.45 179.632 424.778 179.632H425.29V178.144ZM432.878 181.248C432.878 179.136 431.598 177.968 429.662 177.968C428.302 177.968 427.134 178.512 426.35 179.648L427.326 180.64C427.982 179.856 428.622 179.472 429.502 179.472C430.574 179.472 431.182 180.064 431.182 181.152V181.664H428.958C427.182 181.664 426.062 182.544 426.062 183.904C426.062 185.264 427.15 186.176 428.798 186.176C429.87 186.176 430.734 185.808 431.31 185.12V186H432.878V181.248ZM431.182 183.024C431.182 184.096 430.286 184.88 429.15 184.88C428.334 184.88 427.774 184.496 427.774 183.84C427.774 183.2 428.27 182.88 429.166 182.88H431.182V183.024ZM386.828 206H390.14C393.58 206 395.884 203.776 395.884 200.704C395.884 197.584 393.596 195.44 390.14 195.44H386.828V206ZM388.524 204.48V196.976H390.124C392.588 196.976 394.14 198.464 394.14 200.704C394.14 202.912 392.572 204.48 390.124 204.48H388.524ZM397.794 206H399.474V198.144H397.794V206ZM397.49 195.216C397.49 195.84 398.002 196.32 398.642 196.32C399.266 196.32 399.778 195.84 399.778 195.216C399.778 194.592 399.266 194.096 398.642 194.096C398.002 194.096 397.49 194.592 397.49 195.216ZM408.064 198.144V199.264C407.488 198.448 406.48 197.968 405.28 197.968C403.104 197.968 401.456 199.616 401.456 201.904C401.456 204.192 403.088 205.84 405.28 205.84C406.368 205.84 407.344 205.44 407.936 204.72V205.28C407.936 206.752 407.008 207.52 405.584 207.52C404.512 207.52 403.712 207.104 402.832 206.4L401.904 207.568C402.848 208.448 404.128 209.056 405.68 209.056C408.064 209.056 409.616 207.664 409.616 205.184V198.144H408.064ZM407.952 201.888C407.952 202.688 407.712 203.296 407.248 203.728C406.784 204.16 406.24 204.368 405.584 204.368C404.896 204.368 404.336 204.144 403.872 203.696C403.408 203.232 403.184 202.64 403.184 201.904C403.184 201.184 403.408 200.592 403.872 200.144C404.336 199.696 404.896 199.472 405.584 199.472C406.88 199.472 407.952 200.288 407.952 201.888ZM412.044 206H413.724V198.144H412.044V206ZM411.74 195.216C411.74 195.84 412.252 196.32 412.892 196.32C413.516 196.32 414.028 195.84 414.028 195.216C414.028 194.592 413.516 194.096 412.892 194.096C412.252 194.096 411.74 194.592 411.74 195.216ZM420.826 204.576C420.362 204.624 420.026 204.656 419.786 204.656C418.762 204.656 418.234 204.304 418.234 203.296V199.6H420.57V198.144H418.234V196.08H416.538V198.144H415.258V199.6H416.538V203.44C416.538 205.28 417.626 206.176 419.434 206.176C419.834 206.176 420.298 206.112 420.826 206V204.576ZM428.769 201.248C428.769 199.136 427.489 197.968 425.553 197.968C424.193 197.968 423.025 198.512 422.241 199.648L423.217 200.64C423.873 199.856 424.513 199.472 425.393 199.472C426.465 199.472 427.073 200.064 427.073 201.152V201.664H424.849C423.073 201.664 421.953 202.544 421.953 203.904C421.953 205.264 423.041 206.176 424.689 206.176C425.761 206.176 426.625 205.808 427.201 205.12V206H428.769V201.248ZM427.073 203.024C427.073 204.096 426.177 204.88 425.041 204.88C424.225 204.88 423.664 204.496 423.664 203.84C423.664 203.2 424.161 202.88 425.057 202.88H427.073V203.024ZM431.107 206H432.787V194H431.107V206Z" fill="white"/>
<path d="M222.879 157.507C245.138 157.507 263.183 139.463 263.183 117.204C263.183 94.9445 245.138 76.8999 222.879 76.8999C200.62 76.8999 182.575 94.9445 182.575 117.204C182.575 139.463 200.62 157.507 222.879 157.507Z" fill="url(#paint0_linear_1113_69)"/>
<path d="M226.964 103.124H230.454L218.816 131.081H215.241L226.964 103.124Z" fill="white"/>
<path d="M221.71 103.124H225.379L212.778 133.618H229.751L229.17 136.767H207.892L221.71 103.124Z" fill="white"/>
<path d="M215.515 100.985L216.381 98.1333H237.671L223.943 131.322H220.377L233.063 100.985H215.515Z" fill="white"/>
<path fill-rule="evenodd" clip-rule="evenodd" d="M305.583 146.336C304.493 150.062 301.05 152.784 296.971 152.784C292.017 152.784 288 148.767 288 143.812C288 139.334 291.281 135.623 295.569 134.95V146.336H305.583Z" fill="url(#paint1_linear_1113_69)"/>
<path opacity="0.5" fill-rule="evenodd" clip-rule="evenodd" d="M297.812 144.093H306.714C306.759 143.726 306.783 143.351 306.783 142.971C306.783 138.017 302.766 134 297.812 134V144.093Z" fill="url(#paint2_linear_1113_69)"/>
<path fill-rule="evenodd" clip-rule="evenodd" d="M142.579 85.8018H157.442C158.468 85.8018 159.3 86.6336 159.3 87.6597V98.8072C159.3 99.8333 158.468 100.665 157.442 100.665H142.579C141.553 100.665 140.721 99.8333 140.721 98.8072V87.6597C140.721 86.6336 141.553 85.8018 142.579 85.8018Z" fill="url(#paint3_linear_1113_69)"/>
<path fill-rule="evenodd" clip-rule="evenodd" d="M156.048 92.3047H143.972C143.202 92.3047 142.578 92.9285 142.578 93.6981V94.1626H146.838C147.084 94.1626 147.321 94.2604 147.495 94.4347L148.424 95.3636C148.845 95.7842 149.415 96.0205 150.01 96.0205C150.605 96.0205 151.175 95.7842 151.596 95.3636L152.525 94.4347C152.699 94.2604 152.935 94.1626 153.181 94.1626H157.441V93.6981C157.441 92.9285 156.818 92.3047 156.048 92.3047Z" fill="#005786"/>
<path fill-rule="evenodd" clip-rule="evenodd" d="M143.972 87.6597C143.202 87.6597 142.578 88.2835 142.578 89.0531V89.5176H157.441V89.0531C157.441 88.2835 156.818 87.6597 156.048 87.6597H143.972Z" fill="#005786"/>
<path d="M144.418 150.581H158.369C158.883 150.581 159.299 150.998 159.299 151.511C159.299 152.025 158.883 152.441 158.369 152.441H143.488C142.974 152.441 142.558 152.025 142.558 151.511V136.63C142.558 136.116 142.974 135.7 143.488 135.7C144.001 135.7 144.418 136.116 144.418 136.63V150.581Z" fill="url(#paint4_linear_1113_69)"/>
<path opacity="0.5" d="M147.886 146.567C147.535 146.942 146.946 146.961 146.571 146.609C146.197 146.258 146.178 145.669 146.529 145.295L150.017 141.574C150.357 141.212 150.921 141.181 151.299 141.503L154.052 143.852L157.639 139.309C157.957 138.906 158.542 138.837 158.945 139.155C159.348 139.474 159.417 140.058 159.099 140.462L154.913 145.763C154.586 146.177 153.981 146.237 153.579 145.894L150.767 143.494L147.886 146.567Z" fill="url(#paint5_linear_1113_69)"/>
<path d="M249.676 34.8418C252.155 34.8418 254.634 34.8418 257.113 34.8418C257.113 36.3407 257.112 37.84 257.113 39.3389C257.113 40.2512 257.7 40.8383 258.612 40.8388C260.111 40.8394 261.611 40.8388 263.109 40.8388C263.186 40.8388 263.263 40.8388 263.35 40.8388C263.35 40.9067 263.35 40.9457 263.35 40.9852C263.35 45.0229 263.354 49.0606 263.348 53.0978C263.347 54.3664 262.372 55.3114 261.084 55.3119C257.4 55.314 253.716 55.3135 250.031 55.3103C249.84 55.3103 249.643 55.2937 249.457 55.2499C248.426 55.0048 247.758 54.1362 247.757 53.0465C247.756 49.2428 247.757 45.4379 247.757 41.6337C247.757 40.1145 247.754 38.5953 247.758 37.0762C247.76 36.3033 248.067 35.6687 248.712 35.244C248.998 35.056 249.353 34.9727 249.676 34.8418ZM255.421 44.0379C256.866 44.0379 258.311 44.0363 259.756 44.0395C260.044 44.04 260.265 43.9364 260.382 43.6677C260.562 43.2554 260.254 42.8393 259.77 42.8387C257.007 42.8376 254.244 42.8382 251.481 42.8382C251.327 42.8382 251.174 42.8323 251.021 42.8403C250.765 42.8531 250.579 42.9803 250.481 43.2174C250.313 43.625 250.616 44.0363 251.087 44.0368C252.531 44.0395 253.976 44.0379 255.421 44.0379ZM255.414 47.237C255.514 47.237 255.614 47.237 255.713 47.237C257.065 47.237 258.417 47.2359 259.768 47.2381C260.049 47.2386 260.263 47.1318 260.379 46.8738C260.564 46.4635 260.258 46.0383 259.778 46.0378C257.507 46.0362 255.237 46.0373 252.966 46.0373C252.334 46.0373 251.701 46.0373 251.068 46.0373C250.812 46.0373 250.617 46.1436 250.501 46.3733C250.293 46.7851 250.592 47.2343 251.078 47.2354C252.524 47.2386 253.969 47.237 255.414 47.237ZM252.475 50.4355C252.948 50.4355 253.421 50.4377 253.894 50.435C254.266 50.4329 254.537 50.1845 254.544 49.8448C254.551 49.5013 254.272 49.2374 253.892 49.2369C252.96 49.2348 252.027 49.2353 251.094 49.2369C250.707 49.2374 250.436 49.4879 250.436 49.8368C250.437 50.1861 250.708 50.4339 251.096 50.4355C251.556 50.4372 252.015 50.4355 252.475 50.4355Z" fill="url(#paint6_linear_1113_69)"/>
<path d="M258.364 35.1011C258.52 35.2218 258.687 35.3313 258.829 35.4654C260.095 36.6566 261.358 37.8504 262.617 39.0496C262.787 39.212 262.927 39.4064 263.114 39.6243C262.998 39.6318 262.943 39.6388 262.887 39.6388C261.468 39.6393 260.05 39.6393 258.631 39.6393C258.366 39.6393 258.314 39.5886 258.314 39.3268C258.313 37.9813 258.314 36.6363 258.314 35.2907C258.314 35.2389 258.314 35.1865 258.314 35.1347C258.331 35.1235 258.347 35.1123 258.364 35.1011Z" fill="url(#paint7_linear_1113_69)"/>
<path d="M262.571 198.175C258.924 198.175 255.277 198.175 251.63 198.175C251.577 198.159 251.523 198.141 251.469 198.126C250.704 197.923 250.217 197.44 250.01 196.676C249.99 196.602 249.97 196.527 249.95 196.453C249.95 190.251 249.95 184.05 249.95 177.848C249.961 177.83 249.977 177.813 249.981 177.793C250.207 176.711 250.924 176.126 252.029 176.126C255.417 176.125 258.805 176.124 262.193 176.126C263.384 176.127 264.21 176.95 264.213 178.141C264.216 179.87 264.216 181.6 264.208 183.329C264.208 183.435 264.154 183.566 264.079 183.643C263.595 184.143 263.1 184.632 262.607 185.123C261.654 186.071 260.843 187.126 260.216 188.314C260.024 188.678 259.856 189.068 259.767 189.465C259.703 189.749 259.789 190.066 259.808 190.38C259.495 190.38 259.158 190.387 258.822 190.375C258.734 190.371 258.628 190.327 258.564 190.266C258.232 189.949 257.914 189.616 257.585 189.297C257.297 189.017 256.934 189.019 256.642 189.289C256.593 189.334 256.543 189.377 256.46 189.449C256.46 189.095 256.458 188.788 256.46 188.481C256.463 188.185 256.337 187.965 256.065 187.849C255.791 187.732 255.545 187.802 255.337 188.01C254.489 188.857 253.64 189.703 252.796 190.554C252.52 190.832 252.518 191.219 252.774 191.479C253.035 191.743 253.429 191.737 253.716 191.456C254.115 191.063 254.51 190.666 254.904 190.269C254.977 190.195 255.041 190.111 255.109 190.031C255.129 190.042 255.148 190.054 255.168 190.065C255.168 190.348 255.172 190.631 255.167 190.915C255.16 191.229 255.264 191.48 255.561 191.617C255.831 191.742 256.088 191.669 256.353 191.404C256.601 191.157 256.847 190.907 257.113 190.639C257.386 190.917 257.643 191.175 257.897 191.437C258.056 191.6 258.244 191.676 258.475 191.675C259.508 191.671 260.542 191.692 261.575 191.662C261.909 191.653 262.263 191.565 262.567 191.424C263.053 191.2 263.505 190.901 263.971 190.633C264.042 190.592 264.11 190.546 264.197 190.492C264.205 190.55 264.212 190.577 264.212 190.604C264.212 192.52 264.222 194.436 264.202 196.352C264.196 197.013 263.86 197.532 263.296 197.875C263.075 198.009 262.814 198.077 262.571 198.175ZM255.813 183.92C256.652 183.92 257.491 183.921 258.33 183.92C258.755 183.919 259.039 183.663 259.044 183.283C259.048 182.893 258.762 182.629 258.327 182.629C256.657 182.627 254.986 182.627 253.316 182.629C252.885 182.629 252.584 182.898 252.585 183.275C252.586 183.653 252.887 183.919 253.319 183.92C254.15 183.921 254.982 183.92 255.813 183.92ZM255.82 185.212C254.981 185.212 254.143 185.211 253.304 185.213C252.887 185.213 252.591 185.478 252.585 185.85C252.579 186.227 252.881 186.503 253.309 186.504C254.979 186.505 256.65 186.505 258.32 186.504C258.759 186.504 259.045 186.246 259.044 185.856C259.042 185.468 258.756 185.213 258.315 185.212C257.483 185.212 256.652 185.212 255.82 185.212ZM257.111 180.002C257.52 180.002 257.927 180.003 258.336 180.001C258.757 179.999 259.041 179.739 259.043 179.359C259.045 178.977 258.761 178.711 258.343 178.71C257.519 178.708 256.695 178.708 255.871 178.71C255.462 178.711 255.164 178.992 255.169 179.362C255.174 179.727 255.466 179.998 255.864 180C256.28 180.004 256.696 180.001 257.111 180.002ZM257.105 194.299C256.696 194.299 256.288 194.297 255.88 194.3C255.468 194.302 255.17 194.574 255.17 194.945C255.17 195.315 255.467 195.59 255.879 195.591C256.703 195.593 257.526 195.593 258.35 195.591C258.766 195.59 259.049 195.318 259.044 194.935C259.039 194.563 258.757 194.302 258.351 194.3C257.936 194.297 257.52 194.299 257.105 194.299Z" fill="url(#paint8_linear_1113_69)"/>
<path opacity="0.5" d="M271.999 180.549C271.985 181.048 271.852 181.363 271.591 181.624C271.296 181.918 271.003 182.213 270.708 182.507C268.808 184.402 266.916 186.305 265.006 188.19C264.126 189.057 263.103 189.732 261.995 190.278C261.699 190.425 261.408 190.384 261.203 190.175C260.994 189.962 260.96 189.684 261.11 189.38C261.715 188.154 262.5 187.057 263.468 186.09C265.559 184.001 267.648 181.909 269.74 179.821C270.349 179.213 271.31 179.271 271.757 179.956C271.894 180.165 271.951 180.425 271.999 180.549Z" fill="url(#paint9_linear_1113_69)"/>
<g clip-path="url(#clip0_1113_69)">
<path d="M191.613 175.264C191.927 175.41 192.039 175.653 192.036 175.999C192.024 177.423 192.032 178.848 192.031 180.273C192.03 180.796 191.835 180.992 191.318 180.993C190.311 180.993 189.304 180.993 188.297 180.993C188.216 180.993 188.136 180.993 188.042 180.993C188.042 182.14 188.042 183.27 188.042 184.433C188.121 184.433 188.2 184.433 188.279 184.433C188.793 184.433 189.309 184.45 189.823 184.43C190.809 184.39 190.928 184.597 190.893 185.515C190.885 185.715 190.892 185.915 190.892 186.145C190.995 186.145 191.081 186.145 191.168 186.145C192.734 186.145 194.299 186.145 195.866 186.145C196.419 186.145 196.618 186.346 196.619 186.9C196.619 187.593 196.619 188.285 196.619 189.009C196.743 189.009 196.851 189.009 196.96 189.009C197.4 189.009 197.84 189.005 198.28 189.011C198.675 189.016 198.904 189.247 198.905 189.642C198.908 190.746 198.908 191.85 198.905 192.953C198.904 193.364 198.684 193.586 198.27 193.597C197.987 193.604 197.703 193.598 197.42 193.598C196.249 193.598 195.078 193.599 193.907 193.598C193.38 193.597 193.179 193.394 193.179 192.866C193.178 191.829 193.179 190.792 193.179 189.755C193.179 189.204 193.377 189.009 193.937 189.009C194.436 189.009 194.934 189.009 195.45 189.009C195.45 188.441 195.45 187.885 195.45 187.314C193.943 187.314 192.434 187.314 190.891 187.314C190.891 187.627 190.891 187.944 190.891 188.262C190.891 188.818 190.698 189.008 190.136 189.008C189.444 189.008 188.752 189.008 188.044 189.008C188.044 190.542 188.044 192.058 188.044 193.598C188.134 193.598 188.214 193.598 188.295 193.598C188.951 193.598 189.608 193.594 190.264 193.6C190.664 193.604 190.888 193.827 190.889 194.227C190.894 195.331 190.894 196.435 190.889 197.538C190.888 197.948 190.657 198.176 190.249 198.176C188.385 198.179 186.521 198.178 184.656 198.176C184.248 198.176 184.014 197.947 184.013 197.541C184.01 196.436 184.01 195.332 184.013 194.229C184.015 193.829 184.239 193.603 184.637 193.6C185.294 193.594 185.95 193.598 186.606 193.598C186.686 193.598 186.767 193.598 186.861 193.598C186.861 192.064 186.861 190.553 186.861 189.008C186.783 189.008 186.705 189.008 186.626 189.008C185.984 189.008 185.343 189.009 184.701 189.008C184.222 189.007 184.013 188.794 184.012 188.308C184.011 187.981 184.012 187.654 184.012 187.311C182.486 187.311 180.977 187.311 179.452 187.311C179.452 187.867 179.452 188.422 179.452 189.008C179.531 189.008 179.61 189.008 179.689 189.008C180.158 189.008 180.629 189.004 181.098 189.009C181.485 189.014 181.721 189.242 181.722 189.618C181.727 190.745 181.727 191.871 181.722 192.997C181.72 193.337 181.512 193.554 181.176 193.591C181.109 193.598 181.042 193.597 180.975 193.597C179.565 193.597 178.156 193.591 176.746 193.601C176.396 193.603 176.138 193.497 175.996 193.165C175.996 191.927 175.996 190.688 175.996 189.45C176.13 189.112 176.386 188.991 176.739 189.005C177.104 189.02 177.47 189.008 177.835 189.008C177.981 189.008 178.126 189.008 178.284 189.008C178.284 188.274 178.283 187.573 178.284 186.873C178.284 186.352 178.493 186.144 179.018 186.144C180.591 186.143 182.164 186.144 183.737 186.144C183.823 186.144 183.91 186.144 184.011 186.144C184.011 185.777 184.009 185.443 184.011 185.109C184.014 184.653 184.229 184.434 184.679 184.433C185.328 184.431 185.977 184.432 186.626 184.432C186.704 184.432 186.783 184.432 186.86 184.432C186.86 183.268 186.86 182.138 186.86 180.992C186.765 180.992 186.684 180.992 186.603 180.992C185.604 180.992 184.605 180.992 183.606 180.992C183.062 180.992 182.872 180.801 182.872 180.249C182.871 178.839 182.879 177.429 182.866 176.02C182.863 175.67 182.964 175.413 183.289 175.263C186.064 175.264 188.839 175.264 191.613 175.264Z" fill="url(#paint10_linear_1113_69)"/>
</g>
<g clip-path="url(#clip1_1113_69)">
<path d="M296.037 82C296.412 82 296.787 82 297.162 82C297.483 82.0404 297.806 82.0695 298.125 82.1225C300.13 82.4573 301.877 83.3197 303.315 84.7559C305.471 86.9104 306.421 89.5287 306.145 92.5611C305.96 94.5963 305.163 96.3954 303.801 97.924C301.993 99.9541 299.718 101.048 297.002 101.18C295.109 101.272 293.328 100.831 291.708 99.8428C289.217 98.3236 287.688 96.1226 287.149 93.248C287.082 92.8883 287.049 92.5221 287 92.1587C287 91.7841 287 91.409 287 91.0343C287.015 90.8996 287.031 90.7648 287.046 90.6296C287.276 88.5648 288.065 86.7432 289.457 85.1986C290.935 83.5587 292.767 82.5347 294.946 82.1493C295.307 82.0854 295.673 82.0488 296.037 82ZM294.2 91.5925C294.2 92.7545 294.201 93.916 294.198 95.078C294.198 95.27 294.226 95.4419 294.411 95.5423C294.597 95.6433 294.757 95.57 294.917 95.4672C296.718 94.3085 298.52 93.1517 300.321 91.994C300.695 91.7536 300.697 91.4418 300.326 91.2033C298.52 90.0414 296.713 88.8817 294.907 87.7193C294.745 87.6151 294.584 87.5512 294.401 87.6564C294.226 87.7568 294.198 87.9226 294.198 88.1075C294.201 89.2691 294.2 90.431 294.2 91.5925Z" fill="url(#paint11_linear_1113_69)"/>
</g>
<g clip-path="url(#clip2_1113_69)">
<path d="M176.177 53.9004C176.177 49.9037 176.177 45.907 176.177 41.9108C176.19 41.8653 176.209 41.8208 176.215 41.7747C176.47 39.9717 178.044 38.5586 179.873 38.5531C184.467 38.5383 189.06 38.546 193.654 38.5504C194.4 38.5509 195.093 38.7638 195.701 39.1977C196.712 39.919 197.277 40.8784 197.276 42.1478C197.269 46.0068 197.274 49.8658 197.271 53.7254C197.271 53.9152 197.247 54.1089 197.205 54.2937C196.798 56.0518 195.286 57.2564 193.472 57.2636C192.098 57.269 190.726 57.2647 189.352 57.2647C186.241 57.2647 183.131 57.2674 180.021 57.2636C178.217 57.2614 176.709 56.0924 176.282 54.3787C176.243 54.2197 176.211 54.0595 176.177 53.9004ZM186.765 55.2191C188.997 55.2191 191.228 55.2197 193.46 55.218C193.603 55.218 193.75 55.2197 193.89 55.1928C194.64 55.0474 195.124 54.4056 195.124 53.551C195.126 49.8291 195.127 46.1072 195.124 42.3853C195.124 41.4006 194.411 40.693 193.42 40.693C188.95 40.6914 184.481 40.6914 180.011 40.693C179.014 40.6936 178.312 41.3924 178.311 42.3842C178.31 46.099 178.31 49.8143 178.312 53.529C178.312 53.6651 178.317 53.8044 178.346 53.9361C178.518 54.7057 179.172 55.2169 179.989 55.218C182.248 55.2208 184.506 55.2191 186.765 55.2191Z" fill="url(#paint12_linear_1113_69)"/>
<path d="M186.639 53.4102C184.978 53.4102 183.316 53.4124 181.655 53.4091C181.036 53.408 180.616 53.0646 180.52 52.4924C180.47 52.1962 180.539 51.9192 180.698 51.6691C181.474 50.4442 182.251 49.2193 183.036 47.9987C183.294 47.5983 183.673 47.409 184.154 47.4409C184.43 47.459 184.65 47.5862 184.821 47.8007C184.987 48.0097 185.155 48.2176 185.319 48.4288C185.79 49.0382 186.646 49.0322 187.09 48.403C187.547 47.7541 187.986 47.092 188.436 46.4381C188.738 45.9993 189.256 45.8194 189.757 45.974C190.095 46.0788 190.309 46.3076 190.446 46.629C191.128 48.2253 191.816 49.8188 192.498 51.4151C192.594 51.64 192.702 51.8693 192.743 52.1068C192.866 52.8128 192.342 53.4091 191.624 53.4102C189.962 53.4113 188.301 53.4102 186.639 53.4102Z" fill="url(#paint13_linear_1113_69)"/>
<path d="M190.103 43.7509C190.106 42.9061 190.846 42.1903 191.712 42.1919C192.551 42.1941 193.306 42.9462 193.308 43.7821C193.311 44.6203 192.536 45.3888 191.696 45.3812C190.828 45.374 190.098 44.6275 190.103 43.7509Z" fill="url(#paint14_linear_1113_69)"/>
</g>
<path d="M355.328 139H357.024V134.648H361.216V133.112H357.024V129.96H362.112V128.44H355.328V139ZM369.503 134.248C369.503 132.136 368.223 130.968 366.287 130.968C364.927 130.968 363.759 131.512 362.975 132.648L363.951 133.64C364.607 132.856 365.247 132.472 366.127 132.472C367.199 132.472 367.807 133.064 367.807 134.152V134.664H365.583C363.807 134.664 362.687 135.544 362.687 136.904C362.687 138.264 363.775 139.176 365.423 139.176C366.495 139.176 367.359 138.808 367.935 138.12V139H369.503V134.248ZM367.807 136.024C367.807 137.096 366.911 137.88 365.775 137.88C364.959 137.88 364.399 137.496 364.399 136.84C364.399 136.2 364.895 135.88 365.791 135.88H367.807V136.024ZM376.513 137.576C376.049 137.624 375.713 137.656 375.473 137.656C374.449 137.656 373.921 137.304 373.921 136.296V132.6H376.257V131.144H373.921V129.08H372.225V131.144H370.945V132.6H372.225V136.44C372.225 138.28 373.313 139.176 375.121 139.176C375.521 139.176 375.985 139.112 376.513 139V137.576ZM378.136 135.704C378.136 137.816 379.608 139.176 381.576 139.176C383.496 139.176 384.984 137.816 384.984 135.704V131.144H383.304V135.832C383.304 136.92 382.552 137.624 381.576 137.624C380.552 137.624 379.8 136.92 379.8 135.832V131.144H378.136V135.704ZM391.837 131.144C391.645 131.096 391.437 131.064 391.197 131.064C390.301 131.064 389.469 131.464 388.909 132.168V131.144H387.341V139H389.021V134.808C389.021 133.416 389.997 132.632 391.325 132.632H391.837V131.144ZM399.425 134.248C399.425 132.136 398.145 130.968 396.209 130.968C394.849 130.968 393.681 131.512 392.897 132.648L393.873 133.64C394.529 132.856 395.169 132.472 396.049 132.472C397.121 132.472 397.729 133.064 397.729 134.152V134.664H395.505C393.729 134.664 392.609 135.544 392.609 136.904C392.609 138.264 393.697 139.176 395.345 139.176C396.417 139.176 397.281 138.808 397.857 138.12V139H399.425V134.248ZM397.729 136.024C397.729 137.096 396.833 137.88 395.697 137.88C394.881 137.88 394.321 137.496 394.321 136.84C394.321 136.2 394.817 135.88 395.713 135.88H397.729V136.024ZM413.555 134.088C413.555 132.216 412.451 130.968 410.643 130.968C409.539 130.968 408.563 131.448 407.987 132.2C407.523 131.432 406.691 130.968 405.603 130.968C404.659 130.968 403.891 131.304 403.331 131.88V131.144H401.763V139H403.443V134.328C403.443 133.24 404.147 132.504 405.171 132.504C406.179 132.504 406.819 133.24 406.819 134.328V139H408.499V134.248C408.499 133.24 409.203 132.504 410.227 132.504C411.235 132.504 411.859 133.224 411.859 134.328V139H413.555V134.088ZM422.96 135.624C423.04 135.256 423.088 134.904 423.088 134.568C423.088 132.52 421.536 130.968 419.456 130.968C417.232 130.92 415.344 132.824 415.392 135.08C415.392 137.4 417.216 139.176 419.616 139.176C420.816 139.176 421.856 138.76 422.752 137.912L421.952 136.76C421.248 137.384 420.48 137.688 419.664 137.688C418.32 137.688 417.312 136.904 417.104 135.624H422.96ZM417.136 134.312C417.392 133.144 418.288 132.392 419.392 132.392C420.496 132.392 421.392 133.112 421.408 134.312H417.136ZM431.877 134.088C431.877 132.216 430.773 130.968 428.933 130.968C427.957 130.968 427.173 131.288 426.581 131.912V131.144H425.013V139H426.693V134.312C426.693 133.24 427.445 132.488 428.485 132.488C429.509 132.488 430.197 133.224 430.197 134.312V139H431.877V134.088ZM438.888 137.576C438.424 137.624 438.088 137.656 437.848 137.656C436.824 137.656 436.296 137.304 436.296 136.296V132.6H438.632V131.144H436.296V129.08H434.6V131.144H433.32V132.6H434.6V136.44C434.6 138.28 435.688 139.176 437.496 139.176C437.896 139.176 438.36 139.112 438.888 139V137.576ZM439.939 135.064C439.891 137.288 441.827 139.224 444.083 139.176C446.371 139.224 448.307 137.288 448.259 135.064C448.307 132.84 446.371 130.92 444.083 130.968C441.827 130.936 439.891 132.808 439.939 135.064ZM446.531 135.08C446.531 136.504 445.475 137.624 444.083 137.624C442.707 137.624 441.651 136.536 441.651 135.08C441.651 133.624 442.707 132.504 444.099 132.504C445.459 132.504 446.531 133.624 446.531 135.08Z" fill="white"/>
<defs>
<linearGradient id="paint0_linear_1113_69" x1="263.183" y1="76.8999" x2="170.325" y2="95.1381" gradientUnits="userSpaceOnUse">
<stop stop-color="#02AAC3"/>
<stop offset="1" stop-color="#0054C9"/>
</linearGradient>
<linearGradient id="paint1_linear_1113_69" x1="312.667" y1="164.487" x2="274.108" y2="161.963" gradientUnits="userSpaceOnUse">
<stop stop-color="#00B395"/>
<stop offset="1" stop-color="#D4FF00"/>
</linearGradient>
<linearGradient id="paint2_linear_1113_69" x1="310.397" y1="150.716" x2="290.707" y2="149.554" gradientUnits="userSpaceOnUse">
<stop stop-color="#00B395"/>
<stop offset="1" stop-color="#D4FF00"/>
</linearGradient>
<linearGradient id="paint3_linear_1113_69" x1="166.785" y1="110.419" x2="126.147" y2="107.046" gradientUnits="userSpaceOnUse">
<stop stop-color="#00B395"/>
<stop offset="1" stop-color="#D4FF00"/>
</linearGradient>
<linearGradient id="paint4_linear_1113_69" x1="135.813" y1="163.428" x2="172.522" y2="160.99" gradientUnits="userSpaceOnUse">
<stop stop-color="#00B395"/>
<stop offset="1" stop-color="#D4FF00"/>
</linearGradient>
<linearGradient id="paint5_linear_1113_69" x1="141.031" y1="152.049" x2="169.37" y2="148.95" gradientUnits="userSpaceOnUse">
<stop stop-color="#00B395"/>
<stop offset="1" stop-color="#D4FF00"/>
</linearGradient>
<linearGradient id="paint6_linear_1113_69" x1="269.635" y1="68.7476" x2="235.375" y2="67.0144" gradientUnits="userSpaceOnUse">
<stop stop-color="#00B395"/>
<stop offset="1" stop-color="#D4FF00"/>
</linearGradient>
<linearGradient id="paint7_linear_1113_69" x1="265.048" y1="42.6175" x2="254.527" y2="41.8785" gradientUnits="userSpaceOnUse">
<stop stop-color="#00B395"/>
<stop offset="1" stop-color="#D4FF00"/>
</linearGradient>
<linearGradient id="paint8_linear_1113_69" x1="269.962" y1="212.645" x2="238.603" y2="211.298" gradientUnits="userSpaceOnUse">
<stop stop-color="#00B395"/>
<stop offset="1" stop-color="#D4FF00"/>
</linearGradient>
<linearGradient id="paint9_linear_1113_69" x1="276.423" y1="197.561" x2="252.344" y2="195.959" gradientUnits="userSpaceOnUse">
<stop stop-color="#00B395"/>
<stop offset="1" stop-color="#D4FF00"/>
</linearGradient>
<linearGradient id="paint10_linear_1113_69" x1="208.137" y1="213.216" x2="157.9" y2="209.88" gradientUnits="userSpaceOnUse">
<stop stop-color="#00B395"/>
<stop offset="1" stop-color="#D4FF00"/>
</linearGradient>
<linearGradient id="paint11_linear_1113_69" x1="313.923" y1="113.787" x2="271.842" y2="110.992" gradientUnits="userSpaceOnUse">
<stop stop-color="#00B395"/>
<stop offset="1" stop-color="#D4FF00"/>
</linearGradient>
<linearGradient id="paint12_linear_1113_69" x1="205.776" y1="69.5526" x2="159.567" y2="66.0946" gradientUnits="userSpaceOnUse">
<stop stop-color="#00B395"/>
<stop offset="1" stop-color="#D4FF00"/>
</linearGradient>
<linearGradient id="paint13_linear_1113_69" x1="197.699" y1="58.3272" x2="171.019" y2="55.4285" gradientUnits="userSpaceOnUse">
<stop stop-color="#00B395"/>
<stop offset="1" stop-color="#D4FF00"/>
</linearGradient>
<linearGradient id="paint14_linear_1113_69" x1="194.6" y1="47.4742" x2="187.571" y2="47.005" gradientUnits="userSpaceOnUse">
<stop stop-color="#00B395"/>
<stop offset="1" stop-color="#D4FF00"/>
</linearGradient>
<clipPath id="clip0_1113_69">
<rect width="22.9111" height="22.9149" fill="white" transform="translate(175.997 175.264)"/>
</clipPath>
<clipPath id="clip1_1113_69">
<rect width="19.1917" height="19.1917" fill="white" transform="translate(287 82)"/>
</clipPath>
<clipPath id="clip2_1113_69">
<rect width="21.0987" height="18.7214" fill="white" transform="translate(176.177 38.5444)"/>
</clipPath>
</defs>
</svg>
