<svg width="68" height="68" viewBox="0 0 68 68" fill="none" xmlns="http://www.w3.org/2000/svg">
<rect width="68" height="68" rx="19.4286" fill="url(#paint0_linear_824_1149)" fill-opacity="0.32"/>
<g clip-path="url(#clip0_824_1149)">
<path d="M24.935 34.9672C23.9335 34.5667 22.9373 34.1675 21.9411 33.7684C21.2185 33.4793 20.4893 33.2035 19.7746 32.8958C18.2816 32.2527 17.9283 30.5433 19.064 29.3883C20.5304 27.8978 22.0208 26.4311 23.4978 24.9538C23.9866 24.4658 24.5711 24.243 25.2578 24.3146C26.6445 24.4579 28.0313 24.5984 29.414 24.7682C29.7169 24.8053 29.8922 24.7257 30.0981 24.5136C31.7385 22.8241 33.3311 21.0803 35.0606 19.4863C37.3678 17.358 40.2263 16.3024 43.2587 15.6804C45.4305 15.2349 47.6275 15.0532 49.8417 15.1275C51.7784 15.1924 52.8636 16.3249 52.8862 18.2517C52.93 21.9303 52.481 25.524 51.0186 28.9401C50.2402 30.7581 49.1656 32.38 47.743 33.7617C46.3257 35.1369 44.8965 36.4975 43.4925 37.8846C43.3344 38.0397 43.2229 38.3408 43.2428 38.5596C43.3597 39.8963 43.5111 41.2303 43.6718 42.5617C43.7622 43.307 43.5589 43.9395 43.0329 44.466C41.5559 45.9459 40.0881 47.4338 38.5925 48.8938C37.4369 50.0223 35.6968 49.6629 35.0765 48.1737C34.4203 46.5997 33.7907 45.015 33.1797 43.4237C33.0402 43.0616 32.8715 43.0099 32.5169 43.0723C30.4753 43.4316 28.4311 43.7738 26.3842 44.1026C24.8009 44.3559 23.6081 43.1452 23.8671 41.5751C24.2178 39.4507 24.5671 37.3263 24.9164 35.2032C24.9257 35.1396 24.9257 35.0746 24.935 34.9672ZM37.0689 47.4351C38.4742 46.0281 39.8251 44.6596 41.1986 43.3136C41.4762 43.0404 41.5718 42.7752 41.5266 42.3973C41.3314 40.802 41.1507 39.204 40.9887 37.6048C40.9714 37.4297 41.0604 37.1844 41.1879 37.0611C42.92 35.3928 44.676 33.7485 46.4094 32.0803C47.3751 31.152 48.1229 30.0566 48.7113 28.8565C50.3797 25.4498 50.8233 21.8083 50.7476 18.0727C50.7357 17.4866 50.4647 17.2678 49.8537 17.2505C47.9396 17.1962 46.0362 17.3115 44.1527 17.6643C41.532 18.1549 38.9577 18.8949 36.9467 20.6971C34.852 22.5748 32.9685 24.6873 31.0066 26.7109C30.8047 26.9191 30.64 27.0424 30.3358 27.0053C28.7206 26.8104 27.1041 26.6433 25.4889 26.4457C25.1808 26.4086 24.9696 26.4669 24.7451 26.695C23.4646 27.9959 22.1669 29.2795 20.8758 30.5698C20.7762 30.6706 20.6898 30.7833 20.5729 30.9186C20.8147 31.0207 21.0099 31.1069 21.2065 31.1865C22.6995 31.7845 24.1952 32.372 25.6842 32.9794C26.703 33.3944 27.2277 34.32 27.055 35.3597C26.8132 36.8144 26.5609 38.2665 26.3191 39.7199C26.1956 40.4638 26.0813 41.2091 25.9578 41.9902C26.0973 41.9769 26.1597 41.9743 26.2221 41.9636C28.3341 41.6175 30.4434 41.2608 32.5567 40.9266C33.7163 40.7436 34.5691 41.2343 35.0127 42.3124C35.3714 43.185 35.7127 44.0655 36.0647 44.9407C36.3902 45.7576 36.7196 46.5678 37.0689 47.4351Z" fill="#F4B317"/>
<path d="M26.6687 52.8894C26.3446 52.6507 26.0138 52.4876 25.7986 52.229C25.537 51.9147 25.5689 51.5156 25.7827 51.1575C25.8491 51.0448 25.9394 50.944 26.0324 50.8512C27.4736 49.4084 28.9015 47.9537 30.3719 46.5427C30.6137 46.3107 31.056 46.1409 31.3814 46.1741C32.201 46.2589 32.5277 47.2416 31.9818 47.8834C31.6497 48.2733 31.2672 48.6207 30.9046 48.9841C29.8034 50.086 28.7089 51.1947 27.5918 52.2794C27.3554 52.5101 27.034 52.6534 26.6687 52.8894Z" fill="#F4B317"/>
<path d="M18.6031 50.5022C18.0001 50.4836 17.6654 50.2953 17.4728 49.9055C17.2602 49.4745 17.324 49.0568 17.6547 48.712C18.2405 48.1033 18.8462 47.5132 19.4439 46.9164C20.3113 46.0492 21.1773 45.1806 22.0474 44.3173C22.5853 43.7842 23.2216 43.7378 23.6719 44.1873C24.1328 44.6462 24.0943 45.2668 23.5536 45.8092C22.1377 47.2294 20.7231 48.651 19.2912 50.054C19.068 50.2728 18.7572 50.4041 18.6031 50.5022Z" fill="#F4B317"/>
<path d="M15.1113 41.008C15.1857 40.8768 15.284 40.5837 15.4806 40.3848C16.9324 38.9088 18.3988 37.4475 19.8719 35.9927C20.3501 35.5207 21.0009 35.5153 21.426 35.941C21.8484 36.3641 21.8418 37.0112 21.3649 37.4926C19.9078 38.9619 18.4387 40.4206 16.9709 41.8819C16.6229 42.228 16.2125 42.354 15.7462 42.1485C15.3278 41.9642 15.118 41.63 15.1113 41.008Z" fill="#F4B317"/>
<path d="M42.6682 29.5396C40.2985 29.5277 38.4216 27.6221 38.4416 25.2484C38.4615 22.9251 40.3981 21.0288 42.7266 21.054C45.0631 21.0792 46.9359 22.9861 46.9253 25.3319C46.916 27.6712 45.0139 29.5516 42.6682 29.5396ZM42.6987 27.4166C43.8716 27.4113 44.8226 26.4538 44.8133 25.2882C44.804 24.1252 43.8357 23.1744 42.6695 23.1837C41.5046 23.193 40.5442 24.161 40.5535 25.3174C40.5642 26.4843 41.5232 27.4232 42.6987 27.4166Z" fill="#F4B317"/>
<path d="M37.3746 39.2835C37.36 39.794 37.1475 40.1096 36.7397 40.2754C36.2947 40.4557 35.8763 40.3709 35.5575 40.0181C35.3848 39.8272 35.2666 39.5779 35.1617 39.3378C33.8453 36.3329 31.6935 34.1621 28.685 32.8426C28.4738 32.7498 28.2533 32.661 28.066 32.5284C27.6117 32.2074 27.4775 31.6332 27.7219 31.1598C27.969 30.6811 28.4963 30.4756 29.037 30.693C32.9514 32.2658 35.701 35.0081 37.2803 38.9161C37.3348 39.0514 37.3547 39.2013 37.3746 39.2835Z" fill="#F4B317"/>
</g>
<defs>
<linearGradient id="paint0_linear_824_1149" x1="0" y1="34" x2="68" y2="34" gradientUnits="userSpaceOnUse">
<stop stop-color="#FECB36"/>
<stop offset="1" stop-color="#FECB36" stop-opacity="0.23"/>
</linearGradient>
<clipPath id="clip0_824_1149">
<rect width="37.7778" height="37.7778" fill="white" transform="translate(15.1113 15.1104)"/>
</clipPath>
</defs>
</svg>
